<svg id="Capa_1" data-name="Capa 1" xmlns="http://www.w3.org/2000/svg" viewBox="0 0 1809.83 6965.53"><defs><style>.cls-1{fill:#fff;}.cls-2{fill:#08030c;}</style></defs><title>barra final de  pie de pagina</title><path class="cls-1" d="M737.3,7022.43c.32.18.65.43,1,.69l1.08.76,2.18,1.5,4.36,3a16.24,16.24,0,0,0,2.41,1.24,4.64,4.64,0,0,1,1,.63,1.27,1.27,0,0,1,.35.41l.39.57a11.87,11.87,0,0,0,4.24,3.3c1.58.81,3.2,1.48,4.7,2.42-1.42-1.05-3-1.86-4.49-2.79a11.54,11.54,0,0,1-3.84-3.35l-.31-.54a2.87,2.87,0,0,0-.47-.63,5.91,5.91,0,0,0-1.17-.82,15,15,0,0,1-2.21-1.31l-4.17-3.24-2.08-1.61-1.05-.8c-.34-.26-.7-.56-1.13-.83a5.6,5.6,0,0,0-2.92-.91,6.17,6.17,0,0,0-3,.76l-1.13.64a1.2,1.2,0,0,0-.56-1.15l0,0a64.65,64.65,0,0,0-6.91-4.24,6.85,6.85,0,0,0-2.4-.57,8,8,0,0,0-2.37.27,18.86,18.86,0,0,0-3.91,1.73l-14,7.51-7,3.77-3.45,1.88a3.88,3.88,0,0,1-2.81.57,5,5,0,0,1-1.42-.61c-.58-.34-1.18-.67-1.77-1q-1.78-1-3.6-1.83c-1.2-.58-2.42-1.14-3.63-1.67a16.59,16.59,0,0,0-2-.76,6.27,6.27,0,0,0-2.53-.31,3.68,3.68,0,0,0-.41.08l-.32.1a2.72,2.72,0,0,1-.38.11,4.16,4.16,0,0,1-.77.14,5.35,5.35,0,0,1-1.59-.07c-1.1-.21-2.31-.73-3.67-1.12a20.75,20.75,0,0,0-8.33-.75,24.07,24.07,0,0,0-7.91,2.4c-2.42,1.12-4.77,2.37-7.1,3.66-4.65,2.58-9.14,5.42-13.53,8.39s-8.73,6-13.06,9c4.58-2.66,9.07-5.45,13.62-8.13q3.42-2,6.87-3.94c2.3-1.29,4.62-2.54,7-3.71s4.72-2.31,7.12-3.35a21.69,21.69,0,0,1,7.26-2,19.22,19.22,0,0,1,7.34.83c1.18.35,2.4.93,3.9,1.25a7.89,7.89,0,0,0,3.54,0c.19,0,.37-.11.56-.16l.14,0h0l.08,0a4,4,0,0,1,1.37.25,14.32,14.32,0,0,1,1.68.67l3.55,1.68c1.17.57,2.33,1.16,3.46,1.78q.86.46,1.68,1a7.92,7.92,0,0,0,2.21.94,5.86,5.86,0,0,0,2.6,0,8.82,8.82,0,0,0,2.22-.83l3.53-1.9,7-3.78L716.3,7020a16.08,16.08,0,0,1,3.28-1.56,4.3,4.3,0,0,1,3,.1,41.72,41.72,0,0,1,5.22,3l-5.17,4.41,0,0-.11.1a1.11,1.11,0,0,0,.1,1.56l.32.29,0,0a1.07,1.07,0,0,0,1.3.11l8.92-5.58A3.87,3.87,0,0,1,737.3,7022.43Z" transform="translate(336 -105)"/><path class="cls-1" d="M634,7054.39a1.14,1.14,0,0,1-.3-.92v-4.7H639v-1.45h-5.34v-3.72a1.18,1.18,0,0,1,.29-.93,1.94,1.94,0,0,1,1.19-.25h5v-1.28h-7a3.39,3.39,0,0,0-2.23.5,3.12,3.12,0,0,0-.53,2.16v9.45a3.23,3.23,0,0,0,.5,2.14,2.33,2.33,0,0,0,1.74.53h7.74v-1.28h-5A2.51,2.51,0,0,1,634,7054.39Z" transform="translate(336 -105)"/><path class="cls-1" d="M650.58,7047.39l-1.49-.89-.2-.12c-1.39-.8-2.09-1.59-2.09-2.38a1.64,1.64,0,0,1,.77-1.45,4,4,0,0,1,2.22-.5,6.94,6.94,0,0,1,.76.05c.36,0,1,.1,2,.22v-1.25c-.63-.09-1.18-.16-1.66-.2a12.36,12.36,0,0,0-1.3-.07,6.8,6.8,0,0,0-4.23,1.16,3.89,3.89,0,0,0-1.5,3.25,3.3,3.3,0,0,0,.72,2.12,8.68,8.68,0,0,0,2.56,1.9l1,.52.18.1c1.57.84,2.36,1.76,2.36,2.75a1.91,1.91,0,0,1-.83,1.7,4.61,4.61,0,0,1-2.52.56,11.1,11.1,0,0,1-1.52-.11,15.27,15.27,0,0,1-1.55-.32v1.22c.7.13,1.34.23,1.94.3a14.36,14.36,0,0,0,1.68.1,7.26,7.26,0,0,0,4.44-1.18,3.9,3.9,0,0,0,1.56-3.3,3.57,3.57,0,0,0-.62-2.15A8.82,8.82,0,0,0,650.58,7047.39Z" transform="translate(336 -105)"/><path class="cls-1" d="M666.85,7054.26a3.87,3.87,0,0,1-2.37.8,3.5,3.5,0,0,1-3-1.81,8.64,8.64,0,0,1-1.17-4.75,8.93,8.93,0,0,1,1.11-4.9,3.61,3.61,0,0,1,3.21-1.69,3.67,3.67,0,0,1,2.21.68,5.34,5.34,0,0,1,1.6,2.07l1.23-.66a5.39,5.39,0,0,0-2.19-2.45,6.51,6.51,0,0,0-3.39-.85,6.73,6.73,0,0,0-5.15,2.25,7.82,7.82,0,0,0-2.08,5.52,8.12,8.12,0,0,0,2,5.69,6.62,6.62,0,0,0,5.09,2.25,6.23,6.23,0,0,0,3.41-1,7.13,7.13,0,0,0,2.48-2.77l-1.18-.75A6.65,6.65,0,0,1,666.85,7054.26Z" transform="translate(336 -105)"/><path class="cls-1" d="M679.8,7041.35a2.61,2.61,0,0,0-1.78-.65,2.44,2.44,0,0,0-1.66.58,3.3,3.3,0,0,0-1,1.69l-3.63,12.95h1.45l1.32-4.55H680l1.35,4.55h3.36l-3.8-12.74A3.65,3.65,0,0,0,679.8,7041.35Zm-4.94,8.74,1.77-6.26a3.31,3.31,0,0,1,.28-.68.37.37,0,0,1,.3-.18.53.53,0,0,1,.38.16,1.84,1.84,0,0,1,.32.69l1.76,6.27Z" transform="translate(336 -105)"/><path class="cls-1" d="M693.4,7040.39h-3.58a1.56,1.56,0,0,0-1.56,1.56v23.28a.53.53,0,0,0,1,.25l2.36-4.27a.52.52,0,0,0,.07-.27l-.12-5.17a.53.53,0,0,1,.59-.53h0c.7.07,1.24.1,1.6.1a8,8,0,0,0,5.7-2,7,7,0,0,0,2.17-5.35,7.14,7.14,0,0,0-2.25-5.48A8.45,8.45,0,0,0,693.4,7040.39Zm3.6,10.91a4.8,4.8,0,0,1-3.37,1l-.74,0-.62-.05a.59.59,0,0,1-.59-.53v-8.36a.6.6,0,0,1,.66-.53h.76a5,5,0,0,1,3.8,1.29,5.71,5.71,0,0,1,1.21,4A4.1,4.1,0,0,1,697,7051.3Z" transform="translate(336 -105)"/><path class="cls-1" d="M712.08,7041.35a2.63,2.63,0,0,0-1.79-.65,2.43,2.43,0,0,0-1.65.58,3.31,3.31,0,0,0-1,1.69L704,7055.92h1.45l1.31-4.55h5.48l1.35,4.55H717l-3.79-12.74A3.72,3.72,0,0,0,712.08,7041.35Zm-4.94,8.74,1.77-6.26a2.46,2.46,0,0,1,.28-.68.35.35,0,0,1,.29-.18.53.53,0,0,1,.39.16,2,2,0,0,1,.32.69l1.75,6.27Z" transform="translate(336 -105)"/><path class="cls-1" d="M731.24,7047.59a3.38,3.38,0,0,0,.86-2.38,3.54,3.54,0,0,0-1.43-3,7.08,7.08,0,0,0-4.2-1h-5.93v14.78h3.29v-13.57h1.51a3.58,3.58,0,0,1,2.54.78,3.28,3.28,0,0,1,.82,2.44,2.74,2.74,0,0,1-.84,2.22,4.05,4.05,0,0,1-2.62.74l3.52,7.39h3.93l-3.82-7.22A3.68,3.68,0,0,0,731.24,7047.59Z" transform="translate(336 -105)"/><path class="cls-1" d="M744.15,7043.18a3.65,3.65,0,0,0-1.11-1.83,2.63,2.63,0,0,0-1.79-.65,2.43,2.43,0,0,0-1.65.58,3.38,3.38,0,0,0-1,1.69L735,7055.92h1.45l1.31-4.55h5.48l1.35,4.55h3.35Zm-6,6.91,1.77-6.26a2.46,2.46,0,0,1,.28-.68.35.35,0,0,1,.29-.18.53.53,0,0,1,.39.16,2,2,0,0,1,.32.69l1.75,6.27Z" transform="translate(336 -105)"/><polygon class="cls-1" points="1092.61 6950.92 1092.61 6937.42 1095.76 6937.42 1095.76 6936.14 1086.18 6936.14 1086.18 6937.42 1089.34 6937.42 1089.34 6950.92 1092.61 6950.92"/><path class="cls-1" d="M766,7055.92h7.73v-1.28h-5a2.49,2.49,0,0,1-1.41-.25,1.11,1.11,0,0,1-.31-.92v-4.7h5.35v-1.45h-5.35v-3.72a1.18,1.18,0,0,1,.3-.93,1.92,1.92,0,0,1,1.19-.25h5v-1.28h-7.05a3.39,3.39,0,0,0-2.23.5,3.07,3.07,0,0,0-.53,2.16v9.45a3.24,3.24,0,0,0,.49,2.14A2.38,2.38,0,0,0,766,7055.92Z" transform="translate(336 -105)"/><path class="cls-1" d="M783.19,7054.3a4.57,4.57,0,0,1-2.52.56,11,11,0,0,1-1.51-.11,15.27,15.27,0,0,1-1.55-.32v1.22c.69.13,1.34.23,1.94.3a14.24,14.24,0,0,0,1.68.1,7.21,7.21,0,0,0,4.43-1.18,3.88,3.88,0,0,0,1.57-3.3,3.64,3.64,0,0,0-.62-2.15,8.75,8.75,0,0,0-2.62-2l-1.48-.89-.2-.12c-1.39-.8-2.09-1.59-2.09-2.38a1.62,1.62,0,0,1,.77-1.45,4,4,0,0,1,2.21-.5,6.94,6.94,0,0,1,.77.05c.35,0,1,.1,2,.22v-1.25c-.63-.09-1.18-.16-1.66-.2a12.54,12.54,0,0,0-1.31-.07,6.8,6.8,0,0,0-4.23,1.16,3.89,3.89,0,0,0-1.5,3.25,3.25,3.25,0,0,0,.73,2.12,8.55,8.55,0,0,0,2.56,1.9l.94.52.19.1c1.57.84,2.36,1.76,2.36,2.75A1.9,1.9,0,0,1,783.19,7054.3Z" transform="translate(336 -105)"/><path class="cls-1" d="M741.83,7060.4a1.81,1.81,0,0,0-1.11.32,1.84,1.84,0,0,0-.61,1l-1.4,5.16L737.2,7062a2.69,2.69,0,0,0-.68-1.2,1.65,1.65,0,0,0-1.1-.35,1.56,1.56,0,0,0-1.18.42,1.71,1.71,0,0,0-.41,1.22v8.18h.91v-7.95a.9.9,0,0,1,.06-.28c0-.07.08-.1.13-.1s.14.09.18.28a1.11,1.11,0,0,0,0,.13l2.25,7.56a1.19,1.19,0,0,0,.28.5.63.63,0,0,0,.43.17.53.53,0,0,0,.42-.2,1.73,1.73,0,0,0,.29-.65l2.1-7.49a.67.67,0,0,1,.11-.24.24.24,0,0,1,.17-.06.16.16,0,0,1,.15.09.49.49,0,0,1,.06.27v8h2v-8.06a1.86,1.86,0,0,0-.42-1.31A1.56,1.56,0,0,0,741.83,7060.4Z" transform="translate(336 -105)"/><path class="cls-1" d="M748.84,7069.23a.72.72,0,0,1-.19-.59v-3h3.44v-.94h-3.44v-2.4a.76.76,0,0,1,.19-.6,1.22,1.22,0,0,1,.76-.16h3.25v-.83h-4.54a2.19,2.19,0,0,0-1.44.33,2,2,0,0,0-.34,1.39v6.1a2.1,2.1,0,0,0,.32,1.38,1.53,1.53,0,0,0,1.12.34h5v-.83h-3.2A1.64,1.64,0,0,1,748.84,7069.23Z" transform="translate(336 -105)"/><polygon class="cls-1" points="1085.98 6954.84 1087.2 6953.18 1085.99 6953.18 1084.97 6954.84 1085.98 6954.84"/><polygon class="cls-1" points="1098.23 6955.68 1097.16 6955.68 1094.57 6959.07 1092.29 6955.68 1089.81 6955.68 1093.29 6960.76 1089.9 6965.22 1091.04 6965.22 1093.8 6961.54 1096.31 6965.22 1098.79 6965.22 1095.12 6959.82 1098.23 6955.68"/><rect class="cls-1" x="1100.23" y="6955.68" width="2.12" height="9.53"/><path class="cls-1" d="M775,7069.15a2.51,2.51,0,0,1-1.53.51,2.25,2.25,0,0,1-1.94-1.17,5.59,5.59,0,0,1-.75-3.06,5.73,5.73,0,0,1,.72-3.16,2.32,2.32,0,0,1,2.06-1.09,2.38,2.38,0,0,1,1.43.44,3.46,3.46,0,0,1,1,1.34l.79-.43a3.5,3.5,0,0,0-1.41-1.58,4.19,4.19,0,0,0-2.19-.55,4.34,4.34,0,0,0-3.32,1.45,5.08,5.08,0,0,0-1.34,3.56,5.21,5.21,0,0,0,1.33,3.67,4.24,4.24,0,0,0,3.28,1.45,4,4,0,0,0,2.2-.63,4.6,4.6,0,0,0,1.59-1.78l-.76-.49A4.18,4.18,0,0,1,775,7069.15Z" transform="translate(336 -105)"/><path class="cls-1" d="M786.06,7061.88a4.86,4.86,0,0,0-3.62-1.48,4.13,4.13,0,0,0-3.24,1.38,5.59,5.59,0,0,0,.21,7.27,4.83,4.83,0,0,0,3.6,1.48,4.21,4.21,0,0,0,3.26-1.37,5.12,5.12,0,0,0,1.24-3.57A5.06,5.06,0,0,0,786.06,7061.88Zm-1.48,6.74a2,2,0,0,1-3.7,0,6.06,6.06,0,0,1-.72-3.14,6.15,6.15,0,0,1,.72-3.17,2,2,0,0,1,3.7,0,6.23,6.23,0,0,1,.7,3.17A6.11,6.11,0,0,1,784.58,7068.62Z" transform="translate(336 -105)"/><path class="cls-1" d="M1284.39,7069.72c0,.72.47.8.94.57a2.08,2.08,0,0,0,1.36-1.91C1284.73,7067.92,1284.29,7068.2,1284.39,7069.72Z" transform="translate(336 -105)"/><path class="cls-1" d="M1262.06,7065.6c.65-.73,1.18-1.27,1.65-1.87a1.78,1.78,0,0,1,1.59-.72c2.62,0,5.24,0,7.86,0,.3,0,.6,0,.95-.06-1.18-1.64-2.46-2.76-4.55-2.36a15.17,15.17,0,0,1-2.55,0l4.91-5h-2.28c-2.85,0-2.83,0-4.81,2.08-.93,1-1.93,1.88-3,3l-4.93-5.09-4.91,5c-.22-.2-.43-.36-.61-.54-1.31-1.31-2.61-2.63-3.93-3.94-.18-.18-.4-.44-.61-.44-1.51,0-3,0-4.54,0l-.08.21,4.7,4.82c-1.59,0-2.9,0-4.21,0a1.48,1.48,0,0,0-.91.2c-.68.63-1.29,1.33-2.11,2.19h9.12c.28,0,.66,0,.83.15.74.73,1.42,1.51,2.12,2.28l-.12.22h-21.75c0,.17,0,.24.05.28a2.37,2.37,0,0,0,.29.34c1.14,1,2.16,2,1.8,3.72,0,.12.23.45.37.45,1.39,0,2.79,0,4.39,0l-2-2.3c1.28-.12,2.38-.32,3.13.86.12.19.36.31.48.5.81,1.21,2,1,3.3.89l-1.88-2.22c1.38-.27,2.49-.18,3.25,1,.13.19.37.31.5.5.8,1.17,1.93.74,3.18.76l-2-2.27c1.31-.16,2.4-.26,3.15.87.16.24.45.4.61.63.81,1.16,1.94.77,3.18.76-.71-.82-1.28-1.5-1.94-2.27,1.32-.16,2.42-.22,3.2.92a13.22,13.22,0,0,0,1,1.07c.4.43.73.38,1.1,0,.58-.66,1.19-1.29,1.84-2l.77.82c1.62,1.77,1.7,1.83,3.27.07.9-1,1.87-1,3.18-.86l-1.93,2.21c1.49.31,2.66.17,3.49-1.06a2.79,2.79,0,0,1,3.39-1.08l-1.92,2.18c1.38.14,2.56.3,3.38-.92a5,5,0,0,1,.66-.72,2.35,2.35,0,0,1,2.79-.45l-1.81,2.06c1.43.26,2.61.22,3.41-1,.11-.17.31-.28.43-.45.77-1.09,1.83-.88,3.06-.73l-2,2.29c1.48,0,2.7-.05,3.92,0,.77,0,1-.25.92-1a2.56,2.56,0,0,1,1.09-2.6,10.74,10.74,0,0,0,1.09-1.14l-.13-.22Z" transform="translate(336 -105)"/><path class="cls-1" d="M1267.43,7021.1c1.29,1.33,2.6,2.65,3.89,4a6.1,6.1,0,0,1,.42.57c-1.47,0-2.79,0-4.11,0-.24,0-.66.27-.67.43,0,1.43,0,2.86,0,4.34h4.91v5.06h3.8c1.29,0,1.29,0,1.3-1.28v-3.38l.3-.13c1.34,1.39,2.68,2.8,4,4.16a1.92,1.92,0,0,0,1.09.6c1.29.07,2.59,0,3.89,0,.49,0,.67-.19.66-.68,0-1.21,0-2.42,0-3.62a2,2,0,0,0-.52-1.21c-1.13-1.2-2.33-2.33-3.5-3.49-.2-.21-.37-.45-.68-.83,1.42,0,2.6,0,3.77,0,.8.05,1-.25,1-1a28.11,28.11,0,0,1,0-3.18c0-.77-.26-.95-1-.92-1.06.05-2.12,0-3.18,0-.72,0-.91-.23-.89-.91,0-1.35,0-2.7,0-4.14h-3.81c-1.21,0-1.21,0-1.21,1.17v3.55c-1.61-1.33-3-2.72-4.38-4.1-.23-.22-.49-.56-.75-.57-1.6,0-3.2,0-4.85,0,0,1.64,0,3.14,0,4.64A1.61,1.61,0,0,0,1267.43,7021.1Zm14.09-.46c.13,0,.35.25.35.38,0,1.4,0,2.8,0,4.39l-4.59-4.79C1278.67,7020.62,1280.1,7020.61,1281.52,7020.64Zm-5.22,9.77h-4.43v-4.68Z" transform="translate(336 -105)"/><path class="cls-1" d="M1230.88,7035.51a2.22,2.22,0,0,0,1.92-.8c1.26-1.38,2.59-2.7,3.89-4l.26.16v4.66c1.23,0,2.37,0,3.5,0,1.74,0,1.52.24,1.56-1.55,0-1.19.1-2.38.16-3.58h4.75v-4.74H1242c1.63-1.65,3-3.09,4.46-4.54.2-.2.47-.45.48-.69,0-1.58,0-3.16,0-4.83-1.5,0-2.91,0-4.31,0a1.85,1.85,0,0,0-1.15.47c-1.26,1.19-2.46,2.44-3.69,3.67-.22.22-.45.42-.86.79v-4.89h-5v4.88h-4.77v4c0,1.15,0,1.15,1.13,1.16h3.55c-1.53,1.56-2.85,2.89-4.15,4.24-.21.22-.49.51-.5.78,0,1.56,0,3.11,0,4.79C1228.48,7035.49,1229.68,7035.45,1230.88,7035.51Zm11.07-9.81c0,1.44,0,2.62,0,3.81a4.54,4.54,0,0,0,.2.85h-4.59Zm-5.27-4.94-4.67,4.31v-4.53h4.6Z" transform="translate(336 -105)"/><path class="cls-1" d="M1252.19,7058.16l4.89-5.05,4.7,5,5-4.88-5.16-5-4.82,5.09-4.81-4.94-5.09,4.83Z" transform="translate(336 -105)"/><path class="cls-1" d="M1251.91,7025.73a4.2,4.2,0,0,1,2-4.48,4,4,0,0,1,1.55-.61,23.41,23.41,0,0,1,3.35,0,2.71,2.71,0,0,1,1.23.48,4.3,4.3,0,0,1,1.89,4.46,34.36,34.36,0,0,0,0,4.06c0,.26,0,.51,0,.79h2.29a1.1,1.1,0,0,0,.09-.25l0-11.64c0-.53-.26-.63-.71-.62-1.09,0-2.18,0-3.27,0a1.88,1.88,0,0,1-1.55-.63c-.59-.6-1.23-1.14-1.92-1.78-.63.65-1.21,1.19-1.72,1.79a1.65,1.65,0,0,1-1.45.62c-1.35,0-2.7,0-4.12,0v12.47h2.33A45.08,45.08,0,0,0,1251.91,7025.73Z" transform="translate(336 -105)"/><path class="cls-1" d="M1286.61,7040.51c-1.93,0-3.86,0-5.79,0a2,2,0,0,0-1.83.78c-.71.86-1.54,1.62-2.26,2.47a2,2,0,0,0-.46,1.17c0,1.76,0,3.53,0,5.29a6.2,6.2,0,0,0,.08.74l.26.17c1-1.11,2-2.23,3.08-3.35l3.49,3.52,3.68-3.48-3.59-3.72,3.55-3.22Z" transform="translate(336 -105)"/><path class="cls-1" d="M1235.93,7042.4a4,4,0,0,1-.83-.91,2.4,2.4,0,0,0-2.34-1c-1.52.09-3,0-4.58,0-.25,0-.49,0-.91.08l3.57,3.86-3.51,3.18c1.16,1.22,2.26,2.35,3.43,3.57l3.45-3.61,3.15,3.48.27-.15c0-1.35-.1-2.7,0-4A4.53,4.53,0,0,0,1235.93,7042.4Z" transform="translate(336 -105)"/><path class="cls-1" d="M1286.93,7052.16l-.21-.08-3.5,3.91c-1-1.05-2-2-3-3-.17-.16-.59-.33-.71-.24-1.09.83-2.13,1.71-3.3,2.67,1.06,1,2,2,3,2.85.47.44.46.75,0,1.23-1,1.07-1.83,2.2-2.91,3.5a27.89,27.89,0,0,1,3.69,0,6.61,6.61,0,0,0,7-6.45C1286.83,7055.14,1286.93,7053.64,1286.93,7052.16Z" transform="translate(336 -105)"/><path class="cls-1" d="M1231.34,7063c1.79.06,3.59,0,5.38,0,.22,0,.43-.05.79-.09l-3.44-4.18,3.6-3.33-3.67-3-3.31,3.61-3.3-3.93-.16.13v6.6c1,1.21,1.92,2.45,3,3.61A1.78,1.78,0,0,0,1231.34,7063Z" transform="translate(336 -105)"/><path class="cls-1" d="M1249.83,7040.34c-.47.51-.17,1.72-.22,2.61,0,.05.12.12.2.16a3.53,3.53,0,0,0,2.64-.46c1.29-1.29,2.61-2.55,3.86-3.88.51-.54.83-.52,1.33,0,1.23,1.31,2.52,2.56,3.77,3.83a3.34,3.34,0,0,0,2.7.49.77.77,0,0,0,.24-.52c.08-1.21.11-2.41-1.11-3.2a4.76,4.76,0,0,1-.75-.74l-5.51-5.38C1254.56,7035.61,1252.09,7037.88,1249.83,7040.34Z" transform="translate(336 -105)"/><path class="cls-1" d="M1269.51,7050.55c1.24,2.25,2.66,3,4.8,2.55,0-.29,0-.61,0-.93,0-2.7,0-5.41,0-8.12a2.06,2.06,0,0,1,.67-1.63c1.16-1.12,2.3-2.28,3.44-3.43.23-.23.44-.48.81-.88-1.54,0-2.82,0-4.11,0a1.74,1.74,0,0,0-1.53.68c-1,1.21-2.1,2.12-3.81,1.75-.09,0-.19.06-.59.22l2.62,2.28-2.46.11,2.3,2.33-2.33.11,2.5,2.6h-2.27l-.12.19,2.18,1.92-.13.27Z" transform="translate(336 -105)"/><path class="cls-1" d="M1244.3,7043.12l-2.15-.1,2.21-2.34v-.3c-2.08.72-3.19-.55-4.32-1.82-.16-.18-.41-.42-.63-.42-1.51,0-3,0-4.7,0a7.3,7.3,0,0,0,.48.61c1.25,1.28,2.54,2.53,3.75,3.85a2.28,2.28,0,0,1,.58,1.36c.06,2.76,0,5.53,0,8.29,0,.31,0,.62,0,1.06a6.3,6.3,0,0,0,2.47-.26,13.45,13.45,0,0,0,2.31-2.28l-.15-.24h-2.13l2.3-2.19-.07-.2h-2.1l-.19-.33,2.37-2-.1-.24h-1.94l-.13-.27,2.21-1.89Z" transform="translate(336 -105)"/><path class="cls-1" d="M1252.28,7045.21c-.12.13,0,.62.12.79.86.92,1.76,1.81,2.65,2.7.62.62,1.24,1.22,1.71,1.68l5.13-4.92-5.09-4.87C1255.3,7042.11,1253.77,7043.64,1252.28,7045.21Z" transform="translate(336 -105)"/><path class="cls-1" d="M1254.56,7033l2.38-2.51,2.63,2.52c0-2.54,0-4.82,0-7.1a.72.72,0,0,0-.17-.48c-.78-.83-1.59-1.63-2.38-2.43-1.59,1.35-2.89,2.7-2.47,4.95a13.45,13.45,0,0,1,0,2.46Z" transform="translate(336 -105)"/><path class="cls-1" d="M1245.33,7033c-.55,0-.8.15-.78.75,0,1.26,0,2.53,0,3.79a1.35,1.35,0,0,0,.28.79c.65.72,1.35,1.39,1.92,2l5.08-4.82c-1.18-1.7-2.53-2.92-4.76-2.48A7.39,7.39,0,0,1,1245.33,7033Z" transform="translate(336 -105)"/><path class="cls-1" d="M1262,7035.38l5.11,5.09,1.24-1.34c.34-.37.91-.73.94-1.12.1-1.63,0-3.26,0-5-1.59,0-3.06,0-4.53,0a.89.89,0,0,0-.56.18C1263.42,7034,1262.67,7034.68,1262,7035.38Z" transform="translate(336 -105)"/><path class="cls-1" d="M1266.9,7043.24c-1.47,1.21-3.08,2.13-2.61,4.35.31,1.45,1.69,1.84,2.61,2.74Z" transform="translate(336 -105)"/><path class="cls-1" d="M1247.2,7043.23l-.17.18v7c1.63-1.2,3.25-2.4,2.48-4.54C1249.13,7044.86,1248,7044.11,1247.2,7043.23Z" transform="translate(336 -105)"/><path class="cls-1" d="M1276.91,7058.24l-2.62-2.34c0,.51,0,1.06,0,1.6s-.14.75-.69.71-1,0-1.57,0l2.38,2.35Z" transform="translate(336 -105)"/><path class="cls-1" d="M1239.59,7055.94l-2.55,2.38,2.27,2.1,2.45-2.21c-.55,0-1,0-1.48,0s-.73-.19-.7-.72S1239.59,7056.42,1239.59,7055.94Z" transform="translate(336 -105)"/><path class="cls-1" d="M1227.46,7068.35c0,1.34.85,2.18,1.93,1.87C1229.54,7068.17,1229.78,7068.05,1227.46,7068.35Z" transform="translate(336 -105)"/><path class="cls-1" d="M1314.87,7021.07a7.34,7.34,0,0,0-1.32.22,5.31,5.31,0,0,0-1.26.42,1.83,1.83,0,0,0-.74,1.3,12.63,12.63,0,0,0-.19,2.44v14.07H1310l-13.12-15.72v9.91a11.09,11.09,0,0,0,.23,2.56,2.29,2.29,0,0,0,.73,1.27,3.89,3.89,0,0,0,1.45.56,10,10,0,0,0,1.45.27v1h-8.88v-1a10.11,10.11,0,0,0,1.39-.27,4.05,4.05,0,0,0,1.22-.42,2,2,0,0,0,.73-1.16,12.38,12.38,0,0,0,.2-2.66v-9.47a3.23,3.23,0,0,0-.25-1.24,2.33,2.33,0,0,0-.65-1,4.92,4.92,0,0,0-1.49-.76,6.09,6.09,0,0,0-1.52-.35v-1h6.19l12.17,14.65v-9.14a10.51,10.51,0,0,0-.25-2.58,1.91,1.91,0,0,0-.7-1.19,5.3,5.3,0,0,0-1.4-.51,8.7,8.7,0,0,0-1.47-.27v-1h8.81Z" transform="translate(336 -105)"/><path class="cls-1" d="M1330.47,7039.08c-.47.16-.89.28-1.25.38a5.2,5.2,0,0,1-1.23.14,3.32,3.32,0,0,1-1.9-.49,2.23,2.23,0,0,1-.91-1.45h-.09a7.29,7.29,0,0,1-2.13,1.49,6.5,6.5,0,0,1-2.74.52,4.16,4.16,0,0,1-2.78-.92,3,3,0,0,1-1.09-2.41,3.79,3.79,0,0,1,.24-1.39,3.27,3.27,0,0,1,.73-1.09,3.65,3.65,0,0,1,1-.73,9.1,9.1,0,0,1,1.17-.5c.46-.16,1.39-.44,2.79-.86a22.66,22.66,0,0,0,2.83-1v-1.34a4.64,4.64,0,0,0-.09-.68,2.61,2.61,0,0,0-.35-.95,2.88,2.88,0,0,0-.87-.87,2.8,2.8,0,0,0-1.58-.37,4.21,4.21,0,0,0-1.3.2,2.61,2.61,0,0,0-.85.45,3.16,3.16,0,0,0,.15.79,4.06,4.06,0,0,1,.14,1,1.13,1.13,0,0,1-.48.87,2,2,0,0,1-1.33.39,1.3,1.3,0,0,1-1.12-.48,1.76,1.76,0,0,1-.36-1.08,1.8,1.8,0,0,1,.49-1.19,4.85,4.85,0,0,1,1.29-1,7.78,7.78,0,0,1,1.67-.64,7.06,7.06,0,0,1,1.9-.26,14.62,14.62,0,0,1,2.24.15,4.56,4.56,0,0,1,1.73.67,3.25,3.25,0,0,1,1.18,1.36,5.27,5.27,0,0,1,.41,2.22c0,1.29,0,2.43,0,3.43s0,2.09,0,3.27a1.49,1.49,0,0,0,.2.84,1.51,1.51,0,0,0,1.36.66l1,0Zm-5.32-7.15c-.87.23-1.62.45-2.27.67a10,10,0,0,0-1.82.81,4,4,0,0,0-1.21,1.1,2.58,2.58,0,0,0-.44,1.5,2,2,0,0,0,.67,1.65,2.62,2.62,0,0,0,1.68.53,3.73,3.73,0,0,0,1.91-.47,5.49,5.49,0,0,0,1.39-1.1Z" transform="translate(336 -105)"/><path class="cls-1" d="M1348.58,7039.33h-7.35v-.9l.77-.05a3.12,3.12,0,0,0,.7-.11,1.11,1.11,0,0,0,.63-.42,1.4,1.4,0,0,0,.2-.8v-6.86a3,3,0,0,0-.75-2.2,2.51,2.51,0,0,0-1.85-.77,4.94,4.94,0,0,0-1.48.22,5.7,5.7,0,0,0-1.19.55,3.05,3.05,0,0,0-.8.67,6.35,6.35,0,0,0-.44.58v7.68a1.29,1.29,0,0,0,.21.76,1.49,1.49,0,0,0,.64.46,3.79,3.79,0,0,0,.7.2,4.77,4.77,0,0,0,.77.09v.9H1332v-.9l.72-.05a2.83,2.83,0,0,0,.65-.11,1.1,1.1,0,0,0,.64-.42,1.47,1.47,0,0,0,.2-.79v-8.24a1.66,1.66,0,0,0-.22-.85,1.86,1.86,0,0,0-.62-.63,2.18,2.18,0,0,0-.68-.23,7.19,7.19,0,0,0-.86-.11v-.89l5-.3.21.19v1.89h.08c.24-.22.55-.48.91-.78a7.27,7.27,0,0,1,1-.74,5.51,5.51,0,0,1,1.34-.54,6.37,6.37,0,0,1,1.76-.22,4,4,0,0,1,3.21,1.2,4.71,4.71,0,0,1,1,3.19v6.94a1.35,1.35,0,0,0,.19.77,1.16,1.16,0,0,0,.62.45,3.79,3.79,0,0,0,1.37.27Z" transform="translate(336 -105)"/><path class="cls-1" d="M1364.68,7039.08c-.48.16-.9.28-1.26.38a5.08,5.08,0,0,1-1.23.14,3.31,3.31,0,0,1-1.89-.49,2.23,2.23,0,0,1-.91-1.45h-.09a7.56,7.56,0,0,1-2.13,1.49,6.5,6.5,0,0,1-2.74.52,4.21,4.21,0,0,1-2.79-.92,3,3,0,0,1-1.09-2.41,3.59,3.59,0,0,1,.25-1.39,3.12,3.12,0,0,1,.73-1.09,3.51,3.51,0,0,1,1-.73,8.54,8.54,0,0,1,1.17-.5c.46-.16,1.39-.44,2.79-.86a23.29,23.29,0,0,0,2.83-1v-1.34a4.64,4.64,0,0,0-.09-.68,2.46,2.46,0,0,0-.36-.95,2.57,2.57,0,0,0-2.44-1.24,4.17,4.17,0,0,0-1.3.2,2.5,2.5,0,0,0-.85.45,3.16,3.16,0,0,0,.15.79,4.06,4.06,0,0,1,.14,1,1.13,1.13,0,0,1-.48.87,2,2,0,0,1-1.33.39,1.32,1.32,0,0,1-1.13-.48,1.75,1.75,0,0,1-.35-1.08,1.8,1.8,0,0,1,.49-1.19,4.85,4.85,0,0,1,1.29-1,7.89,7.89,0,0,1,1.66-.64,7.14,7.14,0,0,1,1.91-.26,14.62,14.62,0,0,1,2.24.15,4.56,4.56,0,0,1,1.73.67,3.25,3.25,0,0,1,1.18,1.36,5.28,5.28,0,0,1,.4,2.22c0,1.29,0,2.43,0,3.43s-.05,2.09-.05,3.27a1.49,1.49,0,0,0,.21.84,1.51,1.51,0,0,0,1.36.66l1,0Zm-5.32-7.15c-.87.23-1.63.45-2.28.67a10.26,10.26,0,0,0-1.81.81,4,4,0,0,0-1.21,1.1,2.58,2.58,0,0,0-.44,1.5,2,2,0,0,0,.66,1.65,2.67,2.67,0,0,0,1.69.53,3.73,3.73,0,0,0,1.91-.47,5.49,5.49,0,0,0,1.39-1.1Z" transform="translate(336 -105)"/><path class="cls-1" d="M1373.13,7039.68a6.76,6.76,0,0,1-5.11-1.92,7.13,7.13,0,0,1-1.84-5.16,6.85,6.85,0,0,1,1.93-4.86,6.73,6.73,0,0,1,2.26-1.55,7.25,7.25,0,0,1,3-.59,6.25,6.25,0,0,1,3.6.94,2.93,2.93,0,0,1,1.39,2.56,2,2,0,0,1-.36,1.2,1.38,1.38,0,0,1-1.21.52,2.16,2.16,0,0,1-1.4-.4,1.16,1.16,0,0,1-.49-.91,4.54,4.54,0,0,1,.18-1.24,8.51,8.51,0,0,0,.22-.94,1.35,1.35,0,0,0-.82-.56,4.34,4.34,0,0,0-1.16-.14,3.71,3.71,0,0,0-1.4.27,3.48,3.48,0,0,0-1.28,1,5.08,5.08,0,0,0-.91,1.82,9.33,9.33,0,0,0-.35,2.75,6.41,6.41,0,0,0,1.25,4.11,4,4,0,0,0,3.3,1.59,4.51,4.51,0,0,0,2.48-.64,6.52,6.52,0,0,0,1.85-1.91l1,.56a7.42,7.42,0,0,1-2.65,2.54A6.87,6.87,0,0,1,1373.13,7039.68Z" transform="translate(336 -105)"/><path class="cls-1" d="M1394.62,7039.08c-.48.16-.9.28-1.26.38a5.08,5.08,0,0,1-1.23.14,3.34,3.34,0,0,1-1.9-.49,2.26,2.26,0,0,1-.91-1.45h-.09a7.29,7.29,0,0,1-2.13,1.49,6.47,6.47,0,0,1-2.74.52,4.18,4.18,0,0,1-2.78-.92,3,3,0,0,1-1.09-2.41,3.79,3.79,0,0,1,.24-1.39,3.3,3.3,0,0,1,.74-1.09,3.59,3.59,0,0,1,1-.73,8.63,8.63,0,0,1,1.18-.5c.45-.16,1.38-.44,2.78-.86a22.66,22.66,0,0,0,2.83-1v-1.34a5.88,5.88,0,0,0-.08-.68,2.61,2.61,0,0,0-2.8-2.19,4.28,4.28,0,0,0-1.31.2,2.44,2.44,0,0,0-.84.45,3.54,3.54,0,0,0,.14.79,3.66,3.66,0,0,1,.15,1,1.13,1.13,0,0,1-.48.87,2.08,2.08,0,0,1-1.34.39,1.3,1.3,0,0,1-1.12-.48,1.76,1.76,0,0,1-.36-1.08,1.81,1.81,0,0,1,.5-1.19,4.85,4.85,0,0,1,1.29-1,7.68,7.68,0,0,1,1.66-.64,7.14,7.14,0,0,1,1.91-.26,14.49,14.49,0,0,1,2.23.15,4.5,4.5,0,0,1,1.73.67,3.27,3.27,0,0,1,1.19,1.36,5.28,5.28,0,0,1,.4,2.22c0,1.29,0,2.43-.05,3.43s0,2.09,0,3.27a1.58,1.58,0,0,0,.2.84,1.64,1.64,0,0,0,.64.53,1.59,1.59,0,0,0,.72.13l1,0Zm-5.33-7.15c-.86.23-1.62.45-2.27.67a10.36,10.36,0,0,0-1.82.81,3.88,3.88,0,0,0-1.2,1.1,2.51,2.51,0,0,0-.44,1.5,2,2,0,0,0,.66,1.65,2.63,2.63,0,0,0,1.69.53,3.7,3.7,0,0,0,1.9-.47,5.49,5.49,0,0,0,1.39-1.1Z" transform="translate(336 -105)"/><path class="cls-1" d="M1421.85,7039.33h-7.32v-.9l.71-.05a2.74,2.74,0,0,0,.63-.11,1,1,0,0,0,.63-.42,1.4,1.4,0,0,0,.21-.8v-6.89a3,3,0,0,0-.72-2.17,2.41,2.41,0,0,0-1.81-.77,4.57,4.57,0,0,0-2.61.77,3.66,3.66,0,0,0-.74.65,6,6,0,0,0-.45.57v7.71a1.55,1.55,0,0,0,.18.78,1.11,1.11,0,0,0,.63.46,4,4,0,0,0,.63.19,4.39,4.39,0,0,0,.74.08v.9h-7.17v-.9l.68-.05a2.67,2.67,0,0,0,.6-.11,1,1,0,0,0,.63-.42,1.4,1.4,0,0,0,.21-.8v-6.89a3,3,0,0,0-.73-2.17,2.4,2.4,0,0,0-1.81-.77,4.58,4.58,0,0,0-2.61.79,3.26,3.26,0,0,0-.75.67l-.46.56v7.65a1.23,1.23,0,0,0,.85,1.25,3.86,3.86,0,0,0,.66.2,4.06,4.06,0,0,0,.75.09v.9h-7.31v-.9l.72-.05a2.83,2.83,0,0,0,.65-.11,1,1,0,0,0,.63-.42,1.39,1.39,0,0,0,.21-.79v-8.3a1.36,1.36,0,0,0-.22-.77,2,2,0,0,0-.62-.59,2.71,2.71,0,0,0-.72-.27,6.21,6.21,0,0,0-.88-.13v-.89l5-.3.22.19v1.91h.1l.93-.8a8.89,8.89,0,0,1,1-.74,4.84,4.84,0,0,1,1.33-.54,6.41,6.41,0,0,1,1.73-.22,4.41,4.41,0,0,1,2.52.7,4,4,0,0,1,1.51,1.68l1-.83a8.23,8.23,0,0,1,1.1-.76,5,5,0,0,1,1.37-.57,6.28,6.28,0,0,1,1.74-.22,4.09,4.09,0,0,1,3,1.11,4.65,4.65,0,0,1,1.11,3.41v6.79a1.55,1.55,0,0,0,.18.78,1.11,1.11,0,0,0,.63.46,3.55,3.55,0,0,0,.69.19,5.7,5.7,0,0,0,.77.08Z" transform="translate(336 -105)"/><path class="cls-1" d="M1430.93,7039.33h-7.26v-.9l.72-.05a2.83,2.83,0,0,0,.65-.11,1,1,0,0,0,.63-.42,1.39,1.39,0,0,0,.21-.79v-8.24a1.45,1.45,0,0,0-.22-.79,1.9,1.9,0,0,0-.62-.61,3.06,3.06,0,0,0-.84-.27,6.68,6.68,0,0,0-1-.15v-.89l5.31-.3.22.19v10.89a1.47,1.47,0,0,0,.2.79,1.24,1.24,0,0,0,.65.46,5.88,5.88,0,0,0,.65.19,3.68,3.68,0,0,0,.71.1Zm-1.91-18.78a1.84,1.84,0,0,1-.57,1.34,1.89,1.89,0,0,1-1.41.58,1.87,1.87,0,0,1-1.35-.55,1.7,1.7,0,0,1-.57-1.25,1.75,1.75,0,0,1,.57-1.3,1.87,1.87,0,0,1,1.35-.56,2,2,0,0,1,1.43.52A1.62,1.62,0,0,1,1429,7020.55Z" transform="translate(336 -105)"/><path class="cls-1" d="M1439.84,7039.33h-7.34v-.9l.75-.06a3.55,3.55,0,0,0,.66-.1,1.17,1.17,0,0,0,.64-.42,1.4,1.4,0,0,0,.21-.8v-15.47a1.86,1.86,0,0,0-.24-.92,1.8,1.8,0,0,0-.61-.67,3.42,3.42,0,0,0-1-.3,10.62,10.62,0,0,0-1.18-.16v-.87l5.66-.3.22.21v18.32a1.33,1.33,0,0,0,.2.78,1.24,1.24,0,0,0,.64.47,4.15,4.15,0,0,0,.66.2,4,4,0,0,0,.74.09Z" transform="translate(336 -105)"/><path class="cls-1" d="M1455.48,7027.56a6.83,6.83,0,0,1,1.4,2.2,7.78,7.78,0,0,1,.49,2.87,6.89,6.89,0,0,1-2.16,5.11,7.32,7.32,0,0,1-2.28,1.44,7.13,7.13,0,0,1-2.65.5,7.66,7.66,0,0,1-2.23-.27,5.38,5.38,0,0,1-1.42-.64h-.12v4a1.49,1.49,0,0,0,.21.82,1.23,1.23,0,0,0,.66.47,7.88,7.88,0,0,0,1,.24,8.38,8.38,0,0,0,1.12.13v.89h-8.4v-.89l.91-.07a4.42,4.42,0,0,0,.8-.14,1,1,0,0,0,.64-.47,1.69,1.69,0,0,0,.18-.8v-14.2a1.51,1.51,0,0,0-.23-.79,1.81,1.81,0,0,0-.59-.61,2.4,2.4,0,0,0-.77-.25,8.06,8.06,0,0,0-.94-.12v-.89l5.12-.3.22.17v1.5l.12,0a6.45,6.45,0,0,1,2-1.36,5.53,5.53,0,0,1,2.33-.54,6.22,6.22,0,0,1,4.58,2Zm-2.49,9.6a5.64,5.64,0,0,0,.9-1.95,9.49,9.49,0,0,0,.29-2.48,9.08,9.08,0,0,0-.24-2,5.54,5.54,0,0,0-.76-1.82,4.14,4.14,0,0,0-1.36-1.27,4,4,0,0,0-2-.49,4,4,0,0,0-1.92.44,5.85,5.85,0,0,0-1.37,1.05v7.9a3,3,0,0,0,.45.76,4,4,0,0,0,.69.67,4.43,4.43,0,0,0,1,.55,3.73,3.73,0,0,0,1.34.21,3.69,3.69,0,0,0,3-1.53Z" transform="translate(336 -105)"/><path class="cls-1" d="M1473.83,7039.08c-.47.16-.89.28-1.25.38a5.08,5.08,0,0,1-1.23.14,3.32,3.32,0,0,1-1.9-.49,2.26,2.26,0,0,1-.91-1.45h-.09a7.29,7.29,0,0,1-2.13,1.49,6.5,6.5,0,0,1-2.74.52,4.16,4.16,0,0,1-2.78-.92,3,3,0,0,1-1.09-2.41,3.79,3.79,0,0,1,.24-1.39,3.27,3.27,0,0,1,.73-1.09,3.65,3.65,0,0,1,1-.73,9.1,9.1,0,0,1,1.17-.5c.46-.16,1.39-.44,2.79-.86a22.66,22.66,0,0,0,2.83-1v-1.34a5.88,5.88,0,0,0-.08-.68,2.82,2.82,0,0,0-.36-.95,3,3,0,0,0-.86-.87,2.84,2.84,0,0,0-1.58-.37,4.23,4.23,0,0,0-1.31.2,2.61,2.61,0,0,0-.85.45,3.16,3.16,0,0,0,.15.79,3.62,3.62,0,0,1,.14,1,1.13,1.13,0,0,1-.48.87,2,2,0,0,1-1.33.39,1.3,1.3,0,0,1-1.12-.48,1.76,1.76,0,0,1-.36-1.08,1.8,1.8,0,0,1,.49-1.19,4.85,4.85,0,0,1,1.29-1,8,8,0,0,1,1.67-.64,7.06,7.06,0,0,1,1.9-.26,14.62,14.62,0,0,1,2.24.15,4.56,4.56,0,0,1,1.73.67,3.25,3.25,0,0,1,1.18,1.36,5.27,5.27,0,0,1,.41,2.22c0,1.29,0,2.43,0,3.43s0,2.09,0,3.27a1.49,1.49,0,0,0,.2.84,1.64,1.64,0,0,0,.64.53,1.59,1.59,0,0,0,.72.13l1,0Zm-5.32-7.15c-.86.23-1.62.45-2.27.67a10.36,10.36,0,0,0-1.82.81,3.88,3.88,0,0,0-1.2,1.1,2.51,2.51,0,0,0-.45,1.5,2,2,0,0,0,.67,1.65,2.62,2.62,0,0,0,1.68.53,3.73,3.73,0,0,0,1.91-.47,5.49,5.49,0,0,0,1.39-1.1Z" transform="translate(336 -105)"/><path class="cls-1" d="M1311.64,7053.34h-1.05a5.8,5.8,0,0,0-.5-1.15,10.9,10.9,0,0,0-.8-1.27,7,7,0,0,0-1-1.09,2,2,0,0,0-1-.53c-.32,0-.71-.07-1.19-.09l-1.33,0h-.89v15.37a1.64,1.64,0,0,0,.21.82,1.36,1.36,0,0,0,.75.57,8.82,8.82,0,0,0,1.15.26,9.55,9.55,0,0,0,1.37.18v1h-10.22v-1l1.3-.11a5.17,5.17,0,0,0,1.21-.21,1.37,1.37,0,0,0,.74-.5,1.49,1.49,0,0,0,.24-.89v-15.49h-.89c-.31,0-.7,0-1.17,0s-.92,0-1.34.09a1.88,1.88,0,0,0-1,.53,7.48,7.48,0,0,0-1,1.09,10.74,10.74,0,0,0-.81,1.29,7.93,7.93,0,0,0-.48,1.13h-1.07v-5.21h18.87Z" transform="translate(336 -105)"/><path class="cls-1" d="M1320,7067.35h-7.34v-.9l.75-.06a3.3,3.3,0,0,0,.65-.1,1.07,1.07,0,0,0,.64-.43,1.28,1.28,0,0,0,.22-.79v-15.48a1.92,1.92,0,0,0-.86-1.58,3.33,3.33,0,0,0-1-.3,10.62,10.62,0,0,0-1.18-.16v-.87l5.66-.3.22.21v18.32a1.41,1.41,0,0,0,.19.78,1.33,1.33,0,0,0,.64.47,4.6,4.6,0,0,0,.67.2,5,5,0,0,0,.74.09Z" transform="translate(336 -105)"/><path class="cls-1" d="M1336.16,7067.1c-.48.16-.9.28-1.26.38a5.08,5.08,0,0,1-1.23.14,3.29,3.29,0,0,1-1.9-.5,2.23,2.23,0,0,1-.9-1.44h-.1a7.38,7.38,0,0,1-2.12,1.49,6.66,6.66,0,0,1-2.74.52,4.21,4.21,0,0,1-2.79-.92,3,3,0,0,1-1.09-2.42,3.57,3.57,0,0,1,.25-1.38,3.12,3.12,0,0,1,.73-1.09,3.51,3.51,0,0,1,1-.73,9.46,9.46,0,0,1,1.17-.51l2.78-.85a22.07,22.07,0,0,0,2.83-1v-1.34a4.22,4.22,0,0,0-.08-.68,2.4,2.4,0,0,0-.36-.95,2.74,2.74,0,0,0-.86-.87,2.82,2.82,0,0,0-1.58-.38,3.9,3.9,0,0,0-1.3.21,2.42,2.42,0,0,0-.85.44,3.61,3.61,0,0,0,.14.8,3.6,3.6,0,0,1,.15,1,1.11,1.11,0,0,1-.48.86,2,2,0,0,1-1.34.4,1.32,1.32,0,0,1-1.12-.48,1.76,1.76,0,0,1-.36-1.08,1.81,1.81,0,0,1,.5-1.19,4.85,4.85,0,0,1,1.29-1,7.89,7.89,0,0,1,1.66-.64,7.14,7.14,0,0,1,1.91-.26,14.72,14.72,0,0,1,2.24.15,4.56,4.56,0,0,1,1.73.67,3.25,3.25,0,0,1,1.18,1.36,5.25,5.25,0,0,1,.4,2.22c0,1.29,0,2.43,0,3.43s-.05,2.09-.05,3.27a1.49,1.49,0,0,0,.21.84,1.68,1.68,0,0,0,.63.53,1.79,1.79,0,0,0,.73.13l1,0Zm-5.32-7.15c-.87.23-1.63.45-2.28.67a10.26,10.26,0,0,0-1.81.81,3.91,3.91,0,0,0-1.21,1.1,2.57,2.57,0,0,0-.44,1.49,2,2,0,0,0,.66,1.66,2.67,2.67,0,0,0,1.69.53,3.83,3.83,0,0,0,1.91-.47,5.27,5.27,0,0,0,1.38-1.1Z" transform="translate(336 -105)"/><path class="cls-1" d="M1352.15,7067.35h-6.9v-.9c.46,0,.85-.09,1.18-.13s.48-.16.48-.35a.85.85,0,0,0-.15-.38l-.31-.48c-.26-.35-.6-.82-1-1.41s-1-1.3-1.62-2.12q-.79.87-1.47,1.71l-1.41,1.77a2.89,2.89,0,0,0-.22.34.64.64,0,0,0-.11.32c0,.2.14.37.43.5a4,4,0,0,0,1.31.26v.87h-5.57v-.84a6.17,6.17,0,0,0,1.67-.66,5.8,5.8,0,0,0,1.17-1c.31-.37.75-.86,1.32-1.5s1.3-1.49,2.19-2.58l-1.9-2.41c-.75-.95-1.36-1.74-1.85-2.37a3.56,3.56,0,0,0-.91-.83,2.67,2.67,0,0,0-1.45-.32v-.9h6.55v.9c-.32,0-.64,0-1,0s-.47.12-.47.25a.54.54,0,0,0,.09.27c.06.1.14.2.23.32l1,1.42,1.53,2c.36-.43.78-.93,1.25-1.51s.91-1.13,1.31-1.65a2.68,2.68,0,0,0,.12-.24.74.74,0,0,0,.06-.28c0-.19-.18-.34-.53-.45a6.87,6.87,0,0,0-1-.24V7054h5.55v.84a6.94,6.94,0,0,0-1.83.65,4.62,4.62,0,0,0-1.11.86c-.34.37-.74.82-1.2,1.37l-1.94,2.27c.92,1.16,1.68,2.1,2.25,2.84s1.17,1.51,1.76,2.29a3.62,3.62,0,0,0,1,.94,3,3,0,0,0,1.49.4Z" transform="translate(336 -105)"/><path class="cls-1" d="M1360.39,7067.7a6.75,6.75,0,0,1-5.11-1.92,7.17,7.17,0,0,1-1.85-5.16,7,7,0,0,1,.5-2.64,7.22,7.22,0,0,1,1.44-2.23,6.77,6.77,0,0,1,2.26-1.55,7.37,7.37,0,0,1,3-.58,6.29,6.29,0,0,1,3.6.94,2.94,2.94,0,0,1,1.39,2.56,2,2,0,0,1-.37,1.2,1.36,1.36,0,0,1-1.2.52,2.16,2.16,0,0,1-1.4-.4,1.17,1.17,0,0,1-.5-.91,4.32,4.32,0,0,1,.19-1.25,6.23,6.23,0,0,0,.21-.93,1.3,1.3,0,0,0-.81-.56,4.36,4.36,0,0,0-1.17-.15,3.29,3.29,0,0,0-2.68,1.3,5.4,5.4,0,0,0-.91,1.83,9.68,9.68,0,0,0-.35,2.75,6.42,6.42,0,0,0,1.26,4.11,4,4,0,0,0,3.3,1.59,4.45,4.45,0,0,0,2.47-.64,6.32,6.32,0,0,0,1.85-1.92l1,.57a7.44,7.44,0,0,1-2.66,2.54A6.83,6.83,0,0,1,1360.39,7067.7Z" transform="translate(336 -105)"/><path class="cls-1" d="M1381.87,7067.1c-.48.16-.9.28-1.26.38a5.05,5.05,0,0,1-1.22.14,3.24,3.24,0,0,1-1.9-.5,2.2,2.2,0,0,1-.91-1.44h-.09a7.42,7.42,0,0,1-2.13,1.49,6.66,6.66,0,0,1-2.74.52,4.21,4.21,0,0,1-2.79-.92,3,3,0,0,1-1.09-2.42,3.57,3.57,0,0,1,.25-1.38,3.12,3.12,0,0,1,.73-1.09,3.51,3.51,0,0,1,1-.73,10.17,10.17,0,0,1,1.17-.51l2.79-.85a22.66,22.66,0,0,0,2.83-1v-1.34a4.64,4.64,0,0,0-.09-.68,2.4,2.4,0,0,0-.36-.95,2.74,2.74,0,0,0-.86-.87,2.82,2.82,0,0,0-1.58-.38,3.94,3.94,0,0,0-1.3.21,2.52,2.52,0,0,0-.85.44,3.22,3.22,0,0,0,.15.8,4,4,0,0,1,.14,1,1.11,1.11,0,0,1-.48.86,2,2,0,0,1-1.33.4,1.32,1.32,0,0,1-1.13-.48,1.76,1.76,0,0,1,.14-2.27,4.85,4.85,0,0,1,1.29-1,7.89,7.89,0,0,1,1.66-.64,7.19,7.19,0,0,1,1.91-.26,14.62,14.62,0,0,1,2.24.15,4.56,4.56,0,0,1,1.73.67,3.25,3.25,0,0,1,1.18,1.36,5.24,5.24,0,0,1,.41,2.22c0,1.29,0,2.43-.05,3.43s0,2.09,0,3.27a1.49,1.49,0,0,0,.21.84,1.68,1.68,0,0,0,.63.53,1.83,1.83,0,0,0,.73.13l1,0Zm-5.32-7.15c-.87.23-1.63.45-2.28.67a10.26,10.26,0,0,0-1.81.81,3.91,3.91,0,0,0-1.21,1.1,2.57,2.57,0,0,0-.44,1.49,2,2,0,0,0,.66,1.66,2.67,2.67,0,0,0,1.69.53,3.83,3.83,0,0,0,1.91-.47,5.49,5.49,0,0,0,1.39-1.1Z" transform="translate(336 -105)"/><path class="cls-1" d="M1390.42,7067.35h-7.34v-.9l.75-.06a3.3,3.3,0,0,0,.65-.1,1.07,1.07,0,0,0,.64-.43,1.34,1.34,0,0,0,.22-.79v-15.48a1.92,1.92,0,0,0-.86-1.58,3.32,3.32,0,0,0-1-.3,10.5,10.5,0,0,0-1.17-.16v-.87l5.66-.3.21.21v18.32a1.41,1.41,0,0,0,.2.78,1.28,1.28,0,0,0,.64.47,4.6,4.6,0,0,0,.67.2,5,5,0,0,0,.74.09Z" transform="translate(336 -105)"/><path class="cls-1" d="M1406.56,7067.1c-.48.16-.9.28-1.26.38a5.08,5.08,0,0,1-1.23.14,3.29,3.29,0,0,1-1.9-.5,2.28,2.28,0,0,1-.91-1.44h-.09a7.29,7.29,0,0,1-2.13,1.49,6.61,6.61,0,0,1-2.73.52,4.21,4.21,0,0,1-2.79-.92,3,3,0,0,1-1.09-2.42,3.77,3.77,0,0,1,.24-1.38,3.3,3.3,0,0,1,.74-1.09,3.59,3.59,0,0,1,1-.73,10.27,10.27,0,0,1,1.18-.51l2.78-.85a22.07,22.07,0,0,0,2.83-1v-1.34a4.22,4.22,0,0,0-.08-.68,2.7,2.7,0,0,0-1.22-1.82,2.82,2.82,0,0,0-1.58-.38,3.9,3.9,0,0,0-1.3.21,2.42,2.42,0,0,0-.85.44,3.61,3.61,0,0,0,.14.8,3.6,3.6,0,0,1,.15,1,1.11,1.11,0,0,1-.48.86,2,2,0,0,1-1.34.4,1.3,1.3,0,0,1-1.12-.48,1.76,1.76,0,0,1-.36-1.08,1.81,1.81,0,0,1,.5-1.19,4.85,4.85,0,0,1,1.29-1,7.89,7.89,0,0,1,1.66-.64,7.14,7.14,0,0,1,1.91-.26,14.49,14.49,0,0,1,2.23.15,4.54,4.54,0,0,1,1.74.67,3.32,3.32,0,0,1,1.18,1.36,5.25,5.25,0,0,1,.4,2.22c0,1.29,0,2.43,0,3.43s0,2.09,0,3.27a1.49,1.49,0,0,0,.21.84,1.54,1.54,0,0,0,.63.53,1.74,1.74,0,0,0,.72.13l1,0Zm-5.33-7.15c-.86.23-1.62.45-2.27.67a9.94,9.94,0,0,0-1.81.81,3.8,3.8,0,0,0-1.21,1.1,2.5,2.5,0,0,0-.44,1.49,2,2,0,0,0,.66,1.66,2.65,2.65,0,0,0,1.69.53,3.77,3.77,0,0,0,1.9-.47,5.32,5.32,0,0,0,1.39-1.1Z" transform="translate(336 -105)"/><path class="cls-1" d="M437.15,7042l5.83,3.75c-1.67,4.74-8,7.94-14.08,7.24-8.64-1-13.79-5.9-14.68-14.42a15.09,15.09,0,0,1,10.2-15.85c6.67-2.34,14.5.07,18,5.68l-5.59,3.8a23.93,23.93,0,0,0-3.69-2.68c-4.29-2-8.54-.19-10.37,4.26-2.19,5.37.89,11.75,6.17,12.41A7.84,7.84,0,0,0,437.15,7042Z" transform="translate(336 -105)"/><path class="cls-1" d="M495.4,7053.16c5.07-10.62,10-20.88,15.12-31.62,5.11,10.71,10,21,15.08,31.62-2.75,0-5.14.08-7.52-.06-.51,0-.94-.9-1.47-1.31s-1.29-1.2-2-1.24a86.26,86.26,0,0,0-8.66,0,3,3,0,0,0-2.05,1.33,2.09,2.09,0,0,1-2.18,1.3C499.76,7053.11,497.75,7053.16,495.4,7053.16Zm11.67-8.77h6.27c-1.07-2.38-2-4.52-3.19-7.06Z" transform="translate(336 -105)"/><path class="cls-1" d="M381.2,7053.11c-2.69,0-4.91.1-7.11-.06-.59,0-1.12-.84-1.7-1.25s-1.4-1.29-2.14-1.33c-2.81-.16-5.64,0-8.46-.09a2.29,2.29,0,0,0-2.38,1.41,2.75,2.75,0,0,1-1.88,1.26c-2,.17-4,.06-6.37.06l15-31.45Zm-12.07-8.68-3.31-7.23-3.14,7.23Z" transform="translate(336 -105)"/><path class="cls-1" d="M456.2,7022.51l8.44,17.71-4.06,2.14.06.74a23,23,0,0,0,2.93.58c2,.14,3.45.8,4.18,2.94a59.76,59.76,0,0,0,2.9,6.23c-2.67.59-4.61.16-6.36-1.81-.88-1-2.45-1.4-3.73-2-.4-.2-.91-.18-1.31-.38-2.7-1.37-3.55-1.28-5.78.65-.6.52-1.25,1-1.88,1.47-1,.77-1.89,2-3,2.2a44.88,44.88,0,0,1-6.93.1Zm1.88,21.34.54-.28-2.78-6.26L453,7044l.35.45C454.76,7042.82,456.31,7042.19,458.08,7043.85Z" transform="translate(336 -105)"/><path class="cls-1" d="M317.77,7053.1h-7.9v-23.65h-8.08v-6.75h24.12v6.73c-1.92,0-3.85.11-5.76,0-1.74-.13-2.32.38-2.29,2.22.11,6.45,0,12.9,0,19.35C317.87,7051.61,317.81,7052.27,317.77,7053.1Z" transform="translate(336 -105)"/><path class="cls-1" d="M493.51,7046.33v6.75H472.6v-30.35h7.91v23.6Z" transform="translate(336 -105)"/><path class="cls-1" d="M398.45,7045.67c-1.61,1.46-3.21,2.95-4.84,4.4a39.87,39.87,0,0,1-5,4.27c-2.11,1.32-4.16.63-5.74-1.4,4.72-4.4,7.39-10.14,10.24-15.74,2.34-4.59,5-8.85,9.6-11.58a17,17,0,0,1,9.85-2.78c1.22.06,2.46-.3,3.92-.24-8.77,2.1-12,9.52-15.82,16.08l10.77,3.41.09.42c-1.29.2-2.58.38-3.87.6-2.49.41-5,.79-7.47,1.33-.64.14-1.17.82-1.75,1.25Z" transform="translate(336 -105)"/><path class="cls-1" d="M329.29,7053c1.36-2.4,2.84-4.38,3.65-6.6,1.08-2.94,2.2-6,2.3-9.12a130.24,130.24,0,0,0-.87-15c-.13-1.52-.7-3,1.61-3.3,1.49,2.7,2.83,5.52,1,8.91l1.68-1-.31,4.3c1.62,1.66.77,3.65.29,5.23-.53,1.74-1.79,3.26-2.7,4.82l1.37-.51a1.55,1.55,0,0,1,.2.51c0,1.28.1,2.56,0,3.83-.12,1.46.51,1.85,1.87,1.82,3.48-.07,7,0,10.58,0V7053Z" transform="translate(336 -105)"/><path class="cls-1" d="M329.24,7050.75l-1.32-3.77,2,1.79-2.47-7.57.38-.16,1.31,1.38c-.57-3-2.63-5.67-1.64-9.13l4.49,4.86.45-.33a15.69,15.69,0,0,1-1.12-1.71c-1.06-2.15-2.16-4.28-3.06-6.5-.23-.56.29-1.4.4-2.12a15.19,15.19,0,0,0,.13-1.91c0-1.2,0-2.41,0-3.62l.59-.09,1.73,2.22.35-.2-1.53-3.93,1.68,1.35-.58-3,1.15,1.22.45-1.55c.06.17.14.28.13.39-.18,7.62,1.7,15.27-.2,22.87-.8,3.21-1.84,6.36-2.77,9.53Z" transform="translate(336 -105)"/><path class="cls-1" d="M392.25,7036.52c-2.89-4.59-5.72-9.1-8.77-14,3.06,0,5.76-.06,8.46,0,1.17,0,5,6.79,4.39,7.7C395.06,7032.34,393.7,7034.32,392.25,7036.52Z" transform="translate(336 -105)"/><path class="cls-1" d="M398.4,7045.69c1.87-.68,3.74-1.38,5.63-2a2.07,2.07,0,0,1,2.8,1.13c1.57,2.73,3.3,5.36,5.2,8.4-3.1,0-5.93.05-8.75-.05-.36,0-.76-.68-1-1.12-1.29-2.1-2.54-4.23-3.81-6.34C398.45,7045.67,398.4,7045.69,398.4,7045.69Z" transform="translate(336 -105)"/><path class="cls-1" d="M368.37,7061.13a1.7,1.7,0,0,1-.05-.44,1.63,1.63,0,0,1,.52-1.13,2.41,2.41,0,0,1,1.77-.56c.55,0,1.11.05,1.7.1.74.07,1.48.1,2.21.1h.7a5.09,5.09,0,0,0,1.63-.36,1.71,1.71,0,0,1,.06.43,1,1,0,0,1-.22.65,1.27,1.27,0,0,1-.85.37,6.58,6.58,0,0,1-.8,0c-.51,0-1.3-.05-2.35-.16-.68-.07-1.33-.13-1.95-.16h-.2a3.07,3.07,0,0,0-1.47.28A1.49,1.49,0,0,0,368.37,7061.13Zm2.44,6.12a1.5,1.5,0,0,1-.68-.18,1.43,1.43,0,0,1-.57-.52,1.37,1.37,0,0,0,.62.22,1.07,1.07,0,0,0,.23-.05c.11,0,.24-.2.38-.51a17.55,17.55,0,0,0,.68-1.87c.24-.77.46-1.49.66-2.17s.31-1.07.39-1.28a.67.67,0,0,1,.52-.39,1.27,1.27,0,0,1,.34,0,3,3,0,0,1,.52.07,1.81,1.81,0,0,1,.57.24,6.37,6.37,0,0,0-.65,1.31c-.21.54-.41,1.1-.59,1.66s-.27.78-.39,1.11a9.3,9.3,0,0,1-.46,1,4,4,0,0,1-.62.9,1.53,1.53,0,0,1-.8.46Z" transform="translate(336 -105)"/><path class="cls-1" d="M375.43,7066.11h0a.9.9,0,0,1-.81-.53,2,2,0,0,1-.16-.84c0-.11,0-.31.05-.61a6.56,6.56,0,0,1,.27-1.17,12.4,12.4,0,0,1,.48-1.32.73.73,0,0,1,.53-.4,2.2,2.2,0,0,1,.36,0,2.9,2.9,0,0,1,.51.07,1.8,1.8,0,0,1,.57.25,5.74,5.74,0,0,0-.5.89,13.45,13.45,0,0,0-.53,1.27,8.14,8.14,0,0,0-.34,1.16,1.38,1.38,0,0,0,0,.31c0,.15,0,.23.13.23a.74.74,0,0,0,.49-.31,9.12,9.12,0,0,0,.92-1.4q.07-.18.12-.18s0,0,0,.08a2.75,2.75,0,0,1-.39,1.17,3.59,3.59,0,0,1-.79,1A1.38,1.38,0,0,1,375.43,7066.11Zm1.45-5.17a1.32,1.32,0,0,1-.27,0c-.51-.05-.77-.24-.77-.54a1.06,1.06,0,0,1,.24-.63.78.78,0,0,1,.66-.26h.09a1.66,1.66,0,0,1,.74.22.41.41,0,0,1,.16.33v.1a.82.82,0,0,1-.41.72A1,1,0,0,1,376.88,7060.94Z" transform="translate(336 -105)"/><path class="cls-1" d="M378.88,7066a3.16,3.16,0,0,1-.74-.11,1.27,1.27,0,0,1-.73-.6,2.37,2.37,0,0,1-.29-1.2,3.86,3.86,0,0,1,.12-.91,3.25,3.25,0,0,1,.41-1,2.44,2.44,0,0,1,.73-.8,1.71,1.71,0,0,1,1-.3,1.38,1.38,0,0,1,.83.24,1.26,1.26,0,0,1,.45.6,1.42,1.42,0,0,1,.08.45,1.22,1.22,0,0,1,0,.32,1.49,1.49,0,0,1-.6,1,1.51,1.51,0,0,1-.75.23l-.25,0a.43.43,0,0,1-.33-.15,3.11,3.11,0,0,0-.1.71,2.77,2.77,0,0,0,.06.49c0,.21.19.36.47.45a.36.36,0,0,0,.15,0,1.4,1.4,0,0,0,.53-.13,1.61,1.61,0,0,0,.63-.54,10,10,0,0,0,.61-1l.11-.18s0-.06,0-.06,0,0,0,.08a2.7,2.7,0,0,1-.38,1.14,3.34,3.34,0,0,1-.56.75,2.15,2.15,0,0,1-1,.51A3.15,3.15,0,0,1,378.88,7066Zm.18-2.64a1.14,1.14,0,0,0,.65-.16.7.7,0,0,0,.36-.64.65.65,0,0,0-.06-.25.21.21,0,0,0-.2-.16.75.75,0,0,0-.42.29,2.24,2.24,0,0,0-.39.65,1.69,1.69,0,0,0-.11.27Z" transform="translate(336 -105)"/><path class="cls-1" d="M381.89,7066.15a1,1,0,0,1-.33-.08.65.65,0,0,1-.31-.25,2.28,2.28,0,0,1-.31-1.24s0-.16,0-.44a5.89,5.89,0,0,1,.2-1.17,8.32,8.32,0,0,1,.41-1.25.68.68,0,0,1,.52-.4l.34,0a2.34,2.34,0,0,1,.53.07,1.44,1.44,0,0,1,.58.25,6,6,0,0,0-1.09,2.29l.2-.39a9.78,9.78,0,0,1,.53-.9,5.24,5.24,0,0,1,.76-.92,1.84,1.84,0,0,1,.91-.5h.07a.52.52,0,0,1,.51.3,1.4,1.4,0,0,1,.12.6c0,.08,0,.23,0,.44a2.21,2.21,0,0,1-.26.76,1.22,1.22,0,0,1-.56.6.54.54,0,0,1-.21.05.87.87,0,0,1-.56-.25.93.93,0,0,0,.42-.73c0-.19-.07-.3-.2-.31s-.31.15-.58.47a6.4,6.4,0,0,0-.79,1.26,5.68,5.68,0,0,0-.55,1.69A.82.82,0,0,1,381.89,7066.15Z" transform="translate(336 -105)"/><path class="cls-1" d="M386.54,7066.15a1.1,1.1,0,0,1-.33-.08.76.76,0,0,1-.31-.25,2.37,2.37,0,0,1-.31-1.24s0-.16,0-.44a6.07,6.07,0,0,1,.21-1.17,7.32,7.32,0,0,1,.41-1.25.66.66,0,0,1,.52-.4l.33,0a2.35,2.35,0,0,1,.54.07,1.57,1.57,0,0,1,.58.25,6,6,0,0,0-1.1,2.29l.2-.39a8.18,8.18,0,0,1,.54-.9,4.83,4.83,0,0,1,.76-.92,1.82,1.82,0,0,1,.9-.5h.08a.52.52,0,0,1,.51.3,1.4,1.4,0,0,1,.12.6c0,.08,0,.23,0,.44a2.21,2.21,0,0,1-.26.76,1.2,1.2,0,0,1-.57.6.54.54,0,0,1-.21.05.85.85,0,0,1-.55-.25.93.93,0,0,0,.42-.73c0-.19-.07-.3-.21-.31s-.31.15-.58.47a6.91,6.91,0,0,0-.79,1.26,6.32,6.32,0,0,0-.55,1.69A.78.78,0,0,1,386.54,7066.15Z" transform="translate(336 -105)"/><path class="cls-1" d="M393.93,7066.11h0c-.57-.06-.89-.42-.95-1.1a2.35,2.35,0,0,1-.61.67,1.23,1.23,0,0,1-.67.23,1.19,1.19,0,0,1-.9-.35,2.08,2.08,0,0,1-.48-1.48,5,5,0,0,1,.08-.73,3.17,3.17,0,0,1,.37-1,2.6,2.6,0,0,1,.75-.89,1.65,1.65,0,0,1,1.06-.35.94.94,0,0,1,1.06.84l.14-.31a.69.69,0,0,1,.52-.4,2.2,2.2,0,0,1,.36,0,2.9,2.9,0,0,1,.51.07,1.66,1.66,0,0,1,.56.25,5.86,5.86,0,0,0-.49.89,13.45,13.45,0,0,0-.53,1.27,8.35,8.35,0,0,0-.35,1.16,2.39,2.39,0,0,0,0,.31c0,.15,0,.23.13.23.28,0,.64-.38,1.08-1.15.21-.35.34-.57.39-.68s.05-.06.06-.06,0,0,0,.08a3.05,3.05,0,0,1-.39,1.17,3.44,3.44,0,0,1-.8,1A1.34,1.34,0,0,1,393.93,7066.11Zm-1.88-.73c.16,0,.33-.18.52-.5a6.39,6.39,0,0,0,.47-1.11,4.47,4.47,0,0,0,.2-1.17c0-.27-.08-.42-.25-.43a.78.78,0,0,0-.46.36,3.73,3.73,0,0,0-.4.8,6.7,6.7,0,0,0-.28.94,3.47,3.47,0,0,0-.06.6c0,.07,0,.17,0,.3A.22.22,0,0,0,392.05,7065.38Z" transform="translate(336 -105)"/><path class="cls-1" d="M402.38,7066.11h0q-.81-.09-.87-1.2a2.54,2.54,0,0,1-.66.74,1.24,1.24,0,0,1-.7.26,1.15,1.15,0,0,1-.89-.35,2.06,2.06,0,0,1-.48-1.45,4.63,4.63,0,0,1,.07-.75,3.38,3.38,0,0,1,.37-1,2.6,2.6,0,0,1,.75-.89,1.68,1.68,0,0,1,1.07-.35.92.92,0,0,1,1,.66c.3-.9.54-1.56.72-2a.69.69,0,0,1,.51-.39,1.37,1.37,0,0,1,.34,0,2.27,2.27,0,0,1,.53.07,1.81,1.81,0,0,1,.57.24,8.12,8.12,0,0,0-.54,1.09c-.24.58-.49,1.21-.74,1.91a18.19,18.19,0,0,0-.57,1.83,2.72,2.72,0,0,0-.09.6c0,.17.05.26.14.26.26,0,.6-.35,1-1,.21-.35.36-.61.45-.79s0-.06.06-.06,0,0,0,.08a2.91,2.91,0,0,1-.4,1.17,3.42,3.42,0,0,1-.79,1A1.38,1.38,0,0,1,402.38,7066.11Zm-1.87-.73c.16,0,.33-.18.51-.5a5.7,5.7,0,0,0,.46-1.11,4.14,4.14,0,0,0,.21-1.17c0-.27-.09-.42-.26-.43a.8.8,0,0,0-.45.36,3.72,3.72,0,0,0-.41.8,5.54,5.54,0,0,0-.27.94,3.07,3.07,0,0,0-.06.57c0,.08,0,.19,0,.33A.22.22,0,0,0,400.51,7065.38Z" transform="translate(336 -105)"/><path class="cls-1" d="M405.82,7066a3.23,3.23,0,0,1-.74-.11,1.3,1.3,0,0,1-.73-.6,2.37,2.37,0,0,1-.28-1.2,3.82,3.82,0,0,1,.11-.91,3.52,3.52,0,0,1,.41-1,2.55,2.55,0,0,1,.73-.8,1.71,1.71,0,0,1,1-.3,1.38,1.38,0,0,1,.83.24,1.2,1.2,0,0,1,.45.6,1.42,1.42,0,0,1,.08.45,1.82,1.82,0,0,1,0,.32,1.54,1.54,0,0,1-.61,1,1.51,1.51,0,0,1-.75.23l-.25,0a.43.43,0,0,1-.33-.15,3.11,3.11,0,0,0-.1.71,2.77,2.77,0,0,0,.06.49c0,.21.19.36.47.45a.39.39,0,0,0,.15,0,1.4,1.4,0,0,0,.53-.13,1.55,1.55,0,0,0,.63-.54,10,10,0,0,0,.61-1l.11-.18s0-.06.06-.06,0,0,0,.08a2.7,2.7,0,0,1-.38,1.14,3.34,3.34,0,0,1-.56.75,2.15,2.15,0,0,1-1,.51A3.15,3.15,0,0,1,405.82,7066Zm.18-2.64a1.14,1.14,0,0,0,.65-.16.7.7,0,0,0,.36-.64.85.85,0,0,0-.05-.25.24.24,0,0,0-.21-.16.78.78,0,0,0-.42.29,2.24,2.24,0,0,0-.39.65,1.69,1.69,0,0,0-.11.27Z" transform="translate(336 -105)"/><path class="cls-1" d="M412.75,7066a3.16,3.16,0,0,1-.74-.11,1.32,1.32,0,0,1-.74-.6,2.47,2.47,0,0,1-.28-1.2,3.86,3.86,0,0,1,.12-.91,3.25,3.25,0,0,1,.41-1,2.53,2.53,0,0,1,.72-.8,1.76,1.76,0,0,1,1-.3,1.35,1.35,0,0,1,.82.24,1.28,1.28,0,0,1,.46.6,1.42,1.42,0,0,1,.08.45,1.22,1.22,0,0,1,0,.32,1.39,1.39,0,0,1-1.35,1.19l-.25,0a.43.43,0,0,1-.33-.15,2.64,2.64,0,0,0-.1.71,3.83,3.83,0,0,0,0,.49.62.62,0,0,0,.47.45.41.41,0,0,0,.16,0,1.44,1.44,0,0,0,.53-.13,1.69,1.69,0,0,0,.63-.54c.26-.39.46-.73.61-1l.11-.18s0-.06,0-.06,0,0,0,.08a2.85,2.85,0,0,1-.38,1.14,3.67,3.67,0,0,1-.56.75,2.13,2.13,0,0,1-1,.51A2.94,2.94,0,0,1,412.75,7066Zm.18-2.64a1.14,1.14,0,0,0,.65-.16.69.69,0,0,0,.35-.64.62.62,0,0,0-.05-.25.21.21,0,0,0-.2-.16.72.72,0,0,0-.42.29,2.24,2.24,0,0,0-.39.65,1.09,1.09,0,0,0-.11.27Z" transform="translate(336 -105)"/><path class="cls-1" d="M415.79,7066.15a1.08,1.08,0,0,1-.34-.08.59.59,0,0,1-.31-.25,2.53,2.53,0,0,1-.33-1.29s0-.19,0-.46a5.12,5.12,0,0,1,.22-1.14,10.52,10.52,0,0,1,.41-1.21.69.69,0,0,1,.52-.4l.33,0a2.35,2.35,0,0,1,.54.07,1.44,1.44,0,0,1,.58.25,6.82,6.82,0,0,0-.68,1.21,7.22,7.22,0,0,0-.6,2l0,0a18.25,18.25,0,0,1,1.1-1.86c.69-1,1.3-1.61,1.82-1.73h.12a.9.9,0,0,1,.64.27.63.63,0,0,1,.21.46.79.79,0,0,1-.06.29,13.75,13.75,0,0,0-.57,1.32,10,10,0,0,0-.39,1.25,2,2,0,0,0,0,.37c0,.15,0,.23.13.23.28,0,.64-.38,1.09-1.15l.39-.68s0-.06.05-.06,0,0,0,.08a2.89,2.89,0,0,1-.39,1.17,3.59,3.59,0,0,1-.79,1,1.38,1.38,0,0,1-.88.38h0a.89.89,0,0,1-.8-.53,2.1,2.1,0,0,1-.15-.84q0-.15,0-.57a7.2,7.2,0,0,1,.26-1.15,25.62,25.62,0,0,0-1.57,2.6l-.25.46A.77.77,0,0,1,415.79,7066.15Z" transform="translate(336 -105)"/><path class="cls-1" d="M422.06,7066a2.93,2.93,0,0,1-.71-.11,1.28,1.28,0,0,1-.72-.6,2.41,2.41,0,0,1-.28-1.21,3.86,3.86,0,0,1,.12-.91,3.27,3.27,0,0,1,.4-1,2.68,2.68,0,0,1,.73-.8,1.71,1.71,0,0,1,1-.3,1.2,1.2,0,0,1,.8.25,1.28,1.28,0,0,1,.41.62,1.52,1.52,0,0,1,.09.51.78.78,0,0,1-.4.79.82.82,0,0,1-.35.08,1.11,1.11,0,0,1-.34-.06.86.86,0,0,0,.35-.4,1,1,0,0,0,.09-.41,1.39,1.39,0,0,0,0-.17c0-.09-.07-.14-.2-.15a.93.93,0,0,0-.57.49,4.06,4.06,0,0,0-.46,1,3.25,3.25,0,0,0-.11.78,4,4,0,0,0,.05.47c0,.21.19.36.47.45a.41.41,0,0,0,.16,0,1.23,1.23,0,0,0,.49-.13,3.47,3.47,0,0,0,1.2-1.55l.11-.18s0-.06.05-.06,0,0,0,.08a2.7,2.7,0,0,1-.38,1.14,3.06,3.06,0,0,1-.56.75,2.13,2.13,0,0,1-1,.51A2.94,2.94,0,0,1,422.06,7066Z" transform="translate(336 -105)"/><path class="cls-1" d="M427.77,7066.11h0c-.57-.06-.89-.42-.95-1.1a2.24,2.24,0,0,1-.62.67,1.17,1.17,0,0,1-.66.23,1.19,1.19,0,0,1-.9-.35,2.08,2.08,0,0,1-.48-1.48,5,5,0,0,1,.08-.73,3.17,3.17,0,0,1,.37-1,2.6,2.6,0,0,1,.75-.89,1.65,1.65,0,0,1,1.06-.35.94.94,0,0,1,1.06.84l.14-.31a.69.69,0,0,1,.52-.4,2.2,2.2,0,0,1,.36,0,2.9,2.9,0,0,1,.51.07,1.66,1.66,0,0,1,.56.25,5.86,5.86,0,0,0-.49.89,13.45,13.45,0,0,0-.53,1.27,8.35,8.35,0,0,0-.35,1.16,2.39,2.39,0,0,0,0,.31c0,.15.05.23.13.23.28,0,.64-.38,1.08-1.15.21-.35.34-.57.39-.68s0-.06.06-.06,0,0,0,.08a3.05,3.05,0,0,1-.39,1.17,3.44,3.44,0,0,1-.8,1A1.36,1.36,0,0,1,427.77,7066.11Zm-1.88-.73c.16,0,.33-.18.51-.5a5.15,5.15,0,0,0,.47-1.11,4.14,4.14,0,0,0,.21-1.17c0-.27-.08-.42-.25-.43a.78.78,0,0,0-.46.36,3.73,3.73,0,0,0-.4.8,5.59,5.59,0,0,0-.28.94,3.47,3.47,0,0,0-.06.6c0,.07,0,.17,0,.3A.22.22,0,0,0,425.89,7065.38Z" transform="translate(336 -105)"/><path class="cls-1" d="M430.43,7066.15a1,1,0,0,1-.33-.08.61.61,0,0,1-.32-.25,2.62,2.62,0,0,1-.32-1.29s0-.19,0-.46a5.61,5.61,0,0,1,.21-1.14c.14-.48.28-.89.41-1.21a.71.71,0,0,1,.53-.4l.33,0a2.35,2.35,0,0,1,.54.07,1.57,1.57,0,0,1,.58.25,6.23,6.23,0,0,0-.68,1.21,6.9,6.9,0,0,0-.61,2l0,0a18.28,18.28,0,0,1,1.11-1.86c.69-1,1.29-1.61,1.81-1.73h.12a.92.92,0,0,1,.65.27.63.63,0,0,1,.21.46.79.79,0,0,1-.06.29,13.75,13.75,0,0,0-.57,1.32,8.75,8.75,0,0,0-.4,1.25,2,2,0,0,0-.05.37c0,.15.05.23.14.23.27,0,.63-.38,1.08-1.15.21-.35.34-.57.39-.68s0-.06.06-.06,0,0,0,.08a2.87,2.87,0,0,1-.38,1.17,3.62,3.62,0,0,1-.8,1,1.38,1.38,0,0,1-.88.38h0a.88.88,0,0,1-.8-.53,1.94,1.94,0,0,1-.16-.84c0-.1,0-.29,0-.57a5.51,5.51,0,0,1,.26-1.15,22.4,22.4,0,0,0-1.57,2.6l-.26.46A.74.74,0,0,1,430.43,7066.15Z" transform="translate(336 -105)"/><path class="cls-1" d="M435.85,7066.11h0a.87.87,0,0,1-.82-.76,3.17,3.17,0,0,1-.07-.71,6.75,6.75,0,0,1,.13-1.17,12.45,12.45,0,0,1,.43-1.7H435l.23-.57h.4c.23-.64.4-1.1.52-1.39a.69.69,0,0,1,.52-.39,1.32,1.32,0,0,1,.34,0,2.26,2.26,0,0,1,.52.07,1.81,1.81,0,0,1,.57.24,10.85,10.85,0,0,0-.71,1.51H438l-.22.57h-.58a19,19,0,0,0-.95,3,1.86,1.86,0,0,0,0,.36c0,.17,0,.25.13.25a.85.85,0,0,0,.55-.35,5.63,5.63,0,0,0,.59-.81c.19-.3.32-.51.39-.65s.05-.08.07-.08,0,0,0,.08a2.77,2.77,0,0,1-.4,1.17,3.73,3.73,0,0,1-.84,1A1.45,1.45,0,0,1,435.85,7066.11Z" transform="translate(336 -105)"/><path class="cls-1" d="M439,7066a1.14,1.14,0,0,1-.89-.36,2.09,2.09,0,0,1-.47-1.48,4.84,4.84,0,0,1,.07-.76,3.64,3.64,0,0,1,.36-1,2.93,2.93,0,0,1,.75-.91,1.78,1.78,0,0,1,1.07-.37,1.42,1.42,0,0,1,1.18.49,2.13,2.13,0,0,1,.41,1.35,3.75,3.75,0,0,1-.27,1.37,3.08,3.08,0,0,1-.84,1.2A2.13,2.13,0,0,1,439,7066Zm.4-.61a.75.75,0,0,0,.57-.33,3.29,3.29,0,0,0,.48-.83,3.69,3.69,0,0,0,.32-1.38c0-.44-.14-.66-.41-.66s-.32.12-.49.35a4,4,0,0,0-.4.8,4.75,4.75,0,0,0-.27.94,3.57,3.57,0,0,0-.06.6,2.09,2.09,0,0,0,0,.31A.22.22,0,0,0,439.35,7065.41Z" transform="translate(336 -105)"/><path class="cls-1" d="M446.51,7068l-.38,0a1.41,1.41,0,0,1-.57-.22.85.85,0,0,1-.4-.6,1.08,1.08,0,0,0,.58.22,1,1,0,0,0,.57-.28A3,3,0,0,0,447,7066a13.86,13.86,0,0,0,.6-1.85,5.82,5.82,0,0,1-.8,1.39,1.28,1.28,0,0,1-1,.59.92.92,0,0,1-.83-.53,2.29,2.29,0,0,1-.17-.92q0-.14,0-.54a5,5,0,0,1,.24-1.16,10.63,10.63,0,0,1,.46-1.32.73.73,0,0,1,.53-.4,2.2,2.2,0,0,1,.36,0,2.9,2.9,0,0,1,.51.07,1.66,1.66,0,0,1,.56.25,5.18,5.18,0,0,0-.48.89,13.43,13.43,0,0,0-.49,1.27,8.93,8.93,0,0,0-.31,1.16,1.67,1.67,0,0,0,0,.28c0,.17.05.26.13.26s.37-.19.6-.56a10.13,10.13,0,0,0,.66-1.28,7,7,0,0,0,.4-1.15c.05-.22.09-.43.12-.64a.67.67,0,0,1,.45-.45,1.7,1.7,0,0,1,.51-.08,2.51,2.51,0,0,1,.39,0,.9.9,0,0,1,.51.26c-.12.34-.25.78-.4,1.33s-.41,1.42-.67,2.19a9.38,9.38,0,0,1-.95,2,2,2,0,0,1-1.32,1Z" transform="translate(336 -105)"/><path class="cls-1" d="M454.71,7066a2.93,2.93,0,0,1-.71-.11,1.28,1.28,0,0,1-.72-.6,2.41,2.41,0,0,1-.28-1.21,3.86,3.86,0,0,1,.12-.91,3.27,3.27,0,0,1,.4-1,2.68,2.68,0,0,1,.73-.8,1.71,1.71,0,0,1,1-.3,1.2,1.2,0,0,1,.8.25,1.28,1.28,0,0,1,.41.62,1.52,1.52,0,0,1,.09.51.76.76,0,0,1-.4.79.82.82,0,0,1-.35.08,1.11,1.11,0,0,1-.34-.06.81.81,0,0,0,.35-.4,1,1,0,0,0,.09-.41,1.39,1.39,0,0,0,0-.17c0-.09-.07-.14-.2-.15a.93.93,0,0,0-.57.49,3.73,3.73,0,0,0-.45,1,2.85,2.85,0,0,0-.12.78,4,4,0,0,0,.05.47q0,.31.48.45a.34.34,0,0,0,.15,0,1.23,1.23,0,0,0,.49-.13,3.47,3.47,0,0,0,1.2-1.55l.11-.18s0-.06.05-.06,0,0,0,.08a2.7,2.7,0,0,1-.38,1.14,3.06,3.06,0,0,1-.56.75,2.13,2.13,0,0,1-1,.51A2.94,2.94,0,0,1,454.71,7066Z" transform="translate(336 -105)"/><path class="cls-1" d="M460.35,7066.11h0a.89.89,0,0,1-.82-.55,2,2,0,0,1-.16-.85c0-.12,0-.23,0-.36a5.19,5.19,0,0,1-.76,1.25,1.23,1.23,0,0,1-.91.51.9.9,0,0,1-.82-.53,2.13,2.13,0,0,1-.18-.92q0-.14,0-.54A6.09,6.09,0,0,1,457,7063a10.58,10.58,0,0,1,.47-1.32.71.71,0,0,1,.53-.4,2.2,2.2,0,0,1,.36,0,2.81,2.81,0,0,1,.5.07,1.8,1.8,0,0,1,.57.25,5.18,5.18,0,0,0-.48.89,13.43,13.43,0,0,0-.49,1.27,8.93,8.93,0,0,0-.31,1.16,1.57,1.57,0,0,0,0,.29c0,.17,0,.25.12.25.3,0,.8-.88,1.52-2.63a2.45,2.45,0,0,1,.15-.36c.08-.23.17-.45.26-.66a.9.9,0,0,1,.89-.43,2.67,2.67,0,0,1,.5.06,1.51,1.51,0,0,1,.56.26,5.46,5.46,0,0,0-.49.87c-.18.39-.35.81-.51,1.24a6.27,6.27,0,0,0-.34,1.13,1.68,1.68,0,0,0,0,.29c0,.15,0,.23.13.23.26,0,.6-.35,1-1,.21-.35.36-.61.45-.79s.05-.06.06-.06,0,0,0,.08a3.05,3.05,0,0,1-.39,1.17,3.44,3.44,0,0,1-.8,1A1.36,1.36,0,0,1,460.35,7066.11Z" transform="translate(336 -105)"/><path class="cls-1" d="M462.91,7066.11h0a.83.83,0,0,1-.77-.6,2.49,2.49,0,0,1-.13-.85,8.66,8.66,0,0,1,.37-2.2,24.23,24.23,0,0,1,.89-2.65.72.72,0,0,1,.53-.39,1.27,1.27,0,0,1,.34,0,2.26,2.26,0,0,1,.52.07,1.81,1.81,0,0,1,.57.24,7.32,7.32,0,0,0-.53,1.09c-.25.58-.5,1.21-.75,1.91a15.68,15.68,0,0,0-.56,1.83,2.72,2.72,0,0,0-.09.6c0,.17,0,.26.13.26a.74.74,0,0,0,.49-.31,9.12,9.12,0,0,0,.92-1.4q.07-.18.12-.18s0,0,0,.08a2.87,2.87,0,0,1-.38,1.17,3.62,3.62,0,0,1-.8,1A1.36,1.36,0,0,1,462.91,7066.11Z" transform="translate(336 -105)"/><path class="cls-1" d="M465.42,7066.11h0a.87.87,0,0,1-.81-.76,3.15,3.15,0,0,1-.08-.71,6.75,6.75,0,0,1,.13-1.17,14.12,14.12,0,0,1,.43-1.7h-.45l.23-.57h.4c.23-.64.4-1.1.52-1.39a.7.7,0,0,1,.52-.39,1.37,1.37,0,0,1,.34,0,2.34,2.34,0,0,1,.53.07,1.86,1.86,0,0,1,.56.24,10.85,10.85,0,0,0-.71,1.51h.58l-.23.57h-.57a19.26,19.26,0,0,0-1,3,1.86,1.86,0,0,0,0,.36c0,.17,0,.25.13.25a.85.85,0,0,0,.55-.35,6.55,6.55,0,0,0,.6-.81c.18-.3.31-.51.38-.65s.05-.08.07-.08.05,0,.05.08a2.79,2.79,0,0,1-.41,1.17,3.73,3.73,0,0,1-.84,1A1.4,1.4,0,0,1,465.42,7066.11Z" transform="translate(336 -105)"/><path class="cls-1" d="M470.73,7066.11h0a.89.89,0,0,1-.82-.55,2,2,0,0,1-.16-.85c0-.12,0-.23,0-.36a5.21,5.21,0,0,1-.77,1.25,1.21,1.21,0,0,1-.9.51.91.91,0,0,1-.83-.53,2.29,2.29,0,0,1-.17-.92q0-.14,0-.54a5.39,5.39,0,0,1,.23-1.16,10.58,10.58,0,0,1,.47-1.32.71.71,0,0,1,.53-.4,2,2,0,0,1,.36,0,2.81,2.81,0,0,1,.5.07,1.8,1.8,0,0,1,.57.25,4.56,4.56,0,0,0-.48.89,13.43,13.43,0,0,0-.49,1.27,7.57,7.57,0,0,0-.31,1.16,1.68,1.68,0,0,0,0,.29c0,.17,0,.25.12.25.31,0,.81-.88,1.53-2.63.06-.17.11-.29.14-.36q.13-.35.27-.66a.9.9,0,0,1,.89-.43,2.67,2.67,0,0,1,.5.06,1.51,1.51,0,0,1,.56.26,4.77,4.77,0,0,0-.49.87c-.18.39-.36.81-.52,1.24a7.05,7.05,0,0,0-.33,1.13,1.68,1.68,0,0,0,0,.29c0,.15,0,.23.13.23.26,0,.6-.35,1-1,.21-.35.36-.61.45-.79s0-.06.06-.06,0,0,0,.08a3.05,3.05,0,0,1-.39,1.17,3.62,3.62,0,0,1-.8,1A1.36,1.36,0,0,1,470.73,7066.11Z" transform="translate(336 -105)"/><path class="cls-1" d="M473.34,7066.15a1.1,1.1,0,0,1-.33-.08.68.68,0,0,1-.3-.25,2.28,2.28,0,0,1-.32-1.24s0-.16,0-.44a5.23,5.23,0,0,1,.2-1.17,8.32,8.32,0,0,1,.41-1.25.68.68,0,0,1,.52-.4l.33,0a2.35,2.35,0,0,1,.54.07,1.51,1.51,0,0,1,.58.25,6,6,0,0,0-1.1,2.29l.2-.39a8.18,8.18,0,0,1,.54-.9,5.24,5.24,0,0,1,.76-.92,1.86,1.86,0,0,1,.9-.5h.08a.52.52,0,0,1,.51.3,1.4,1.4,0,0,1,.12.6c0,.08,0,.23,0,.44a2.21,2.21,0,0,1-.26.76,1.2,1.2,0,0,1-.57.6.54.54,0,0,1-.21.05.85.85,0,0,1-.55-.25.93.93,0,0,0,.42-.73c0-.19-.07-.3-.21-.31s-.31.15-.57.47a6.9,6.9,0,0,0-.8,1.26,6,6,0,0,0-.54,1.69A.86.86,0,0,1,473.34,7066.15Z" transform="translate(336 -105)"/><path class="cls-1" d="M480.73,7066.11h0c-.57-.06-.89-.42-.95-1.1a2.35,2.35,0,0,1-.61.67,1.23,1.23,0,0,1-.67.23,1.19,1.19,0,0,1-.9-.35,2.08,2.08,0,0,1-.48-1.48,5,5,0,0,1,.08-.73,3.17,3.17,0,0,1,.37-1,2.6,2.6,0,0,1,.75-.89,1.65,1.65,0,0,1,1.06-.35.94.94,0,0,1,1.06.84l.14-.31a.71.71,0,0,1,.53-.4,2,2,0,0,1,.36,0,2.81,2.81,0,0,1,.5.07,1.8,1.8,0,0,1,.57.25,5,5,0,0,0-.5.89,13.45,13.45,0,0,0-.53,1.27,8.35,8.35,0,0,0-.35,1.16,2.11,2.11,0,0,0,0,.31c0,.15,0,.23.12.23.28,0,.64-.38,1.09-1.15l.39-.68s0-.06.05-.06,0,0,0,.08a2.89,2.89,0,0,1-.39,1.17,3.59,3.59,0,0,1-.79,1A1.38,1.38,0,0,1,480.73,7066.11Zm-1.88-.73c.16,0,.34-.18.52-.5a5.7,5.7,0,0,0,.47-1.11,4.47,4.47,0,0,0,.2-1.17c0-.27-.08-.42-.25-.43a.78.78,0,0,0-.46.36,3.73,3.73,0,0,0-.4.8,5.54,5.54,0,0,0-.27.94,2.77,2.77,0,0,0-.07.6c0,.07,0,.17,0,.3A.22.22,0,0,0,478.85,7065.38Z" transform="translate(336 -105)"/><path class="cls-1" d="M965,7015.62v3h-6.07v3h4.55v3h-4.55v3H965v3h-9.1v-15.14Z" transform="translate(336 -105)"/><path class="cls-1" d="M973.35,7030.85a7.66,7.66,0,0,1,0-15.32v0a7.73,7.73,0,0,1,5.43,2.24l-2.16,2.16a4.46,4.46,0,0,0-3.25-1.35,4.39,4.39,0,0,0-3.24,1.35,4.61,4.61,0,0,0,0,6.5,4.62,4.62,0,0,0,6.5,0l2.16,2.16A7.6,7.6,0,0,1,973.35,7030.85Z" transform="translate(336 -105)"/><path class="cls-1" d="M991.45,7017.79a7.61,7.61,0,1,1-5.41-2.26A7.4,7.4,0,0,1,991.45,7017.79Zm-8.66,2.15a4.47,4.47,0,0,0-1.35,3.25,4.59,4.59,0,0,0,4.6,4.59,4.48,4.48,0,0,0,3.24-1.34,4.41,4.41,0,0,0,1.35-3.25,4.61,4.61,0,0,0-4.59-4.6A4.39,4.39,0,0,0,982.79,7019.94Z" transform="translate(336 -105)"/><path class="cls-1" d="M996.35,7016.11h8.92a10.06,10.06,0,0,1,7.16,2.78,7.71,7.71,0,0,1,2.64,6.21v.71a8.82,8.82,0,0,1-1.73,5.21,6.23,6.23,0,0,1-3.27,2.52l6.36,9.91h-6.72l-7.85-12.1v12.1h-5.49Zm13.06,9.16a3.67,3.67,0,0,0-1.09-2.63,5.12,5.12,0,0,0-3.39-1.09h-3.09v7.55H1004v0h1.84A3.76,3.76,0,0,0,1009.41,7025.27Z" transform="translate(336 -105)"/><path class="cls-1" d="M1035.27,7016v5.48h-11V7027h8.24v5.48h-8.24V7038h11v5.46h-16.48V7016Z" transform="translate(336 -105)"/><path class="cls-1" d="M1037.64,7016.11h5.5v27.34h-5.5Z" transform="translate(336 -105)"/><path class="cls-1" d="M1063,7031.22V7016h5.51v28L1052,7028.3v15.18h-5.49v-27.95Z" transform="translate(336 -105)"/><path class="cls-1" d="M1094.56,7020a13.8,13.8,0,1,1-9.8-4.09A13.38,13.38,0,0,1,1094.56,7020Zm-15.69,3.9a8.32,8.32,0,0,0,11.75,11.77,8.32,8.32,0,1,0-11.75-11.77Z" transform="translate(336 -105)"/><path class="cls-1" d="M944.14,7070.05h7.45l2.32-5.22h11.76l2.33,5.22h7.47l-15.68-35ZM963,7058.74h-6.31l3.18-7.27Z" transform="translate(336 -105)"/><polygon class="cls-1" points="1315.76 6955.33 1310.65 6943.56 1306.07 6943.56 1315.77 6965.53 1325.5 6943.56 1320.88 6943.56 1315.76 6955.33"/><polygon class="cls-1" points="1327.37 6965.08 1340.33 6965.08 1340.33 6960.78 1331.69 6960.78 1331.69 6956.45 1338.17 6956.45 1338.17 6952.14 1331.69 6952.14 1331.69 6947.81 1340.33 6947.81 1340.33 6943.5 1327.37 6943.5 1327.37 6965.08"/><polygon class="cls-1" points="1355.15 6955.44 1342.2 6943.1 1342.2 6965.08 1346.52 6965.08 1346.52 6953.14 1359.48 6965.49 1359.48 6943.5 1355.15 6943.5 1355.15 6955.44"/><polygon class="cls-1" points="1361.35 6947.84 1366.64 6947.84 1366.64 6965.05 1370.98 6965.05 1370.98 6947.84 1376.26 6947.84 1376.26 6943.56 1361.35 6943.56 1361.35 6947.84"/><path class="cls-1" d="M1055.17,7061.56a4.35,4.35,0,0,1-8.7,0v-13h-4.34v13a8.7,8.7,0,0,0,17.39,0v-13h-4.35Z" transform="translate(336 -105)"/><path class="cls-1" d="M1075.55,7060.28a7,7,0,0,0,1.36-4.1v-.56a6.06,6.06,0,0,0-2.08-4.88,7.92,7.92,0,0,0-5.63-2.19h-7l0,21.5h4.32v-9.51l6.17,9.51H1078l-5-7.79A5,5,0,0,0,1075.55,7060.28Zm-5.94-1.5h-3.11v-5.93h2.43a4,4,0,0,1,2.67.85,2.88,2.88,0,0,1,.85,2.07A3,3,0,0,1,1069.61,7058.78Z" transform="translate(336 -105)"/><path class="cls-1" d="M1088.83,7048.11l-9.8,21.94h4.66l1.46-3.27h7.36l1.45,3.27h4.68Zm-2,14.86,2-4.55,2,4.55Z" transform="translate(336 -105)"/><path class="cls-1" d="M890.17,7017.39a4.22,4.22,0,0,0,.69.14,32.21,32.21,0,0,1,11.14,2.64c5.24,2.33,9.27,6.44,11.55,13.15l.5,1.4c.38-.66.7-1.26,1.05-1.83a20.08,20.08,0,0,1,9.67-8.14,36.36,36.36,0,0,1,15.17-2.59c.89,0,1.77.08,2.65.16,1.25.13,1.91,1,2,2.62,0,.58.07,1.17.09,1.76a79.38,79.38,0,0,1-1.67,21,30.79,30.79,0,0,1-4.72,11.26,19.52,19.52,0,0,1-9.12,6.87,35.06,35.06,0,0,1-17.22,1.76c-1.05-.13-1.71-1-1.84-2.4-.07-.74-.12-1.49-.18-2.27h-.76a34,34,0,0,1-10.71-1.45,20.54,20.54,0,0,1-9.5-6c-2.93-3.31-4.66-7.59-5.8-12.31a80.36,80.36,0,0,1-1.78-23,2.31,2.31,0,0,1,1.92-2.48l1.54-.22Zm5.12,37.34a24,24,0,0,0,10.08,2.94c1.41.11,2.83,0,4.26,0-.08-.11-.19-.3-.31-.46q-5.54-7.12-11.07-14.25c-.19-.24-.46-.5-.69-.5-3.44,0-6.89,0-10.43,0C888.58,7048.11,891.09,7052.36,895.29,7054.73Zm20.79-14.26a48.68,48.68,0,0,0-2.23,13.13c-.08,1.8,0,3.62,0,5.45.09-.11.23-.25.36-.42,3.64-4.77,7.27-9.56,10.92-14.32a2.11,2.11,0,0,0,.44-1.39c0-4.35,0-8.69-.06-13.14C921.17,7031.67,917.91,7035,916.08,7040.47Zm12.87,9c2.95,0,5.9-.05,8.85,0,.48,0,.71-.16.89-.77a54.24,54.24,0,0,0,2-11.77c.14-2,.19-3.9.28-5.74l-14,18.33Zm-26.71-8.67a5.93,5.93,0,0,0,0-.61c0-4.6,0-9.19,0-13.79,0-.58-.15-.82-.55-1a26.28,26.28,0,0,0-9.11-2.61c-1.49-.17-3-.24-4.62-.37Zm33.2,13.68q-6,0-12.09.08a1,1,0,0,0-.75.29c-2,2.59-4,5.2-6,7.84.07.05.11.13.16.13a27.79,27.79,0,0,0,13.36-2.8,15.11,15.11,0,0,0,5.63-4.93c.1-.14.18-.3.37-.62Zm-24.61-9.13a16.28,16.28,0,0,1,.46-2.35,5.53,5.53,0,0,0,0-3,27.52,27.52,0,0,0-3.66-9.45l-1.28-1.89-.19.16c0,.21,0,.41,0,.61,0,5.33,0,10.66.06,16a1.68,1.68,0,0,0,.17.84c1.19,1.58,2.4,3.13,3.68,4.79C910.31,7049,910.55,7047.19,910.83,7045.35Zm-25.61-19.11a2.33,2.33,0,0,0-.06.35c.27,3.43.53,6.85.81,10.27,0,.21.26.56.39.56,2.47,0,4.94,0,7.52,0Zm44.54,2.05a.8.8,0,0,0-.35.61c0,3.16,0,6.33,0,9.31l8.36-11A34.87,34.87,0,0,0,929.76,7028.29Z" transform="translate(336 -105)"/><rect class="cls-2" width="1375" height="70"/></svg>