<svg id="Capa_1" data-name="Capa 1" xmlns="http://www.w3.org/2000/svg" viewBox="0 0 52.81 52.81"><defs><style>.cls-1{fill:#fff;}</style></defs><title>calendario lunar</title><path class="cls-1" d="M169.13,122.26A23.77,23.77,0,1,1,145.37,146a23.8,23.8,0,0,1,23.76-23.77m0-2.64A26.41,26.41,0,1,0,195.54,146a26.4,26.4,0,0,0-26.41-26.41Z" transform="translate(-142.73 -119.62)"/><path class="cls-1" d="M188.28,146a19.78,19.78,0,0,1-23.21,19.45,26.42,26.42,0,0,0,2-39.15c.5,0,1-.06,1.51-.06A19.76,19.76,0,0,1,188.28,146Z" transform="translate(-142.73 -119.62)"/></svg>