<svg id="Capa_1" data-name="Capa 1" xmlns="http://www.w3.org/2000/svg" viewBox="0 0 78.29 59.91"><defs><style>.cls-1{fill:#fff;}</style></defs><title>clima</title><path class="cls-1" d="M207.7,174.06a13.67,13.67,0,0,0-9.11-11.85,11.72,11.72,0,0,0-8.85-17.94,11.06,11.06,0,0,0-2.82.09,11.71,11.71,0,0,0-19.5-1.76,17.2,17.2,0,1,0-15.79,30.29c-.06.39-.11.78-.14,1.17a13.49,13.49,0,0,0,3.61,10.22,13.63,13.63,0,0,0,9.92,4.31h29.15a13.58,13.58,0,0,0,13.53-14.53Zm-31.11-30.62a6.44,6.44,0,0,1,6.21,4.75,2.66,2.66,0,0,0,3.52,1.76,6.35,6.35,0,0,1,3-.43,6.47,6.47,0,0,1,5.84,5.95,6.47,6.47,0,0,1-3.41,6.16,13.56,13.56,0,0,0-16.86-6.6,17.18,17.18,0,0,0-3.56-8.81,6.46,6.46,0,0,1,5.3-2.78ZM145.8,156.81a11.94,11.94,0,0,1,23.87,0,12.59,12.59,0,0,1-.14,1.85,13.15,13.15,0,0,0-2.07,3,13.47,13.47,0,0,0-3.65-.17A13.67,13.67,0,0,0,153.47,168a12,12,0,0,1-7.67-11.14Zm54.43,23.87a8.22,8.22,0,0,1-6.06,2.64H165a8.3,8.3,0,0,1-8.27-8.89,8.34,8.34,0,0,1,7.52-7.67l.76,0a8.19,8.19,0,0,1,3.05.59,2.64,2.64,0,0,0,2.15-.1,2.6,2.6,0,0,0,1.36-1.66,8.3,8.3,0,0,1,16,0,2.6,2.6,0,0,0,1.36,1.66,2.64,2.64,0,0,0,2.15.1,8.2,8.2,0,0,1,3.8-.56,8.29,8.29,0,0,1,5.32,13.92Zm0,0" transform="translate(-129.44 -128.68)"/><path class="cls-1" d="M157.74,137.59a2.64,2.64,0,0,0,2.63-2.64v-3.64a2.64,2.64,0,0,0-5.27,0V135a2.64,2.64,0,0,0,2.64,2.64Zm0,0" transform="translate(-129.44 -128.68)"/><path class="cls-1" d="M138.37,156.8a2.63,2.63,0,0,0-2.63-2.63h-3.66a2.64,2.64,0,1,0,0,5.27h3.66a2.64,2.64,0,0,0,2.63-2.64Zm0,0" transform="translate(-129.44 -128.68)"/><path class="cls-1" d="M140.42,170.4,137.84,173a2.63,2.63,0,1,0,3.73,3.72l2.58-2.57a2.64,2.64,0,1,0-3.73-3.73Zm0,0" transform="translate(-129.44 -128.68)"/><path class="cls-1" d="M140.42,143.22a2.64,2.64,0,1,0,3.73-3.73l-2.58-2.57a2.63,2.63,0,1,0-3.73,3.72Zm0,0" transform="translate(-129.44 -128.68)"/></svg>