<svg id="Capa_1" data-name="Capa 1" xmlns="http://www.w3.org/2000/svg" viewBox="0 0 36.79 52.16"><defs><style>.cls-1{fill:#fff;}</style></defs><title>facturacion</title><path class="cls-1" d="M191.75,98.26h-30.5a3.15,3.15,0,0,0-3.14,3.14v45.87a3.15,3.15,0,0,0,3.14,3.15h24.92a1.14,1.14,0,0,0,.78-.32l7.62-7.63a1.06,1.06,0,0,0,.32-.77V101.4a3.15,3.15,0,0,0-3.14-3.14Zm-4.48,48.42v-2.93a1,1,0,0,1,.95-1h2.94Zm-26-46.23h30.5a1,1,0,0,1,.95,1v3.39H160.3V101.4a1,1,0,0,1,.95-1Zm-.95,46.82V107h32.4V140.6h-4.48a3.15,3.15,0,0,0-3.14,3.15v4.48H161.25a1,1,0,0,1-.95-1Zm0,0" transform="translate(-158.11 -98.26)"/><path class="cls-1" d="M164.8,115.08h14.34a1.1,1.1,0,1,0,0-2.19H164.8a1.1,1.1,0,0,0,0,2.19Zm0,0" transform="translate(-158.11 -98.26)"/><path class="cls-1" d="M183.52,115.08h3.71a1.1,1.1,0,0,0,0-2.19h-3.71a1.1,1.1,0,0,0,0,2.19Zm0,0" transform="translate(-158.11 -98.26)"/><path class="cls-1" d="M164.8,123.78h14.34a1.1,1.1,0,1,0,0-2.19H164.8a1.1,1.1,0,0,0,0,2.19Zm0,0" transform="translate(-158.11 -98.26)"/><path class="cls-1" d="M183.52,123.78h3.71a1.1,1.1,0,0,0,0-2.19h-3.71a1.1,1.1,0,0,0,0,2.19Zm0,0" transform="translate(-158.11 -98.26)"/><path class="cls-1" d="M180.24,131.38a1.1,1.1,0,0,0-1.1-1.1H164.8a1.1,1.1,0,0,0,0,2.19h14.34a1.09,1.09,0,0,0,1.1-1.09Zm0,0" transform="translate(-158.11 -98.26)"/><path class="cls-1" d="M183.52,132.47h3.71a1.1,1.1,0,0,0,0-2.19h-3.71a1.1,1.1,0,0,0,0,2.19Zm0,0" transform="translate(-158.11 -98.26)"/><path class="cls-1" d="M187.23,138.73a1.1,1.1,0,0,0,0-2.19H176.8a1.1,1.1,0,1,0,0,2.19Zm0,0" transform="translate(-158.11 -98.26)"/></svg>