<svg id="Capa_1" data-name="Capa 1" xmlns="http://www.w3.org/2000/svg" viewBox="0 0 140 140"><defs><style>.cls-1{fill:#7ad06d;}.cls-2{fill:#fff;}</style></defs><title>icono whatsapp</title><path class="cls-1" d="M228.22,203.82a66.25,66.25,0,0,1-76.3,12.49l-5.94-3-26.19,6.2,5.51-26.75-2.92-5.74a66.27,66.27,0,0,1,12.19-76.88,66.22,66.22,0,0,1,93.65,93.64Z" transform="translate(-111.39 -87)"/><path class="cls-2" d="M181.39,227a69.3,69.3,0,0,1-31.15-7.3l-4.72-2.35-24.85,5.88a3.78,3.78,0,0,1-4.58-4.44l5.24-25.46L119,188.78A70,70,0,0,1,131.9,107.5,70.46,70.46,0,0,1,181.39,87a70,70,0,0,1,70,70,70.48,70.48,0,0,1-20.5,49.5A69.54,69.54,0,0,1,181.39,227ZM146,209.56a3.78,3.78,0,0,1,1.68.4l6,3a62.48,62.48,0,0,0,71.93-11.77A62.89,62.89,0,0,0,243.83,157a62.43,62.43,0,0,0-62.44-62.43,62.86,62.86,0,0,0-44.14,18.28,62.47,62.47,0,0,0-11.5,72.49l2.92,5.74a3.74,3.74,0,0,1,.34,2.48L124.7,214.5l20.4-4.83A3.72,3.72,0,0,1,146,209.56Z" transform="translate(-111.39 -87)"/><path class="cls-2" d="M216.69,171.7l-14.1-4a5.27,5.27,0,0,0-5.2,1.37L194,172.53a5.15,5.15,0,0,1-5.59,1.18c-6.67-2.7-20.7-15.17-24.28-21.41a5.14,5.14,0,0,1,.41-5.69l3-3.9a5.25,5.25,0,0,0,.64-5.34L162.21,124a5.26,5.26,0,0,0-8.21-1.88c-3.93,3.33-8.6,8.38-9.17,14-1,9.88,3.24,22.33,19.26,37.28,18.5,17.27,33.33,19.55,43,17.22,5.47-1.33,9.84-6.64,12.6-11a5.25,5.25,0,0,0-3-7.88Zm0,0" transform="translate(-111.39 -87)"/></svg>