<svg id="Capa_1" data-name="Capa 1" xmlns="http://www.w3.org/2000/svg" viewBox="0 0 140.3 140.3"><defs><style>.cls-1{fill:#18d9e8;}.cls-2{fill:#fff;}</style></defs><title>icono telefono</title><rect class="cls-1" x="4.84" y="4.84" width="130.63" height="130.63" rx="27.71"/><path class="cls-2" d="M210.31,186.67c-3.06,4.82-7.9,10.7-14,12.17-10.69,2.59-27.11.06-47.6-19.07-17.74-16.55-22.43-30.34-21.32-41.28.62-6.21,5.8-11.81,10.15-15.49a5.83,5.83,0,0,1,9.1,2.08l6.56,14.85a5.81,5.81,0,0,1-.72,5.92l-3.32,4.31a5.65,5.65,0,0,0-.45,6.3c4,6.91,19.5,20.73,26.88,23.71a5.66,5.66,0,0,0,6.18-1.3l3.83-3.89a5.83,5.83,0,0,1,5.75-1.52L207,177.94A5.83,5.83,0,0,1,210.31,186.67Z" transform="translate(-102.94 -92.7)"/><path class="cls-2" d="M210.7,233H135.48a32.58,32.58,0,0,1-32.54-32.54V125.24A32.58,32.58,0,0,1,135.48,92.7H210.7a32.57,32.57,0,0,1,32.54,32.54v75.22A32.57,32.57,0,0,1,210.7,233ZM135.48,97.53a27.74,27.74,0,0,0-27.7,27.71v75.22a27.74,27.74,0,0,0,27.7,27.7H210.7a27.74,27.74,0,0,0,27.71-27.7V125.24A27.75,27.75,0,0,0,210.7,97.53Zm53,104.93c-10.34,0-24.51-4.45-41.81-20.59-16-15-23.48-29.55-22.09-43.3.71-7,6.38-13.18,11-17.1a8.25,8.25,0,0,1,12.87,3L155,139.28a8.22,8.22,0,0,1-1,8.37L150.63,152a3.26,3.26,0,0,0-.27,3.62c3.77,6.57,18.91,19.93,25.7,22.68a3.24,3.24,0,0,0,3.55-.76l3.82-3.89a8.23,8.23,0,0,1,8.15-2.15L207.2,176a8.23,8.23,0,0,1,4.67,12.34c-3.24,5.11-8.54,11.56-15.43,13.23A34.17,34.17,0,0,1,188.44,202.46Zm-47.57-78.1a3.4,3.4,0,0,0-2.2.81c-3.95,3.33-8.77,8.46-9.32,13.89-1.23,12.17,5.7,25.38,20.57,39.27,21.82,20.36,37.81,20.35,45.38,18.48,5.32-1.29,9.72-6.75,12.48-11.11a3.4,3.4,0,0,0-1.92-5.11l-15.61-4.48a3.41,3.41,0,0,0-3.37.89l-3.82,3.89a8.08,8.08,0,0,1-8.81,1.85c-7.78-3.15-23.78-17.26-28.08-24.75a8.05,8.05,0,0,1,.63-9l3.34-4.32a3.39,3.39,0,0,0,.41-3.45L144,126.38a3.42,3.42,0,0,0-3.11-2Z" transform="translate(-102.94 -92.7)"/></svg>