<svg id="Capa_1" data-name="Capa 1" xmlns="http://www.w3.org/2000/svg" viewBox="0 0 49.88 50"><defs><style>.cls-1{fill:#fff;}</style></defs><title>Atencion a Cliente</title><path class="cls-1" d="M186.94,365.67a5.64,5.64,0,0,0-4.35-3.77l-5.39-1v-.42a8.07,8.07,0,0,0,2.41-2.13h1.63a2.42,2.42,0,0,0,2.41-2.42v-9.68a10.48,10.48,0,1,0-21,0v5.64a3.22,3.22,0,0,0,2.57,3.16,8.07,8.07,0,0,0,3.88,5.43v.42l-5.39,1a5.64,5.64,0,0,0-4.35,3.77l-.32,1-2.75-2.75a.81.81,0,0,1,0-1.14l3.19-3.19-6-6-3.6,3.6a5.66,5.66,0,0,0,0,8l10.9,10.9a5.65,5.65,0,0,0,8,0l3.93-3.6-1.23-1.22h17.31ZM182,356a.8.8,0,0,1-.8.8h-.68a7.81,7.81,0,0,0,.52-1.68,3.11,3.11,0,0,0,1-.38Zm-.8-2.65v-2.78a1.61,1.61,0,0,1,0,2.78Zm-16.13,0a1.6,1.6,0,0,1,0-2.78Zm0-5.42v.92a3.23,3.23,0,0,0-.81.34v-2.87a8.87,8.87,0,0,1,17.74,0v2.87a3.32,3.32,0,0,0-.8-.34v-.92h-.81a8.9,8.9,0,0,1-6.32-2.61l-.94-.95-.94.95a8.9,8.9,0,0,1-6.32,2.61Zm1.61,5.65v-4.07a10.46,10.46,0,0,0,6.45-2.86,10.46,10.46,0,0,0,6.45,2.86v4.07a6.41,6.41,0,0,1-.87,3.22h-5.58v1.62h4.25a6.44,6.44,0,0,1-10.7-4.84Zm8.87,7.69v0l-2.42,2.42-2.42-2.42v0a8.1,8.1,0,0,0,4.84,0Zm-22.05-5.36,3.7,3.7-.88.88-3.7-3.7Zm14.14,19.07a4,4,0,0,1-5.7,0L151.08,364a4,4,0,0,1,0-5.71l.44-.44,3.7,3.7,0,0a2.43,2.43,0,0,0,0,3.42l5.78,5.78a2.41,2.41,0,0,0,1.72.71,2.38,2.38,0,0,0,1.68-.68l.06,0,3.71,3.71Zm1.65-1.52-3.7-3.71,1.06-1,3.7,3.7Zm.56-3.75-3.14-3.15-3.49,3.16a.81.81,0,0,1-1.14,0l-1.77-1.76.58-1.73a4.06,4.06,0,0,1,3.11-2.7l5.63-1,3.5,3.5,3.5-3.5,5.63,1a4.06,4.06,0,0,1,3.11,2.7l1.16,3.48Z" transform="translate(-148.29 -327.72)"/><path class="cls-1" d="M195.75,327.72H184.46a2.43,2.43,0,0,0-2.42,2.42v6.45a2.43,2.43,0,0,0,2.42,2.42h2.15l-.83,4.86,7.78-4.86h2.19a2.42,2.42,0,0,0,2.42-2.42v-6.45A2.42,2.42,0,0,0,195.75,327.72Zm.81,8.87a.81.81,0,0,1-.81.81H193.1L188,340.6l.55-3.2h-4.07a.81.81,0,0,1-.81-.81v-6.45a.82.82,0,0,1,.81-.81h11.29a.81.81,0,0,1,.81.81Z" transform="translate(-148.29 -327.72)"/><rect class="cls-1" x="36.98" y="3.23" width="9.68" height="1.61"/><rect class="cls-1" x="36.98" y="6.45" width="6.45" height="1.61"/><rect class="cls-1" x="45.05" y="6.45" width="1.61" height="1.61"/><path class="cls-1" d="M155.57,347.31l-.28-.47a.53.53,0,0,0-.73-.18l-1.73,1a21,21,0,0,1,26.55-15l.48-1.54A22.57,22.57,0,0,0,151.2,347.6l-1.26-2.1a.53.53,0,0,0-.73-.18l-.47.28a.54.54,0,0,0-.18.73l2.29,3.82a.52.52,0,0,0,.72.18l3.82-2.29A.53.53,0,0,0,155.57,347.31Z" transform="translate(-148.29 -327.72)"/><path class="cls-1" d="M190.55,347.66l.73.44a.38.38,0,0,0,.52-.13l1.22-2a21,21,0,0,1-3.56,20l1.25,1a22.59,22.59,0,0,0,3.87-21.4l2,1.22a.39.39,0,0,0,.53-.13l.43-.72a.39.39,0,0,0-.13-.53l-4.07-2.44a.38.38,0,0,0-.52.13l-2.44,4.07A.38.38,0,0,0,190.55,347.66Z" transform="translate(-148.29 -327.72)"/></svg>