<svg id="Capa_1" data-name="Capa 1" xmlns="http://www.w3.org/2000/svg" viewBox="0 0 46.99 50"><defs><style>.cls-1{fill:#fff;}</style></defs><title>experencias</title><path class="cls-1" d="M557.92,358.83l2.15-2.16,2.2,2.24.15.12.51-1.45-2.36-2.4a.71.71,0,0,0-.5-.21.89.89,0,0,0-.5.21l-2.65,2.65a.71.71,0,0,0,1,1Z" transform="translate(-549.68 -324.92)"/><path class="cls-1" d="M584.64,345a.71.71,0,0,0-.66-.47.7.7,0,0,0-.66.47l-2.4,6.67L577,340.8a.7.7,0,0,0-1.32,0l-3.94,10.94L569.32,345a.71.71,0,0,0-1.33,0l-4.68,13h0l-1.12,3.15-1.46,0V360l1,1,.52-1.48-1.67-1.7a.76.76,0,0,0-.5-.21.82.82,0,0,0-.5.21l-2.65,2.65a.71.71,0,0,0,1,1l1.4-1.41v1.76a.7.7,0,0,0,.7.7h0l2.46,0,6.11,0h9.13l6.3,0H590a.68.68,0,0,0,.57-.3.67.67,0,0,0,.09-.64Zm-.66,2.32,1,2.84-1,1.19-1-1.14Zm-7.62-4.16,1.47,4.08-1.53,1.68-1.46-1.55Zm-7.7,4.16,1,2.88-1,1.15-1.06-1.17Zm-.29,13.87h-4.7v0l3.41-9.48,1.09,1.2a.68.68,0,0,0,.52.23h0a.71.71,0,0,0,.53-.24l1-1.16.77,2.16Zm9.12,0h-7.63l1.9-5.24.75-2.08,1.8-5,1.49,1.58a.7.7,0,0,0,.51.22h0a.66.66,0,0,0,.51-.23l1.54-1.69,1.8,5,.75,2.07,1.91,5.38Zm8.14,0h-1.3l-2.67-7.44.74-2,1.06,1.17a.68.68,0,0,0,.52.23h0a.69.69,0,0,0,.52-.24l1-1.19,3.42,9.51Z" transform="translate(-549.68 -324.92)"/><path class="cls-1" d="M557.92,356.15l2.15-2.15,2.2,2.24a.7.7,0,0,0,.5.21.7.7,0,0,0,.49-.2.71.71,0,0,0,0-1l-2.7-2.74a.71.71,0,0,0-1,0l-2.65,2.66a.7.7,0,0,0,1,1Z" transform="translate(-549.68 -324.92)"/><path class="cls-1" d="M559.91,341.45a2.55,2.55,0,1,0-2.54-2.54A2.54,2.54,0,0,0,559.91,341.45Zm0-3.68a1.14,1.14,0,1,1-1.13,1.14A1.14,1.14,0,0,1,559.91,337.77Z" transform="translate(-549.68 -324.92)"/><path class="cls-1" d="M590.38,331.84a6.58,6.58,0,0,0-3.75,1.16,6.61,6.61,0,0,0-3.76-1.16.68.68,0,0,0,0,1.35h0a5,5,0,0,1,3.13,1.08.65.65,0,0,0,.48.2h.23a.63.63,0,0,0,.48-.2,4.92,4.92,0,0,1,3.13-1.08.68.68,0,1,0,0-1.35Z" transform="translate(-549.68 -324.92)"/><path class="cls-1" d="M578.34,336.43a3.26,3.26,0,0,1,2.35,1,.69.69,0,0,0,.53.25l.09,0,.1,0a.68.68,0,0,0,.52-.25,3.25,3.25,0,0,1,2.36-1,.68.68,0,0,0,0-1.35,4.81,4.81,0,0,0-3,1.08,4.77,4.77,0,0,0-3-1.08.68.68,0,1,0,0,1.35Z" transform="translate(-549.68 -324.92)"/><path class="cls-1" d="M596.31,324.92H549.68l.37,36.46a4.47,4.47,0,0,0,2.61,3.9l17.48,9a6.25,6.25,0,0,0,5.55,0l18.28-9a4.53,4.53,0,0,0,2.7-4Zm-2.68,39.69-18.28,9a5.5,5.5,0,0,1-4.86,0l-17.47-9a3.73,3.73,0,0,1-2.2-3.23l-.36-35.68h45.08l.36,35.59A3.77,3.77,0,0,1,593.63,364.61Z" transform="translate(-549.68 -324.92)"/><path class="cls-1" d="M594.3,327.08H551.71l.34,33.31a4.09,4.09,0,0,0,2.39,3.56l16,8.19a5.59,5.59,0,0,0,2.57.61,5.65,5.65,0,0,0,2.5-.57l16.7-8.21a4.15,4.15,0,0,0,2.47-3.68Zm-2.44,36.26-16.7,8.21a5.05,5.05,0,0,1-4.44,0l-16-8.19a3.42,3.42,0,0,1-2-2.95l-.32-32.6h41.18l.32,32.52A3.43,3.43,0,0,1,591.86,363.34Z" transform="translate(-549.68 -324.92)"/></svg>