<svg id="Capa_1" data-name="Capa 1" xmlns="http://www.w3.org/2000/svg" viewBox="0 0 30 30"><defs><style>.cls-1{fill:#fff;}</style></defs><title>fecabook</title><path class="cls-1" d="M226.05,380.71H204.14a4,4,0,0,0-4,4.05v21.91a4,4,0,0,0,4,4H215L215,400h-2.79a.66.66,0,0,1-.66-.65v-3.46a.66.66,0,0,1,.66-.66H215v-3.33c0-3.88,2.36-6,5.82-6h2.84a.65.65,0,0,1,.65.66v2.91a.66.66,0,0,1-.65.66h-1.74c-1.88,0-2.25.89-2.25,2.2v2.89h4.13a.67.67,0,0,1,.66.74l-.41,3.45a.65.65,0,0,1-.66.58h-3.7l0,10.72h6.43a4,4,0,0,0,4-4V384.76a4,4,0,0,0-4-4.05Z" transform="translate(-200.1 -380.71)"/></svg>