<svg id="Capa_1" data-name="Capa 1" xmlns="http://www.w3.org/2000/svg" viewBox="0 0 50 50"><defs><style>.cls-1{fill:#fff;}</style></defs><title>Hospedaje</title><path class="cls-1" d="M307.94,365.86h3.33a.84.84,0,0,0,.84-.83v-2.5h25V365a.83.83,0,0,0,.83.83h3.33a.84.84,0,0,0,.84-.83V351.69a4.18,4.18,0,0,0-3.34-4.08V340a2.5,2.5,0,0,0-2.5-2.5H312.94a2.5,2.5,0,0,0-2.5,2.5v7.58a4.17,4.17,0,0,0-3.33,4.08V365A.83.83,0,0,0,307.94,365.86Zm32.5-1.67h-1.67v-2.5a.83.83,0,0,0-.83-.83H311.27a.83.83,0,0,0-.83.83v2.5h-1.67v-6.66h31.67ZM312.11,340a.84.84,0,0,1,.83-.84h23.33a.85.85,0,0,1,.84.84v7.5h-1.67v-3.34a2.5,2.5,0,0,0-2.5-2.5h-5a2.5,2.5,0,0,0-2.5,2.5v3.34h-1.67v-3.34a2.5,2.5,0,0,0-2.5-2.5h-5a2.51,2.51,0,0,0-2.5,2.5v3.34h-1.66Zm21.66,7.5h-6.66v-3.34a.83.83,0,0,1,.83-.83h5a.83.83,0,0,1,.83.83Zm-11.66,0h-6.67v-3.34a.83.83,0,0,1,.83-.83h5a.84.84,0,0,1,.84.83Zm-13.34,4.16a2.51,2.51,0,0,1,2.5-2.5h26.67a2.5,2.5,0,0,1,2.5,2.5v4.17H308.77Z" transform="translate(-307.11 -315.86)"/><path class="cls-1" d="M356.27,347.53H344.61a.84.84,0,0,0-.84.83v12.5h1.67v-5h10v5h1.67v-12.5A.84.84,0,0,0,356.27,347.53Zm-10.83,6.66v-5h10v5Z" transform="translate(-307.11 -315.86)"/><rect class="cls-1" x="41.67" y="35" width="3.33" height="1.67"/><path class="cls-1" d="M353.77,341.69a.86.86,0,0,0,.68-.34.81.81,0,0,0,.11-.75l-1.66-5a.84.84,0,0,0-.79-.57h-3.34a.84.84,0,0,0-.79.57l-1.66,5a.81.81,0,0,0,.11.75.86.86,0,0,0,.68.34h2.5v2.5h-1.67v1.67h5v-1.67h-1.67v-2.5Zm-4.4-5h2.14l1.11,3.34h-4.36Z" transform="translate(-307.11 -315.86)"/><path class="cls-1" d="M356.61,326.77l-24.16-10.84a.89.89,0,0,0-.68,0L307.6,326.77a.82.82,0,0,0-.49.76v10h1.66v-9.46l23.34-10.46,23.33,10.46v9.46h1.67v-10A.83.83,0,0,0,356.61,326.77Z" transform="translate(-307.11 -315.86)"/><path class="cls-1" d="M326.27,328.36a5.84,5.84,0,0,0,11.67,0,6.24,6.24,0,0,0-.08-1l-1.64.27a5.49,5.49,0,0,1,0,.7,4.16,4.16,0,1,1-2.77-3.93l.55-1.57a5.84,5.84,0,0,0-7.78,5.5Z" transform="translate(-307.11 -315.86)"/><path class="cls-1" d="M331,326.94l-1.18,1.18,1.67,1.66a.83.83,0,0,0,.59.25.87.87,0,0,0,.59-.25l5.83-5.83-1.18-1.18L332.11,328Z" transform="translate(-307.11 -315.86)"/></svg>