<svg id="Capa_1" data-name="Capa 1" xmlns="http://www.w3.org/2000/svg" viewBox="0 0 30.84 30"><defs><style>.cls-1{fill:#fff;}</style></defs><title>instagram</title><path class="cls-1" d="M280.51,410.71H268.67a9.51,9.51,0,0,1-9.5-9.5v-11a9.52,9.52,0,0,1,9.5-9.51h11.84a9.52,9.52,0,0,1,9.5,9.51v11A9.51,9.51,0,0,1,280.51,410.71Zm-11.84-26.63a6.15,6.15,0,0,0-6.14,6.14v11a6.15,6.15,0,0,0,6.14,6.14h11.84a6.15,6.15,0,0,0,6.14-6.14v-11a6.15,6.15,0,0,0-6.14-6.14Z" transform="translate(-259.17 -380.71)"/><path class="cls-1" d="M274.31,403.08a7.29,7.29,0,1,1,7.29-7.29A7.3,7.3,0,0,1,274.31,403.08Zm0-11.22a3.93,3.93,0,1,0,3.93,3.93A3.93,3.93,0,0,0,274.31,391.86Z" transform="translate(-259.17 -380.71)"/><circle class="cls-1" cx="23.55" cy="8.91" r="1.68"/></svg>