<svg id="Capa_1" data-name="Capa 1" xmlns="http://www.w3.org/2000/svg" viewBox="0 0 50 50"><defs><style>.cls-1{fill:#fff;}</style></defs><title>Restaurante</title><path class="cls-1" d="M500.56,342.07a9.91,9.91,0,0,0-.28-4.59h0l-.53-1.76a3.83,3.83,0,0,0-7.25,0l-.53,1.76a9.91,9.91,0,0,0-.28,4.59,4.32,4.32,0,0,0,2.22,3l-.6,13.4a2.63,2.63,0,0,0,.67,2,2.91,2.91,0,0,0,4.11.18l.19-.18a2.61,2.61,0,0,0,.66-2l-.6-13.45A4.32,4.32,0,0,0,500.56,342.07Zm-1.65-.29a2.64,2.64,0,0,1-1.72,2,.83.83,0,0,0-.54.82l.63,14.06a1,1,0,0,1-.25.76,1.28,1.28,0,0,1-1.81,0,1,1,0,0,1-.25-.81l.63-14a.83.83,0,0,0-.54-.82,2.65,2.65,0,0,1-1.73-2,8.33,8.33,0,0,1,.23-3.81l.54-1.76a2.16,2.16,0,0,1,4,0l.54,1.76h0A8.19,8.19,0,0,1,498.91,341.78Z" transform="translate(-464.87 -320.63)"/><path class="cls-1" d="M488,342.06a.83.83,0,0,0,.25-.59V334a.85.85,0,0,0-.84-.84.84.84,0,0,0-.83.84v7.15l-2.26,2.26a.84.84,0,0,0-.24.63l.73,14.58a1.12,1.12,0,0,1-.32.85,1.17,1.17,0,0,1-1.65,0h0a1.16,1.16,0,0,1-.32-.85l.74-14.58a.81.81,0,0,0-.25-.63l-2.25-2.26V334a.85.85,0,0,0-.84-.84.84.84,0,0,0-.83.84v7.5a.87.87,0,0,0,.24.59l2.24,2.23-.71,14.22a2.82,2.82,0,1,0,5.63.27v-.27l-.72-14.22Z" transform="translate(-464.87 -320.63)"/><path class="cls-1" d="M482.37,341.47a.85.85,0,0,0,.84-.84V334a.85.85,0,0,0-.84-.84.84.84,0,0,0-.83.84v6.66A.84.84,0,0,0,482.37,341.47Z" transform="translate(-464.87 -320.63)"/><path class="cls-1" d="M484,334v6.66a.84.84,0,0,0,.83.84.85.85,0,0,0,.84-.84V334a.85.85,0,0,0-.84-.84A.84.84,0,0,0,484,334Z" transform="translate(-464.87 -320.63)"/><path class="cls-1" d="M489.87,320.63a25,25,0,1,0,25,25A25,25,0,0,0,489.87,320.63Zm0,48.34a23.34,23.34,0,1,1,23.34-23.34A23.34,23.34,0,0,1,489.87,369Z" transform="translate(-464.87 -320.63)"/><path class="cls-1" d="M491.64,360.53a14.89,14.89,0,0,1-3.53,0,.84.84,0,0,0-.2,1.66,17.13,17.13,0,0,0,3.92,0,.84.84,0,0,0,.75-.91.83.83,0,0,0-.91-.75Z" transform="translate(-464.87 -320.63)"/><path class="cls-1" d="M501.45,334.79a.83.83,0,0,0-.1,1.18,15,15,0,0,1-.89,20.29.83.83,0,1,0,1.18,1.18,16.67,16.67,0,0,0,1-22.55.84.84,0,0,0-1.17-.1Z" transform="translate(-464.87 -320.63)"/><path class="cls-1" d="M484.29,331.65a.72.72,0,0,0,.29-.06,15.21,15.21,0,0,1,8.83-.54.83.83,0,1,0,.4-1.62,16.84,16.84,0,0,0-9.81.6.85.85,0,0,0-.49,1.08.84.84,0,0,0,.78.54Z" transform="translate(-464.87 -320.63)"/><path class="cls-1" d="M474.87,345.63a15,15,0,0,1,2.87-8.82.83.83,0,1,0-1.33-1l0,0a16.68,16.68,0,0,0,1.68,21.57.83.83,0,0,0,1.18-1.18h0A14.93,14.93,0,0,1,474.87,345.63Z" transform="translate(-464.87 -320.63)"/></svg>