<svg id="Capa_1" data-name="Capa 1" xmlns="http://www.w3.org/2000/svg" viewBox="0 0 36.07 30"><defs><style>.cls-1{fill:#fff;}</style></defs><title>twitter</title><path class="cls-1" d="M411,384.2a13.77,13.77,0,0,1-2.49.84,7.74,7.74,0,0,0,2.05-3.26.41.41,0,0,0-.6-.47,14.06,14.06,0,0,1-3.8,1.57l-.24,0a1,1,0,0,1-.66-.25,7.75,7.75,0,0,0-5.15-2,8.05,8.05,0,0,0-2.46.39,7.53,7.53,0,0,0-5.08,5.42,8.22,8.22,0,0,0-.18,2.87.27.27,0,0,1-.07.21.27.27,0,0,1-.22.1h0a20.38,20.38,0,0,1-14-7.49.4.4,0,0,0-.66.06,7.76,7.76,0,0,0,1.26,9.45,6.93,6.93,0,0,1-1.77-.69.41.41,0,0,0-.61.35,7.79,7.79,0,0,0,4.55,7.17h-.17a7.18,7.18,0,0,1-1.31-.13.4.4,0,0,0-.46.52,7.76,7.76,0,0,0,6.15,5.3,14.32,14.32,0,0,1-8,2.44h-.9a.6.6,0,0,0-.29,1.13,21.26,21.26,0,0,0,10.72,2.89,21.66,21.66,0,0,0,9.17-1.94,20.15,20.15,0,0,0,6.7-5,22.09,22.09,0,0,0,4.11-6.88,21.79,21.79,0,0,0,1.39-7.53v-.11a1.3,1.3,0,0,1,.5-1,15.63,15.63,0,0,0,3.09-3.4.41.41,0,0,0-.5-.6Z" transform="translate(-375.55 -380.71)"/></svg>