<svg id="Capa_1" data-name="Capa 1" xmlns="http://www.w3.org/2000/svg" viewBox="0 0 325.39 318.58"><defs><style>.cls-1{fill:#fff;}.cls-2{fill:#ed1c24;}</style></defs><title>turistica</title><circle class="cls-1" cx="162.7" cy="159.29" r="153.5"/><path class="cls-2" d="M-2.93,154.68c-2.6.33-7.65-4.22-8.89-13.77a99.27,99.27,0,0,1-.62-11c-1,.58-2.56,1.53-4.46,2.69C-21.2,144.1-27.28,157.49-32,157c-5.33-.62-6.28-3.23-5.91-6.45.66-5.75,8.77-12.12,15.92-16.71,2.56-6.2,4.76-12.32,5.95-16-7.11,2.81-14.8,6.57-15.29,10.71-.17,1.53-2.78-.17-2.49-2.61.87-7.77,17.25-11.16,21.38-13.56,0-3.56,5.87-2.24,6.29.91.41,3.3-.54,21.42.41,29C-4.21,153.86-.28,154.35-2.93,154.68Zm-20.26-17.94c-6.45,4.42-13.15,10-13.6,14,0,0-.46,3.43,1.77,3.68C-31.83,154.76-27.24,146.08-23.19,136.74Zm10.79-17.29c-.74,2.52-2,6.41-3.64,10.79,1.49-.82,2.69-1.49,3.6-1.94C-12.48,125.16-12.44,122.06-12.4,119.45Z" transform="translate(122.03 87.46)"/><path class="cls-2" d="M24.86,123.59c-3.35,1-10.67,2.19-17.41,2.73-1,5.83-2.19,12.69-2.19,16.74,0,11,3.6,11.91,1.12,11.91S.17,150.13.17,141.12A94.66,94.66,0,0,1,1.79,126.6a36.93,36.93,0,0,1-5-.2,20.07,20.07,0,0,1-9.1-3.89c-.86-.58-.41-1.12.17-1a91.87,91.87,0,0,0,14.64,1.36l.25-1.24A62.64,62.64,0,0,0,3.81,115c0-4,5-1.4,5,1.7,0,.83-.25,2.52-.58,4.84L8,122.92c7.11,0,13.69-.33,16.91-.33C26.14,122.63,25.89,123.25,24.86,123.59Z" transform="translate(122.03 87.46)"/><path class="cls-2" d="M28,139.34c-.29.83-2.68,11-9.18,11-5.74,0-9.18-5.17-9.18-9.3,0-5.38,2.73-10.34,4.39-11.83s5.66-1.24,6.94-.62,2.15,2.48,2.15,4.79c0,4.35-2.06,6.62-4.75,6.62a11.79,11.79,0,0,1-3-.54c-.33,4.1,2.19,8.27,4.47,8.27,5.25,0,7.11-8,7.36-8.72S28.25,138.47,28,139.34Zm-12.57-.79c5.25,2.24,6.08-6.9,4-6.9S15.81,135,15.39,138.55Z" transform="translate(122.03 87.46)"/><path class="cls-2" d="M42.35,144.92c0,6.25.79,5.87.79,7.07s-6.24.34-6.24-6.65a81.43,81.43,0,0,1,1.44-13.28c-1.82,4.59-5,16.58-6.57,18.94a.51.51,0,0,1-.33.42h-.13a1.56,1.56,0,0,1-.49.08c-6,0-5.46-14.06-5.46-14.68s-.46-.46-.46-1.2S31,134.46,31,137.15c0,.87-.16,5.33-.16,6.7a19.88,19.88,0,0,0,.2,2.85c1.57-5.25,5.13-16.08,8.11-17.78a1,1,0,0,1,.33-.17,1.86,1.86,0,0,1,.45-.08,5.5,5.5,0,0,1,.79,0,2,2,0,0,1,1.16.21c1.32.37,2.6,1.16,2.6,2.15C44.46,133.06,42.35,141.78,42.35,144.92Z" transform="translate(122.03 87.46)"/><path class="cls-2" d="M46,140.25a15.39,15.39,0,0,1,3.56-9.76c1.24-1.28,4.63-1.57,5.54-.66s2.69,5.58,1.41,5.58-1.74-3.64-2.49-3.64c-2.77,0-4,16.54-.16,16.54,4.55,0,6-7.73,6.45-8.51s1.69-.91,1.24,0-2.81,11.62-8.77,11.62C48.6,151.42,46,145.87,46,140.25Z" transform="translate(122.03 87.46)"/><path class="cls-2" d="M59.51,124.41c0-2.11,1.78-2,3.85-2s4.22,2.48,4.22,4C67.58,130.16,59.51,126.48,59.51,124.41Zm13.65,15c-.5,2-3.89,11.71-6.74,11.71h-.08c-5.38,0-6-7.74-6-11.54a74.13,74.13,0,0,1,.45-7.57c0-1.82,5.22-.21,5.22,1.86,0,1.49-.25,4-.25,5.75a21.33,21.33,0,0,0,1.57,8.77c1.69-.91,4.67-8,5-9.06S73.33,138.76,73.16,139.42Z" transform="translate(122.03 87.46)"/><path class="cls-2" d="M84.12,138.14c0,6.33-2.11,13.52-7.53,13.52-4.88,0-6-5.54-6-9.71,0-3.89.74-8.69,3.76-9.35,1-2.77,3.51-3.06,5.46-3.06C82.17,129.54,84.12,131.86,84.12,138.14Zm-5.38-12.69a7.43,7.43,0,0,1-4.38.25c-1-.34-1-1.29,1.28-2s4.1-3.35,4.88-3.6,2.56.75,3,1.78C83.71,122.26,81.1,124.62,78.74,125.45Zm.75,6.61c-1.33,0-.79,4.35-2.28,5.67,0,5-1.11,11.74,1.45,11.74S83.91,132.06,79.49,132.06Z" transform="translate(122.03 87.46)"/><path class="cls-2" d="M103.6,144.92c0,6.25.78,5.87.78,7.07s-6.24.34-6.24-6.65a81.43,81.43,0,0,1,1.44-13.28c-1.82,4.59-5,16.58-6.57,18.94a.5.5,0,0,1-.33.42h-.13a1.56,1.56,0,0,1-.49.08c-6,0-5.46-14.06-5.46-14.68s-.45-.46-.45-1.2,6.07-1.16,6.07,1.53c0,.87-.16,5.33-.16,6.7a19.88,19.88,0,0,0,.2,2.85c1.58-5.25,5.13-16.08,8.11-17.78a1,1,0,0,1,.33-.17,1.85,1.85,0,0,1,.46-.08,5.43,5.43,0,0,1,.78,0,2,2,0,0,1,1.16.21c1.32.37,2.6,1.16,2.6,2.15C105.7,133.06,103.6,141.78,103.6,144.92Z" transform="translate(122.03 87.46)"/><path class="cls-2" d="M6.87,168.7c-.2,1.37-1.53,0-3.47-.45-3.89-.91-11-1.49-18.15-1.41-.29,5.46-1.2,20.59-1,27.58.17,6.54,2.65,8.52,0,8.56-7.81.21-6.49-25.35-5.83-35.81-7.69.66-14.1,2.36-14.64,5.63-.16.95-1.28,1.32-1.07.12,1-6,7.94-8.89,16-10.13,0-1.08.17-1.7,2.23-1.74a4.57,4.57,0,0,1,2.81,1.16,74.27,74.27,0,0,1,19.48,1.12C5.51,163.86,7.12,167.38,6.87,168.7Z" transform="translate(122.03 87.46)"/><path class="cls-2" d="M4.6,200.75c-2.65,0-5.67-1.82-5.67-6.49,0-.62,0-1.29.05-2l-3.15,7.9a3.14,3.14,0,0,1,.33,1.16c0,1.11-6.2.2-6.2-7.12,0-4.5,1-11.66,1-13.1,0-1-1.16-2.24.66-2.24,2.19,0,4.83,1.24,4.83,2.73S-5.08,188-5.08,193.88a20.46,20.46,0,0,0,.46,4.93c.83-1.91,2.73-6.5,3.76-9.81.08-1.52.17-2.85.17-3.3,0-.75.16-1.82,1.15-1.82s4.84.37,4.84,2.4c0,1.32-.66,2.27-.66,8.35C4.64,199.43,6.21,200.75,4.6,200.75Z" transform="translate(122.03 87.46)"/><path class="cls-2" d="M23.91,180.9c0,3.43-.87,6.74-2.94,6.74s-3.63-.83-3.63-1.74.7-4.46.7-4.46-4.8,9.55-5.13,15.42c.46,3,1.08,3.81,1.08,4.51,0,1.12-6.78,3.18-6.78-12.78,0-4.22.53-10.38,1.94-10.38,2.77,0,4,1.45,4,3.19s-.83,3.76-.83,6.9c0,1.53.05,2.86.13,4,1.07-5.41,4.55-14.72,6.45-14.72C21.22,177.59,23.91,177.47,23.91,180.9Z" transform="translate(122.03 87.46)"/><path class="cls-2" d="M36.07,187.14c0,7.82-3.15,13.61-5.5,13.61h-.08c-5.38,0-6-7.73-6-11.54a74.39,74.39,0,0,1,.45-7.57c0-1.81,5.21-.2,5.21,1.87,0,1.48-.24,4-.24,5.74A21.12,21.12,0,0,0,31.44,198c1.69-.91,3.18-7.94,3.18-9.06S36.07,186.44,36.07,187.14Zm-6.33-12.07a7.43,7.43,0,0,1-4.38.25c-1-.33-1-1.28,1.28-2s4.09-3.35,4.88-3.6,2.56.75,3,1.78C34.7,171.89,32.1,174.24,29.74,175.07Z" transform="translate(122.03 87.46)"/><path class="cls-2" d="M41.28,178.17c3,0,7.19-.37,7.19,2.77s-4,7-4.67,7,1-5.83.33-5.83c-3.18,0-6.08,8.06-3.64,8.06,1.08,0,7.4-.08,7.4,3.56s-6.65,9.59-9.09,9.59-4-2.15-2.94-2.15c2,0,7.69-6.12,7.69-7.61,0,0-8.89,1.37-8.89-5.33C34.66,184.66,38.3,178.17,41.28,178.17Z" transform="translate(122.03 87.46)"/><path class="cls-2" d="M75.77,173.21c-3.35,1-10.67,2.19-17.41,2.73-1,5.83-2.19,12.69-2.19,16.75,0,11,3.59,11.9,1.11,11.9s-6.2-4.83-6.2-13.85a94.46,94.46,0,0,1,1.61-14.51,36.62,36.62,0,0,1-5-.21,20,20,0,0,1-9.1-3.89c-.87-.58-.41-1.11.16-1a93.2,93.2,0,0,0,14.64,1.37l.25-1.24a64.11,64.11,0,0,0,1.12-6.66c0-4,5-1.41,5,1.69,0,.83-.25,2.53-.58,4.84l-.24,1.41c7.11,0,13.68-.33,16.91-.33C77.05,172.26,76.8,172.88,75.77,173.21Z" transform="translate(122.03 87.46)"/><path class="cls-2" d="M59.85,174c0-2.11,1.77-2,3.84-2s4.22,2.48,4.22,4.05C67.91,179.78,59.85,176.1,59.85,174Zm13.64,15c-.49,1.94-3.89,11.7-6.74,11.7h-.08c-5.38,0-6-7.73-6-11.54a72.8,72.8,0,0,1,.46-7.57c0-1.81,5.21-.2,5.21,1.87,0,1.48-.25,4-.25,5.74A21.29,21.29,0,0,0,67.62,198c1.7-.91,4.67-8,5-9.06S73.66,188.38,73.49,189.05Z" transform="translate(122.03 87.46)"/><path class="cls-2" d="M70.84,189.87a15.44,15.44,0,0,1,3.56-9.76c1.24-1.28,4.63-1.57,5.54-.66S82.63,185,81.35,185s-1.74-3.64-2.48-3.64c-2.77,0-4,16.54-.17,16.54,4.55,0,6-7.74,6.45-8.52s1.7-.91,1.24,0S83.58,201,77.63,201C73.49,201,70.84,195.5,70.84,189.87Z" transform="translate(122.03 87.46)"/><path class="cls-2" d="M109.22,186.36c-.21.95-4.26,15.17-7.77,16.42a1.43,1.43,0,0,1-.67.12c-3.88,0-4.83-8.06-5.12-8.06s-1.91,6.28-5.17,6.28-5.92-2.19-5.92-7.94c0-5.42,3-14.26,9.1-14.26,4.26,0,7.28,0,7.28,6,0,.58-1.49,1.08-1.49.17s-.29-4.3-1.82-4.3c-4,0-7.65,7.36-7.65,15,0,1.53.17,4,1.41,4s3.84-8.64,3.84-10.8c0-.82,0-2.31,2.48-2.31s3.56,1.16,3.56,2v.66c.12,2.81-.12,10.75,1.24,10.75.87,0,5.42-13.07,5.71-14S109.43,185.33,109.22,186.36Z" transform="translate(122.03 87.46)"/><path class="cls-2" d="M76.15,70.06A15.23,15.23,0,0,0,64.42,59.89L49.88,57.25V56.12a22.1,22.1,0,0,0,6.49-5.76h4.39a6.54,6.54,0,0,0,6.53-6.53V17.72a28.29,28.29,0,0,0-56.58,0V33a8.72,8.72,0,0,0,6.94,8.52A21.8,21.8,0,0,0,28.12,56.12v1.13L13.57,59.89A15.23,15.23,0,0,0,1.85,70.06L1,72.67l-7.41-7.41a2.18,2.18,0,0,1,0-3.08l8.59-8.59L-14,37.46l-9.72,9.71a15.16,15.16,0,0,0-4.46,10.77,15.16,15.16,0,0,0,4.46,10.77L5.72,98.12a15.25,15.25,0,0,0,21.48.07l10.6-9.72-3.31-3.29h46.7ZM62.94,43.83A2.19,2.19,0,0,1,60.76,46H58.93a21.79,21.79,0,0,0,1.42-4.54,8.46,8.46,0,0,0,2.59-1ZM60.76,36.7V29.2a4.32,4.32,0,0,1,0,7.5Zm-43.52,0a4.32,4.32,0,0,1,0-7.5Zm0-14.63v2.48a9.1,9.1,0,0,0-2.18.9V17.72a23.94,23.94,0,0,1,47.88,0v7.73a8.71,8.71,0,0,0-2.18-.9V22.07H58.58a23.93,23.93,0,0,1-17-7.06L39,12.46,36.45,15a23.94,23.94,0,0,1-17,7.06ZM21.59,37.3v-11A28.18,28.18,0,0,0,39,18.6a28.18,28.18,0,0,0,17.41,7.74v11A17.31,17.31,0,0,1,54.05,46H39v4.35H50.48A17.39,17.39,0,0,1,21.59,37.3ZM45.53,58.06v.1L39,64.69l-6.53-6.53v-.1a21.82,21.82,0,0,0,13.06,0ZM-14,43.61l10,10L-6.36,56l-10-10ZM24.18,95.05A10.88,10.88,0,0,1,8.8,95l-29.41-29.4a10.81,10.81,0,0,1-3.19-7.7,10.79,10.79,0,0,1,3.19-7.69l1.19-1.2,10,10-.07.08a6.52,6.52,0,0,0,0,9.23L6.09,84a6.53,6.53,0,0,0,9.16.07l.16-.14,10,10ZM28.65,91l-10-10,2.88-2.59,10,10Zm1.49-10.14-8.48-8.47-9.41,8.52a2.24,2.24,0,0,1-3.08,0L4.42,76.11,6,71.44a10.86,10.86,0,0,1,8.37-7.27l15.21-2.76L39,70.84l9.43-9.43,15.21,2.76A10.91,10.91,0,0,1,72,71.44l3.13,9.38Z" transform="translate(122.03 87.46)"/><path class="cls-2" d="M99.93-32.33H69.46a6.53,6.53,0,0,0-6.52,6.52V-8.4a6.54,6.54,0,0,0,6.52,6.53h5.82L73,11.26,94-1.87h5.9a6.54,6.54,0,0,0,6.53-6.53V-25.81A6.54,6.54,0,0,0,99.93-32.33ZM102.11-8.4a2.19,2.19,0,0,1-2.18,2.18H92.78L79,2.42l1.48-8.64h-11A2.18,2.18,0,0,1,67.29-8.4V-25.81A2.18,2.18,0,0,1,69.46-28H99.93a2.18,2.18,0,0,1,2.18,2.17Z" transform="translate(122.03 87.46)"/><rect class="cls-2" x="193.67" y="63.83" width="26.11" height="4.35"/><rect class="cls-2" x="193.67" y="72.53" width="17.41" height="4.35"/><rect class="cls-2" x="215.44" y="72.53" width="4.35" height="4.35"/><path class="cls-2" d="M-8.49,20.53l-.77-1.28a1.42,1.42,0,0,0-2-.49l-4.67,2.8A56.61,56.61,0,0,1,55.76-18.93l1.29-4.16A60.93,60.93,0,0,0-20.29,21.3l-3.39-5.65a1.42,1.42,0,0,0-2-.49l-1.28.77a1.42,1.42,0,0,0-.49,2l6.18,10.29a1.42,1.42,0,0,0,2,.49L-9,22.49A1.42,1.42,0,0,0-8.49,20.53Z" transform="translate(122.03 87.46)"/><path class="cls-2" d="M85.9,21.48l1.95,1.17a1,1,0,0,0,1.42-.35l3.28-5.46A56.62,56.62,0,0,1,83,70.75l3.38,2.74A61.09,61.09,0,0,0,99.93,35.13a60.64,60.64,0,0,0-3.16-19.38l5.5,3.3a1,1,0,0,0,1.42-.36l1.18-2a1,1,0,0,0-.36-1.42l-11-6.59a1,1,0,0,0-1.42.36l-6.58,11A1,1,0,0,0,85.9,21.48Z" transform="translate(122.03 87.46)"/><path class="cls-2" d="M180.38-10.3l1.5,2.45c1,1.71,2.23,3.49,3.28,5.41A25.78,25.78,0,0,0,182.91-8c-.49-1-1-2-1.58-3s-1.18-1.95-1.74-2.9L176-18.11c.06.88,1.23,2.91,3,5.64C179.4-11.79,179.91-11.08,180.38-10.3Z" transform="translate(122.03 87.46)"/><path class="cls-2" d="M-110.5,136.57c-.46-1.06-.91-2.11-1.27-3l-1.78-3.71c-.56-1.23-1.06-2.48-1.61-3.79-.53-1.48-1.08-3-1.58-4.44l-1.38-4.5a5.69,5.69,0,0,0-1.44-1c-.49-1.36-.85-2.68-1.22-4s-.73-2.63-1.11-4a24.66,24.66,0,0,0,.08,5.77c.45,1.83,1.07,3.61,1.6,5.42s1.07,3.62,1.75,5.38l1.87,3.58,1,1.81,1,1.71c.87,2,1.72,3.88,2.56,5.79l2.83,5.65c.43.06,1,.39,1.44.45.28-.51-.34-2.12-1.24-4.06Z" transform="translate(122.03 87.46)"/><path class="cls-2" d="M-65.31,197.45c-2.21-1.65-5.09-4-8.85-6.87l-3.93-3.81c-1.88-1.78-2.9-2.33-7.19-6.6l-.75.8c1.55,2.6,4.86,5.87,7.58,8.52,1.51.92,3.14,2.1,4.7,2.92.89,1,1.84,2,2.82,3.06s2,2.15,3.05,3.15c1.45,1,3.12,2.13,4.58,3a7.25,7.25,0,0,1,2-.41A16.93,16.93,0,0,0-65.31,197.45Z" transform="translate(122.03 87.46)"/><path class="cls-2" d="M203,62.76c-.15-1.68-.22-3.38-.46-5l-.52-4.24c-.17-1.39-.36-2.77-.64-4.22-.62-3.18-1.18-6.35-2-9.47-.28-1.3-.55-2.57-.83-3.83s-.64-2.5-1-3.75c-.67-2.48-1.28-5-2.14-7.46-.22-1.5-.43-3-.7-4.47a26.3,26.3,0,0,0-.15-4.78,28.09,28.09,0,0,0-1.16-5.37l-2.76-6.61c-1.83-2.38-1.74,0-.91,5.18-.42.06-.81.26-.87,1.11a18.61,18.61,0,0,0,.93,5c-1-2.72-2.12-3.77-3.35-6.05-.33.5-2.52-2.83-1.19,2.24a5.31,5.31,0,0,1-1.36-.88c-1.89-3.79-2.22-2-1.55.81.31,1.41.64,2.8.9,4.18s.44,2.74.61,4l-.16.07c-.46.21-1,.45-.49,3.23l-.59.26c-.72-.59-1.21-.14-1,1.85S183,30.09,185,35.79c0,.85.07,1.76.1,2.66s0,1.82,0,2.67c-1.42-2.23-1.82,0-1.92,3.34,0,1.66-.12,3.63-.18,5.48a35.47,35.47,0,0,1-.37,4.81c.52,2,1,6.7,1.58,4.75.56,1,.34,3.38.54,4.94.43,3.66-.13,6.33-.7,5.34a3.25,3.25,0,0,1-.8,2,3.48,3.48,0,0,0-.4,1.3c-.1.65-.12,1.59-.17,3a30.44,30.44,0,0,0-.43,4c0,.62,0,1.21,0,1.75s0,1,0,1.47c.11,1.74.54,2.53,1.25,1.37,0,1.18.09,2.5.15,3.91s0,2.92-.07,4.46a46.74,46.74,0,0,1-1.12,9.14c-.36,2-1.12,4.57-1.94,7.74-1,3.12-2,6.8-3.6,10.69a151.23,151.23,0,0,1-12.19,25,170.41,170.41,0,0,1-16.06,22.15l-3.76,4.32c-1.23,1.31-2.38,2.53-3.41,3.67L140,177.39l-1.35,1.41c-.84.89-1.54,1.68-2.09,2.35L134.78,183l-1.88,1.73-3.77,3.47c-1.29.17-1.76,0-5,3.83a53.18,53.18,0,0,0-6.37,4.25c-1.53,1.24-2.49,2.15-2.53,2.77a15.34,15.34,0,0,1-3.3,1.75c.33-.66-.21-.52-1.15,0s-2.33,1.24-3.6,1.94c-.79.59-1.69,1.21-2.67,1.85s-2.08,1.19-3.21,1.8l-3.51,1.82c-1.2.59-2.45,1.1-3.67,1.65l-3.58,1.58-3.35,1.34c-2.1.87-3.87,1.72-5.11,2.36-8.91,2.73-18.24,5.3-27.66,5.66-7.88,2-15.7,1.94-23.56,1.31-2-.2-4-.32-5.95-.59s-4-.53-6-.76-4.1-.62-6.21-.87-4.25-.63-6.47-.85c.09.44-1.14.52-2.88.22s-4-.83-6.12-1.35a9.35,9.35,0,0,0-3.63-2.06c-1.57-.56-3.46-1-5.46-1.64a49.33,49.33,0,0,1-12.37-4.78c-5.46-2.94-13-6.68-20.42-11.35s-14.62-10.25-19.43-15.9c-1.37-1-2.77-2.66-4.16-4a16.53,16.53,0,0,0-3.52-2.89c-1.83-2.31-4-4.91-6.32-8L-80,165c-.63-.78-1.21-1.63-1.86-2.47l-2-2.58c-.35-.43-.69-.87-1-1.32l-1-1.38c-.09-.62,0-1-.07-1.65-.9-1.63-1.92-3.26-2.78-5s-1.73-3.43-2.57-5.08c-1.32-2.25-2.39-4.36-3.65-6.64-.39-.68-.72-1.4-1.17-2.33-1.27-2.59-.78-3.16-2.32-5.87-1-1.8-2-3.34-3.2-5.39-.37-1-.69-2.28-1.06-3.54a16.05,16.05,0,0,0-1-5.11c-.58-2.07-1.55-4.42-2.44-7-2.49-5-2.29-11-3.74-15.74,0-2.15-.1-4.27,0-6.4a18.11,18.11,0,0,0,0-4.18c-.15-1.59-.2-3.28-.25-4.71a19.83,19.83,0,0,0-1,2.75l-.28-4.1-.13-2,0-2.06-.07-4.13c0-1.37.07-2.74.1-4.12.76,1.41,1-.5,1.25-3.19a53.64,53.64,0,0,1,1.14-8c.57-2.56,1.31-6.65.69-7.49.17-1.15.36-2.37.55-3.62s.38-2.54.69-3.81c1.32-5.06,2.84-10.33,4.64-12.82,2.74-6.76.91-4.57,1.93-8.61,1.64-4.93,2.12-2.32,4.08-7.93C-93.88.73-88.69-6.21-83-12.7c-.36,1.28-2.22,3.77-2.88,5.47.22.26.71-.17,1.36-1s1.44-2.11,2.41-3.42l2.91-4.11a30.48,30.48,0,0,1,2.72-3.13c3.57-4.84,7.86-8.64,12.09-12.53,1.09-.95,2.2-1.87,3.29-2.85s2.14-2,3.28-3c2.25-2,4.4-4.18,6.71-6.48l3.26-1.9c1.08-.59,2.19-1.14,3.34-1.74s2.14-1.29,3.15-1.95l3.16-1.92c-.11-.14-.24-.33-.65-.89a35.88,35.88,0,0,1,11-5.62c-2,1.41-1.7,1.72-.52,1.29A33.75,33.75,0,0,0-23-58.86a24.7,24.7,0,0,0-2.83.14c1.27-.73,2.6-1.48,3.95-2.11s2.7-1.13,3.91-1.56c2.4-.91,4.36-1.22,4.94-.85a18.67,18.67,0,0,0,4.22-1.35l3.89-1.62c1.38-.28,2.71-.64,3.94-.81s2.32-.33,3.19-.39c1.35-.09,2.12,0,2,.58q-.7.14-1.41.3c-1.59.36-3.2.67-4.66,1.06l-3.86,1.11c-1.08.32-1.9.58-2.34.75s-.49.28,0,.21c2.34.08,6.8-1.52,11.22-2.56a44.56,44.56,0,0,1,6.16-1.27c1.8-.24,3.21-.32,3.94.06a15.53,15.53,0,0,0,4.34-.77,12,12,0,0,1,4-.78c2.36.51,9.47-.61,14.48-.39a12.72,12.72,0,0,0,3.39.58c1.46.17,3.16.33,4.81.47.83.07,1.65.12,2.42.23s1.49.24,2.13.36a6.28,6.28,0,0,1,2.61.9c1.62.07,3.16.31,4.64.5s2.9.37,4.25.66l3.94.85,1.88.43,1.83.53c2.42.7,4.77,1.36,7.11,2.23l3.58,1.21,3.68,1.41A56.09,56.09,0,0,1,88.68-56c2,.9,3.79,2,5.6,3,.91.52,1.83,1,2.74,1.55l2.78,1.7c1,.58,2,1.12,3,1.75s2.07,1.28,3.19,1.94c-.58.09-.94.25-1.53.39l2.82,2.1,2.7,2.28c1,.61,1.53,1.16,2.5,1.86a25.85,25.85,0,0,0,5.06,3.1c4.59,3.81,6.45,4.5,6.21,3.19-1.47-1.67-3.07-3.6-4.78-5.44,1.79,1.25,1.66.12,4.33,2.28.4-.15,1-.15,1.4-.3,1.66.64,3.06,1.22,4.67,2,.91.43,8.35,7,14.61,14.36,1.55,1.85,3.16,3.64,4.48,5.46l2,2.56c.64.81,1.22,1.58,1.72,2.33a37.15,37.15,0,0,0,3.65,4.83c-1.1-1.69-2.16-3.41-3.23-5.13a22.59,22.59,0,0,0-1.2-2.56,15.09,15.09,0,0,0-1.91-2.71c-1.13-2-2.58-4.16-3.85-6.11-1.79-2.31-3.85-4.12-5.31-5.7s-2.59-2.7-2.69-3.56l-2.71-2.7c-.93-1-2-1.85-3-2.83s-2.1-2-3.23-3l-3.45-2.93c-1.13-1-2.34-2-3.55-2.88L118.05-48l-3.58-2.6c-1.16-.86-2.29-1.7-3.43-2.44.83.05-2-1.29-3-2a39,39,0,0,0-4.51-2.83l-2.72-1.52c-1-.49-1.94-.94-2.92-1.42-2-.94-3.94-1.91-5.83-2.67s-3.57-1.61-5-2.22l-4.75-1.73c-1.57-.61-3.21-1-4.81-1.56s-3.17-1.28-4.68-1.75c-1.66-1-5.51-1.6-7.28-2.29-1.66-.35-3.25-.73-4.86-1l-4.91-.8a135.2,135.2,0,0,0-30.22-2.4c-2.76.3-5.52.51-8.27.88l-4.1.61-2.06.31L9-75l-4.32.66c-1.45.2-2.87.55-4.31.83l-1.28.32c-.16-.24-.66-.28-1.36-.2-.35,0-.76.11-1.19.19s-.88.24-1.35.38a30.68,30.68,0,0,1-5.09,1.29c-2.29.7-5,1.6-7.84,2.39-2.76,1-5.61,1.82-8.06,2.64-8.45,4-15.26,7.77-21.18,10.23-1.85,1.14-3.69,2.29-5.51,3.48l-5.84,4c-2,1.37-3.81,2.88-5.68,4.27-1.07.64-2,1.25-2.91,1.85l-2.73,1.8-1,.93a8.2,8.2,0,0,1-.65-2.4l3.45-3c1.15-1,2.37-1.93,3.55-2.91s2.36-2,3.62-3l3.76-2.84,2.38-1.18c.8-.36,1.62-.74,2.5-1.21s1.83-1,2.93-1.72l1.75-1.16c.65-.4,1.34-.84,2.08-1.34.45-.76.89-1.56,1.33-2.37,2.36-1.47,4.57-2.63,6.81-3.89,1.13-.61,2.23-1.3,3.45-1.9l3.85-1.94c.63-.56,1.28-1.12,2.17-1.8,3.61-1.5,7.18-3.11,11.15-4.45,1.47-.14,2.67-.2,4.13-.31.17.42,4.21-.62,4.38-.19l3-1,3.27-1c0,.53,1.34.33,3.1-.15s4-1.08,5.85-1.62c2.69-.59,5.15-.9,7.87-1.31L15-83.58c2.05-.35,5.08-.65,8.22-1,1.56-.19,3.17-.23,4.69-.27s3-.06,4.22,0a62.26,62.26,0,0,0,7.49.16c2.69.07,5.11.23,5.81.69,2.21,0,4.4.27,6.6.42,1.1.09,2.2.14,3.3.26l3.28.39c1.53.26,3,.47,4.5.8l4.22,1c2.73.6,5.19,1.47,7.41,2.09s4.15,1.29,5.77,1.68a12,12,0,0,0,3.87.51c-.38-.8-3.19-1.88-6.35-3-1.59-.56-3.29-1-4.81-1.47s-2.88-.94-3.82-1.28c-3.56-.68-7.11-1.41-10.71-1.85a111.28,111.28,0,0,0-32.2-2.78,4.83,4.83,0,0,0-1.73-.25c-.82,0-1.87.11-3.08.25s-2.57.33-4,.55-3,.6-4.59.91a2.94,2.94,0,0,0-2-.4c-.5,0-1.09.07-1.73.14s-1.34.25-2.08.41c-1.49.32-3.15.73-4.86,1.16s-3.46,1-5.15,1.5l-2.74.69c-1.53.31-3.11.7-4.71,1.06s-3.22.7-4.72,1.16l-3.84,1.27c-1.29.43-2.57.85-3.82,1.36l-3.78,1.47c-1.26.48-2.52,1-3.75,1.55-2.09.91-4.19,1.79-6.26,2.75l-6.12,3.08c-1.4.7-2.79,1.57-4.21,2.38s-2.85,1.63-4.18,2.45l-6.38,4.1-6.17,4.41A166.51,166.51,0,0,0-84-36.85l-3.77,4-3.57,4.16a24.93,24.93,0,0,0-1.87,2c-.63.83-1.31,1.77-2,2.82s-1.49,2.22-2.31,3.47L-100-16.19l-1.7,2.55c-.53.89-1.07,1.78-1.61,2.67s-1.07,1.79-1.6,2.68-1.06,1.77-1.51,2.66c-.15.87-.29,1.75-.51,2.89L-108.39.34c-.46,1-.88,2.11-1.31,3.15a10.76,10.76,0,0,0,.13,1.26,23.6,23.6,0,0,0,.09,3,61.34,61.34,0,0,0,3.36-6.14c1.08-2,2.09-4.24,3.41-7.18.85-1.46,1.84-3.18,2.68-4.64.56-.66,1.07-1.36,1.82-2.23-.92,1.73-1,2.7-.66,2.83s1.25-.52,2.63-1.83a19.19,19.19,0,0,0,.34,3.24,76.77,76.77,0,0,0-7.31,13.61c-2.05,4.69-3.83,9.32-5.91,13.43-.63,1.95-1.43,4-2,6a34.62,34.62,0,0,0-1.19,5.57c-.52,1.56-1,3.42-1.44,5a149.29,149.29,0,0,0-4.43,33.86l-1.33.1c-.41.72-.47,3-.39,6,.1,1.54.27,3.29.44,5.16.1.94.16,1.91.29,2.9s.27,2,.42,3c.41.48.8.69,1.22,1.16,0,.9.1,1.77.16,2.64s.18,1.72.27,2.58c.18,1.72.35,3.43.54,5.22a9.4,9.4,0,0,1-.13,1.45l-.22.07c-.4,3.54,1.63,10.45,4.44,19.43.46,1.74,1.12,3.42,1.67,5.1s1.07,3.35,1.73,4.88c.76,2.09,1.52,4.26,2.32,6.38s1.73,4.16,2.54,6.1c.75,1.65,1.65,3.23,2.46,4.85s1.62,3.24,2.56,4.8A28,28,0,0,0-97,155.91c.94,1.69,2.07,3.29,2.78,4.69.92,1.32,1.76,2.67,2.73,3.92s1.9,2.5,2.84,3.74l1.42,1.86,1.49,1.77,3,3.54c1.17,1.6,2.28,2.89,3.51,4.44.71.68,1.4,1.37,2.62,2.63s3,3.08,5.81,6.05c2.53,2.24,5.31,4.09,7,6l4.41,3.23,4.55,3a31.85,31.85,0,0,0,5.19,4.65,55.17,55.17,0,0,0,6.82,4.46c1.14.22,2.46.67,3.89.91l6,3.07,6.08,2.92c2.05.92,4.14,1.75,6.21,2.62,1.5.85,1.85,1.21,2.05,1.53s.28.58,1.32,1.1a44.52,44.52,0,0,0,12,2.86,162.24,162.24,0,0,0,19.88,3.74c1.65.39,3.32.77,5.29,1.1a20.53,20.53,0,0,0,5.9,1,52.91,52.91,0,0,0,7.57-.42l6.77.18c2.26,0,4.53-.08,6.79-.12a17.08,17.08,0,0,0,8.38.33c2.29-.09,3-.67,5.13-1.61A148.16,148.16,0,0,0,84,223.44c2.72-.78,5.07-1.74,7.74-2.67.78-.3,1.6-.54,2.63-1,.54.45,2.13,0,3.93-.68.9-.33,1.86-.72,2.76-1.07s1.72-.75,2.4-1c.33-.56.42-1,.72-1.56l3.39-1.63c1.13-.52,2.19-1.16,3.28-1.73,2.15-1.19,4.36-2.29,6.5-3.65l.65.89c6.73-4.18,5.87-2.52,12.41-6.23l.3.35a24.46,24.46,0,0,0-1.25,3c-4.23,3.05-.69,1.92-1.05,2.83l3.93-2.79c1.3-.94,2.53-2,3.81-3,1.1-.85,2.23-1.7,3.36-2.56l3.28-2.74,3.26-2.76,3.09-2.87c.13-1.06.29-2.09.4-3.13l1.07-1,4.2-3.83c.7-.64,1.42-1.27,2.1-1.93l2-2c.88-1,1.9-2.2,2.88-3.32a21.56,21.56,0,0,1,2.56-2.77l2.68-3.38c.87-1.13,1.67-2.29,2.49-3.43l2.44-3.39c.75-1.17,1.5-2.33,2.26-3.49.53-.82,1.52-2.19,2.7-4.08s2.63-4.22,4.16-6.93,3.22-5.73,4.75-9c.78-1.65,1.64-3.31,2.39-5l2.24-5.27a163,163,0,0,0,6.8-20.52c.86-3,1.41-5.76,1.88-8,.23-1.1.44-2.08.61-2.91s.26-1.51.34-2c.55-3.18,1.13-6.37,1.42-9.59l.48-2.86c.17-1,.32-1.9.42-2.86l.7-5.76c.16-2.66.19-5.63.24-8.29C203.31,66.15,203.15,64.45,203,62.76Zm-15-3.21c.06.59.09,1.19.12,1.79,0-.73-.1-1.49-.19-2.26s-.16-1.57-.21-2.37Zm.14,2.12c0,.23,0,.45,0,.67C188.16,62.12,188.15,61.9,188.13,61.67Zm7.49-9.58c0-.55,0-1.13,0-1.72a6.29,6.29,0,0,1,0,1.72c-.31.64-.64,1-.94,1.62C195,52.8,195.18,51.89,195.62,52.09Zm-12.5,56.46c-.22.84-.47,1.74-.8,2.71C182.6,110.36,182.86,109.46,183.12,108.55ZM-90.52-23.34c.37-.54.77-1.06,1.18-1.58C-90-24-90.74-23-91.45-22Zm8,.72a45.42,45.42,0,0,0-2.69,4c.33-.58.65-1.17,1-1.75s.75-1.15,1.16-1.74a43.66,43.66,0,0,1,2.88-3.75l.82-.56q-.48.46-1,1C-81-24.64-81.72-23.72-82.53-22.62ZM6.89-67.35l.54-.19c2-.32,4.63-1.17,6-.91C15.08-68.59,11.55-68.2,6.89-67.35ZM151.37,175.36c.42-.28.82-.54,1.21-.76A4.31,4.31,0,0,1,151.37,175.36Z" transform="translate(122.03 87.46)"/></svg>