<svg xmlns="http://www.w3.org/2000/svg" viewBox="0 0 325.39 318.58"><defs><style>.cls-1{isolation:isolate;}.cls-2{fill:#fff;}.cls-3{mix-blend-mode:multiply;}.cls-4{fill:#006837;}</style></defs><title>circulo rutas</title><g class="cls-1"><g id="Capa_1" data-name="Capa 1"><circle class="cls-2" cx="158.7" cy="163.93" r="153.5"/><g class="cls-3"><path class="cls-4" d="M312,91.09l1.5,2.45c1,1.71,2.22,3.49,3.28,5.41a26.31,26.31,0,0,0-2.25-5.52c-.5-1-1-2-1.58-3s-1.18-2-1.75-2.9l-3.61-4.24c.06.89,1.22,2.92,3,5.64C311,89.6,311.5,90.31,312,91.09Z" transform="translate(-9.56 -13.94)"/><path class="cls-4" d="M21.09,238c-.45-1.06-.9-2.11-1.27-3l-1.77-3.71c-.57-1.23-1.06-2.48-1.62-3.79-.52-1.48-1.08-2.95-1.58-4.44l-1.38-4.5a5.36,5.36,0,0,0-1.44-1c-.49-1.36-.85-2.67-1.22-4s-.73-2.63-1.11-4a25.21,25.21,0,0,0,.08,5.77c.45,1.83,1.07,3.62,1.6,5.43s1.08,3.61,1.75,5.38c.61,1.15,1.24,2.36,1.88,3.58.32.6.63,1.2.94,1.8s.69,1.16,1,1.72L19.52,239c.93,1.86,1.87,3.72,2.83,5.65.44.06,1,.39,1.44.46.29-.52-.33-2.13-1.23-4.07Z" transform="translate(-9.56 -13.94)"/><path class="cls-4" d="M66.29,298.84c-2.22-1.65-5.1-4-8.86-6.87l-3.92-3.8c-1.88-1.78-2.91-2.34-7.2-6.61l-.75.81c1.56,2.59,4.87,5.86,7.59,8.51,1.5.92,3.14,2.11,4.69,2.93l2.82,3.06c1,1.06,2,2.14,3.06,3.14,1.44,1,3.11,2.13,4.58,3.05a7.57,7.57,0,0,1,2-.41A17,17,0,0,0,66.29,298.84Z" transform="translate(-9.56 -13.94)"/><path class="cls-4" d="M334.63,164.16c-.14-1.69-.21-3.38-.45-5l-.52-4.24c-.18-1.38-.36-2.77-.65-4.21-.62-3.18-1.17-6.36-2-9.48-.28-1.29-.56-2.57-.83-3.83s-.64-2.5-1-3.74c-.66-2.48-1.28-5-2.14-7.47-.21-1.49-.43-3-.69-4.47a26.36,26.36,0,0,0-.16-4.78,27.76,27.76,0,0,0-1.15-5.36c-.92-2.21-1.84-4.41-2.77-6.62-1.83-2.38-1.74,0-.9,5.19-.43,0-.81.26-.88,1.11a19.06,19.06,0,0,0,.93,5c-1-2.71-2.11-3.77-3.34-6-.34.49-2.53-2.84-1.2,2.23a5.38,5.38,0,0,1-1.36-.88c-1.88-3.78-2.22-2-1.55.81.31,1.41.65,2.8.91,4.18s.44,2.75.61,4l-.17.08c-.46.21-1,.45-.49,3.23l-.59.25c-.72-.58-1.2-.13-1,1.86s1.3,5.45,3.35,11.15c0,.84.06,1.75.09,2.66s0,1.81,0,2.66c-1.43-2.22-1.82,0-1.92,3.34,0,1.66-.13,3.64-.19,5.48a37.7,37.7,0,0,1-.36,4.82c.52,2,.95,6.7,1.58,4.74.56,1,.34,3.39.53,5,.43,3.65-.12,6.33-.7,5.33a3.2,3.2,0,0,1-.79,2,3.52,3.52,0,0,0-.41,1.3c-.1.65-.12,1.6-.17,3a34.29,34.29,0,0,0-.43,4c0,.62,0,1.2,0,1.74a14,14,0,0,0,0,1.47c.1,1.74.54,2.54,1.24,1.37.05,1.18.1,2.5.15,3.92s0,2.91-.07,4.46a46.64,46.64,0,0,1-1.11,9.13c-.37,1.95-1.13,4.57-1.94,7.74-1,3.12-2.05,6.8-3.6,10.7a153.62,153.62,0,0,1-12.19,25,170.28,170.28,0,0,1-16.07,22.14l-3.75,4.32c-1.24,1.31-2.38,2.54-3.41,3.67l-1.46,1.63-1.35,1.42c-.84.89-1.55,1.67-2.1,2.35l-1.8,1.81-1.89,1.73-3.77,3.47c-1.28.17-1.75,0-5,3.83a55.53,55.53,0,0,0-6.38,4.25c-1.53,1.24-2.48,2.16-2.53,2.77a15.12,15.12,0,0,1-3.3,1.75c.34-.66-.21-.52-1.14,0s-2.33,1.24-3.61,1.94c-.79.6-1.69,1.21-2.67,1.85s-2.08,1.19-3.21,1.81l-3.5,1.81c-1.2.6-2.45,1.1-3.67,1.65l-3.58,1.58-3.36,1.35c-2.1.87-3.87,1.71-5.11,2.35-8.91,2.73-18.23,5.3-27.66,5.67-7.87,2-15.69,1.93-23.56,1.3-2-.2-4-.32-5.94-.59s-4-.53-6.05-.76-4.09-.62-6.21-.86-4.24-.63-6.46-.86c.08.44-1.15.52-2.89.22s-4-.83-6.11-1.35a9.47,9.47,0,0,0-3.63-2.06c-1.57-.55-3.46-1-5.46-1.63a49.43,49.43,0,0,1-12.38-4.79c-5.45-2.94-13-6.67-20.42-11.34s-14.61-10.26-19.42-15.91a56.54,56.54,0,0,1-4.16-4,17.24,17.24,0,0,0-3.52-2.9c-1.84-2.31-4-4.91-6.33-8l-1.82-2.3c-.64-.78-1.22-1.64-1.86-2.48l-2-2.57-1-1.32-1-1.39c-.08-.61,0-1-.07-1.64-.89-1.64-1.91-3.26-2.78-5l-2.56-5.08c-1.33-2.25-2.39-4.35-3.66-6.64-.39-.68-.71-1.39-1.16-2.33-1.27-2.58-.79-3.16-2.33-5.87-1.05-1.8-2-3.34-3.19-5.39-.38-1-.7-2.27-1.07-3.54a15.72,15.72,0,0,0-1-5.11c-.59-2.07-1.55-4.42-2.45-7-2.48-5-2.28-11-3.74-15.74,0-2.14-.1-4.27,0-6.4a18.11,18.11,0,0,0,0-4.18c-.16-1.59-.2-3.27-.25-4.71a20,20,0,0,0-1,2.76l-.28-4.11-.14-2,0-2.06L20,170.43c0-1.38.07-2.75.1-4.13.76,1.41,1-.49,1.24-3.19a53.18,53.18,0,0,1,1.15-8c.56-2.57,1.31-6.66.68-7.49.18-1.16.36-2.38.56-3.63s.38-2.54.69-3.8c1.31-5.07,2.83-10.34,4.64-12.83,2.74-6.76.91-4.57,1.92-8.6,1.64-4.94,2.12-2.33,4.08-7.94,2.63-8.72,7.82-15.66,13.52-22.15-.37,1.28-2.23,3.78-2.88,5.47.21.26.7-.16,1.35-1s1.44-2.1,2.42-3.41l2.91-4.12a27.1,27.1,0,0,1,2.72-3.12C58.68,77.66,63,73.86,67.21,70c1.08-.94,2.2-1.87,3.28-2.85s2.14-2,3.29-3c2.25-2,4.4-4.18,6.71-6.48,1.12-.65,2.19-1.27,3.25-1.9s2.2-1.14,3.35-1.73,2.13-1.3,3.14-2l3.16-1.91-.64-.9a35.75,35.75,0,0,1,11-5.61c-2,1.4-1.71,1.71-.52,1.28a34.14,34.14,0,0,0,5.43-2.42,27.52,27.52,0,0,0-2.84.14c1.27-.72,2.61-1.48,3.95-2.11s2.7-1.13,3.91-1.56c2.41-.91,4.36-1.21,4.95-.84a19.39,19.39,0,0,0,4.22-1.36l3.89-1.61c1.38-.29,2.71-.64,3.94-.82S133,34,133.83,34c1.36-.08,2.12.06,2,.58l-1.42.3c-1.59.36-3.2.68-4.66,1.06L125.86,37c-1.07.32-1.9.58-2.34.75s-.48.28,0,.21c2.33.08,6.8-1.51,11.22-2.56a46.29,46.29,0,0,1,6.15-1.27c1.8-.23,3.22-.32,3.95.06a15.15,15.15,0,0,0,4.34-.77,11.74,11.74,0,0,1,4-.77c2.36.5,9.47-.62,14.48-.4a12.72,12.72,0,0,0,3.39.58c1.46.17,3.15.33,4.81.47.82.08,1.64.12,2.41.23s1.49.24,2.14.37a6.16,6.16,0,0,1,2.6.89c1.63.07,3.16.32,4.64.51s2.9.36,4.25.65l3.94.86,1.89.43,1.83.52c2.41.71,4.77,1.36,7.11,2.23l3.58,1.22,3.68,1.4a56.09,56.09,0,0,1,6.42,2.72c2,.9,3.78,2,5.6,3,.9.52,1.83,1,2.74,1.55l2.78,1.7c.95.58,1.95,1.13,3,1.75s2.06,1.28,3.18,1.94c-.58.09-.93.26-1.52.39l2.82,2.11,2.69,2.28a24.91,24.91,0,0,1,2.5,1.86A26.14,26.14,0,0,0,249.11,65c4.59,3.81,6.44,4.5,6.21,3.19-1.48-1.66-3.07-3.6-4.79-5.44,1.79,1.26,1.67.13,4.34,2.28.39-.15,1-.15,1.39-.29,1.67.63,3.06,1.21,4.68,2,.91.44,8.34,7,14.6,14.36,1.56,1.85,3.16,3.64,4.49,5.46l2,2.57c.64.8,1.23,1.58,1.73,2.32a36.83,36.83,0,0,0,3.64,4.83c-1.09-1.68-2.16-3.4-3.22-5.13a27.85,27.85,0,0,0-1.2-2.56A14.71,14.71,0,0,0,281,85.85c-1.12-2-2.57-4.15-3.84-6.11-1.8-2.31-3.86-4.12-5.32-5.7s-2.59-2.7-2.69-3.56c-.86-.85-1.76-1.76-2.7-2.7s-2-1.84-3-2.82-2.09-2-3.23-3l-3.44-2.92c-1.14-1-2.35-2-3.55-2.89l-3.57-2.82-3.58-2.6c-1.16-.86-2.3-1.7-3.44-2.44.83.06-1.94-1.28-3-2a39.14,39.14,0,0,0-4.52-2.84L232.36,42c-.94-.49-1.93-1-2.92-1.43-2-.94-3.93-1.91-5.82-2.67s-3.58-1.6-5-2.22L213.86,34c-1.58-.61-3.21-1-4.82-1.55a48.73,48.73,0,0,0-4.68-1.75c-1.66-1.05-5.51-1.61-7.27-2.29-1.66-.36-3.26-.73-4.86-1.05l-4.91-.79a134.13,134.13,0,0,0-30.22-2.4c-2.76.29-5.53.5-8.27.87l-4.11.62-2.05.3-2,.41L136.3,27c-1.45.21-2.87.56-4.3.83l-1.29.32c-.15-.24-.65-.28-1.36-.2-.35,0-.75.11-1.18.2l-1.36.37a30.39,30.39,0,0,1-5.09,1.3c-2.29.69-5,1.59-7.84,2.38-2.75,1-5.61,1.82-8.06,2.64-8.45,4-15.26,7.78-21.18,10.23-1.84,1.15-3.69,2.29-5.5,3.48s-3.88,2.64-5.84,4-3.81,2.87-5.68,4.26c-1.08.64-2,1.25-2.91,1.86L62,60.45l-1,.93a8.12,8.12,0,0,1-.64-2.4l3.45-3c1.14-1,2.37-1.93,3.54-2.9s2.37-2,3.63-3l3.75-2.85L77.09,46c.8-.36,1.61-.74,2.49-1.21s1.84-1,2.93-1.72l1.76-1.16c.64-.4,1.33-.84,2.07-1.33.46-.76.89-1.57,1.34-2.37,2.36-1.48,4.57-2.64,6.8-3.89,1.13-.61,2.24-1.3,3.46-1.9l3.84-1.95c.64-.56,1.28-1.12,2.18-1.8,3.61-1.5,7.17-3.11,11.15-4.45,1.47-.14,2.66-.2,4.12-.31.18.43,4.21-.61,4.38-.19l3-1,3.27-1c0,.54,1.35.34,3.1-.14s4-1.09,5.85-1.63c2.69-.59,5.16-.89,7.88-1.31-.07-.27-.14-.58-.2-.85,2.05-.34,5.09-.64,8.22-1,1.57-.18,3.17-.23,4.7-.27s3-.05,4.21,0a67,67,0,0,0,7.5.16c2.69.06,5.11.22,5.81.68,2.2,0,4.39.27,6.59.42,1.1.09,2.21.15,3.3.26l3.28.4c1.54.25,3,.46,4.5.8l4.22,1c2.73.61,5.19,1.47,7.42,2.09s4.14,1.29,5.77,1.69a12.59,12.59,0,0,0,3.86.51c-.37-.81-3.18-1.89-6.35-3-1.58-.56-3.29-1-4.81-1.47s-2.87-.94-3.81-1.28c-3.56-.67-7.11-1.41-10.71-1.85A111,111,0,0,0,158,14.19a4.35,4.35,0,0,0-1.72-.25c-.82,0-1.87.11-3.08.25s-2.58.33-4,.55-3,.59-4.59.91c-.29-.32-1-.43-2-.4a17.29,17.29,0,0,0-1.74.14c-.64.1-1.33.24-2.08.4-1.48.32-3.14.73-4.86,1.16s-3.45,1-5.15,1.5l-2.73.69c-1.53.31-3.12.7-4.72,1.06s-3.21.7-4.71,1.16l-3.85,1.28c-1.28.42-2.57.84-3.82,1.35l-3.77,1.47c-1.27.48-2.53,1-3.75,1.55-2.09.91-4.2,1.8-6.27,2.76L89,32.84c-1.41.7-2.79,1.58-4.22,2.38S82,36.85,80.62,37.68l-6.37,4.09-6.17,4.41a165.87,165.87,0,0,0-20.5,18.36l-3.76,4-3.58,4.15a25.23,25.23,0,0,0-1.86,2.06c-.64.82-1.31,1.77-2,2.82S34.85,79.76,34,81L31.61,85.2l-1.69,2.56c-.54.88-1.07,1.77-1.61,2.67L26.7,93.1c-.53.88-1.05,1.77-1.51,2.67-.14.87-.28,1.74-.51,2.88l-1.48,3.08c-.45,1-.87,2.11-1.3,3.16a10.82,10.82,0,0,0,.13,1.25,21.78,21.78,0,0,0,.09,3A66.84,66.84,0,0,0,25.48,103c1.08-2,2.08-4.25,3.41-7.19l2.68-4.64c.55-.65,1.06-1.35,1.81-2.22-.91,1.73-1,2.69-.65,2.82S34,91.27,35.35,90a18,18,0,0,0,.35,3.23,76.47,76.47,0,0,0-7.31,13.61c-2.06,4.69-3.83,9.33-5.91,13.44-.64,2-1.44,4-2,6a35.85,35.85,0,0,0-1.2,5.57c-.52,1.56-1,3.42-1.44,5a150.59,150.59,0,0,0-4.43,33.87l-1.32.1c-.41.72-.48,2.94-.4,6,.11,1.53.27,3.28.44,5.15.1.94.16,1.91.3,2.9s.27,2,.41,3c.42.49.8.69,1.22,1.16.06.9.11,1.78.16,2.64s.18,1.73.27,2.58c.18,1.72.36,3.44.54,5.22a8.52,8.52,0,0,1-.13,1.46l-.22.06c-.39,3.54,1.63,10.46,4.45,19.43.46,1.74,1.12,3.42,1.66,5.11s1.08,3.34,1.74,4.87c.75,2.09,1.52,4.26,2.31,6.39s1.74,4.15,2.54,6.09c.76,1.65,1.65,3.23,2.46,4.85s1.63,3.25,2.56,4.8a27.07,27.07,0,0,0,2.25,4.77c.93,1.69,2.07,3.29,2.77,4.7.93,1.31,1.76,2.67,2.74,3.91L43,269.66l1.41,1.85,1.49,1.78,3,3.53c1.17,1.6,2.27,2.89,3.5,4.45.71.68,1.41,1.36,2.63,2.62s3,3.08,5.81,6.05c2.53,2.25,5.3,4.1,7,6l4.41,3.23,4.54,3a32,32,0,0,0,5.2,4.66,56.94,56.94,0,0,0,6.81,4.45c1.14.22,2.47.68,3.89.92l6,3.07,6.09,2.91c2,.93,4.14,1.76,6.21,2.62,1.5.86,1.84,1.21,2,1.54s.28.57,1.31,1.1a44.92,44.92,0,0,0,12,2.85,163.66,163.66,0,0,0,19.87,3.75c1.66.38,3.33.76,5.29,1.1a21,21,0,0,0,5.9,1,51.7,51.7,0,0,0,7.58-.42l6.77.19c2.26,0,4.52-.09,6.79-.13a17,17,0,0,0,8.37.33c2.29-.09,3-.66,5.13-1.61a147.46,147.46,0,0,0,23.54-5.73c2.72-.77,5.07-1.74,7.73-2.67.79-.3,1.6-.54,2.64-1,.53.44,2.12,0,3.93-.68.9-.34,1.85-.72,2.75-1.08s1.72-.75,2.41-1c.32-.56.42-1,.72-1.56l3.39-1.62c1.12-.53,2.18-1.16,3.27-1.73,2.16-1.2,4.37-2.29,6.5-3.66.25.33.44.59.65.89,6.73-4.18,5.87-2.52,12.42-6.22l.3.35a22.38,22.38,0,0,0-1.25,3c-4.23,3-.69,1.91-1.06,2.82l3.93-2.79c1.3-.94,2.54-2,3.81-2.95l3.36-2.56,3.28-2.74,3.27-2.76,3.09-2.87c.13-1.06.29-2.09.4-3.13l1.06-1,4.21-3.82c.69-.65,1.41-1.28,2.09-1.94l2-2c.89-1,1.9-2.2,2.88-3.32A23,23,0,0,1,296,276l2.69-3.38c.87-1.13,1.66-2.29,2.49-3.42l2.43-3.4c.76-1.16,1.51-2.32,2.26-3.48.53-.83,1.53-2.2,2.7-4.09s2.63-4.22,4.16-6.93,3.23-5.73,4.75-9c.78-1.65,1.65-3.31,2.39-5.05s1.5-3.5,2.25-5.27a164.57,164.57,0,0,0,6.8-20.51c.85-3,1.4-5.77,1.87-8,.24-1.11.44-2.09.62-2.92s.25-1.51.34-2c.54-3.18,1.13-6.37,1.42-9.59l.47-2.85c.18-1,.32-1.91.43-2.87l.69-5.76c.16-2.65.2-5.62.25-8.29C334.9,167.54,334.75,165.85,334.63,164.16Zm-15-3.22c.05.6.09,1.2.12,1.79,0-.73-.11-1.48-.2-2.25s-.15-1.58-.21-2.38Zm.14,2.13c0,.22,0,.44,0,.67C319.75,163.52,319.74,163.3,319.73,163.07Zm7.48-9.59c0-.55,0-1.13,0-1.72a5.91,5.91,0,0,1,0,1.72c-.3.64-.64,1-.94,1.63C326.55,154.2,326.78,153.28,327.21,153.48Zm-12.49,56.46c-.22.84-.48,1.74-.81,2.72C314.19,211.76,314.45,210.85,314.72,209.94ZM41.08,78.05c.37-.54.77-1.06,1.17-1.57-.69.93-1.39,1.9-2.1,2.87Zm8,.73a47.42,47.42,0,0,0-2.69,4c.34-.58.66-1.17,1-1.74s.74-1.15,1.15-1.75a43.92,43.92,0,0,1,2.89-3.75c.26-.19.54-.37.81-.55-.32.31-.64.63-1,1C50.59,76.76,49.87,77.68,49.06,78.78ZM138.49,34a4,4,0,0,1,.53-.18c2-.33,4.63-1.18,6-.92C146.68,32.81,143.15,33.19,138.49,34ZM283,276.75l1.21-.76A4,4,0,0,1,283,276.75Z" transform="translate(-9.56 -13.94)"/></g><path class="cls-4" d="M161.94,168.93h-3.19a1.08,1.08,0,0,1-1.08-1.08V130.69H145.78a1.11,1.11,0,0,1-.66-.22l-6.23-4.75a1.08,1.08,0,0,1,0-1.69l6.23-5.09a1.09,1.09,0,0,1,.69-.24h11.89v-3.21H139.54a1.07,1.07,0,0,1-1.07-1.08v-9.83a1.07,1.07,0,0,1,1.07-1.08h18.13v-2.65a1.08,1.08,0,0,1,1.08-1.07h3.19a1.07,1.07,0,0,1,1.08,1.07v2.65h11.9a1,1,0,0,1,.68.24l6.23,5.09a1.08,1.08,0,0,1,.4.85,1.1,1.1,0,0,1-.42.84l-6.24,4.75a1.08,1.08,0,0,1-.65.22H163v3.21h18.13a1.08,1.08,0,0,1,1.08,1.08v9.83a1.08,1.08,0,0,1-1.08,1.08H163v37.16A1.08,1.08,0,0,1,161.94,168.93Zm-2.11-2.16h1V129.61a1.07,1.07,0,0,1,1.07-1.08h18.13v-7.68H161.94a1.07,1.07,0,0,1-1.07-1.07v-5.37a1.08,1.08,0,0,1,1.07-1.08h12.62l4.85-3.7-4.88-4H161.94a1.08,1.08,0,0,1-1.07-1.08v-2.65h-1v2.65a1.08,1.08,0,0,1-1.08,1.08H140.62v7.67h18.13a1.08,1.08,0,0,1,1.08,1.08v5.37a1.07,1.07,0,0,1-1.08,1.07H146.16l-4.88,4,4.86,3.7h12.61a1.08,1.08,0,0,1,1.08,1.08Z" transform="translate(-9.56 -13.94)"/><path class="cls-4" d="M172.26,214.78a1.69,1.69,0,0,1-.84-.23l-71-41a1.67,1.67,0,0,1-.84-1.44v-82a1.67,1.67,0,0,1,.84-1.45l71-41a1.71,1.71,0,0,1,1.67,0l71,41a1.66,1.66,0,0,1,.83,1.45v82a1.66,1.66,0,0,1-.83,1.44l-71,41A1.65,1.65,0,0,1,172.26,214.78Zm-69.38-43.65,69.38,40.05,69.38-40.05V91L172.26,51,102.88,91Z" transform="translate(-9.56 -13.94)"/><path class="cls-4" d="M172.26,207.22a1.29,1.29,0,0,1-.63-.17l-64.12-37a1.25,1.25,0,0,1-.63-1.08v-74a1.25,1.25,0,0,1,.63-1.08l64.12-37a1.22,1.22,0,0,1,1.25,0l64.13,37a1.26,1.26,0,0,1,.62,1.08v74A1.26,1.26,0,0,1,237,170l-64.13,37A1.26,1.26,0,0,1,172.26,207.22Zm-62.88-39,62.88,36.3,62.87-36.3V95.62l-62.87-36.3-62.88,36.3Z" transform="translate(-9.56 -13.94)"/><rect class="cls-4" x="102.57" y="152.45" width="42.95" height="1.46"/><rect class="cls-4" x="167.08" y="152.49" width="25.01" height="1.67"/><rect class="cls-4" x="134.23" y="146.99" width="11.65" height="1.46"/><rect class="cls-4" x="102.93" y="146.99" width="13.83" height="1.46"/><rect class="cls-4" x="195.42" y="152.49" width="25.01" height="1.67"/><path class="cls-4" d="M142.47,151.52a13.51,13.51,0,0,1,9.13-3.71c-4,2.17-5.9,6.07-8.12,9.72a21.24,21.24,0,0,1-3.23,4.39,7.1,7.1,0,0,1-10.36,0,21.39,21.39,0,0,1-3.41-4.66c-1-1.69-2-3.41-3.12-5a14.89,14.89,0,0,0-4.82-4.45,13.33,13.33,0,0,1,9.41,4c.2-2-1.3-7.22-4.1-14.16,3.88,2.14,5.87,5.67,7.91,9.45,1.3-5.48,2.25-10.8,3.35-16.08,1.08,5.29,2.08,10.57,3.37,16.16a30.73,30.73,0,0,1,3.24-5.41,12.83,12.83,0,0,1,4.71-4.09,43,43,0,0,0-4.2,13.56c0,.12,0,.23,0,.35Zm5.63-2.33a12.52,12.52,0,0,0-3.75,1.77c-3.24,1.85-2.79,5-2.92,8,2.38-3.15,4-6.81,6.79-9.65l0-.15Zm-19.16,10.49.22.19c.1-.13.06-.24,0-.35-.18-1.52-.33-3.05-.53-4.57a3,3,0,0,0-.4-1.64,12.35,12.35,0,0,0-5.48-4,.89.89,0,0,0-.86,0,25.22,25.22,0,0,1,4,5.3A53.52,53.52,0,0,0,128.94,159.68Zm5.95-23.92c-.8,3.92-1.59,7.84-2.44,11.75a3.06,3.06,0,0,0,.18,2c.77,1.84,1.51,3.7,2.26,5.55.23.54.33.27.46-.06.75-1.85,1.48-3.71,2.26-5.55a3.2,3.2,0,0,0,.13-2c-.57-2.54-1.09-5.09-1.65-7.63a14.8,14.8,0,0,0-.8-3.42l0-.62c0-.17.07-.43-.09-.45S134.9,135.56,134.89,135.76Zm9.16,4.66a15,15,0,0,0-1.12,1.14c-3.57,4.39-5.32,9.65-7.17,14.86a6.49,6.49,0,0,0-.22,1.59c0,.37-.09.71-.46.9a.94.94,0,0,1-.39-.83,10.05,10.05,0,0,0-.92-3.93c-.84-2.09-1.66-4.18-2.57-6.23a23.86,23.86,0,0,0-5.14-7.69l-.07,0,.09,0c-.19.29,0,.55.08.81a54.8,54.8,0,0,1,2.77,11c.37,2.39.59,4.81,1,7.21.42,2.64,3.06,4.55,5.14,4.17a5.07,5.07,0,0,0,5.37-4.63c.25-1.66.37-3.34.6-5a66.1,66.1,0,0,1,3.15-13.22l0-.15Z" transform="translate(-9.56 -13.94)"/><path class="cls-4" d="M228.47,152.67h-41.2a.4.4,0,0,1-.4-.4V134.82a.4.4,0,0,1,.4-.4h41.2a.4.4,0,0,1,.4.4v17.45A.4.4,0,0,1,228.47,152.67Zm-40.8-.8h40.4V135.22h-40.4Zm20.1-2.55a5.06,5.06,0,0,1-2.93-.89,5.45,5.45,0,0,1-2.23-6h0a5.44,5.44,0,0,1,10.4-.26,6.63,6.63,0,0,1,0,3.48.61.61,0,0,1,0,.12h0l-.08.14a6.81,6.81,0,0,1-1.9,2.4A5.54,5.54,0,0,1,207.77,149.32Zm-4.39-6.71a4.62,4.62,0,0,0,7.16,5,6.2,6.2,0,0,0,1.67-2.14l0-.06a.5.5,0,0,1,0-.13,5.65,5.65,0,0,0,0-2.92,4.77,4.77,0,0,0-4.57-3.16,4.64,4.64,0,0,0-4.3,3.38Z" transform="translate(-9.56 -13.94)"/><path class="cls-4" d="M228.46,134.16H187.29a.41.41,0,0,1-.38-.29v-.06a.3.3,0,0,1-.05-.19h0a1,1,0,0,1,0-.54v-1.51c0-.4,0-.81,0-1.22v-.48a.19.19,0,0,1,0-.08V123a.33.33,0,0,1,.05-.2V103.37a.39.39,0,0,1,.38-.39l.16,0,.5,0h4c3.77,0,7.54,0,11.3,0h0a1.23,1.23,0,0,1,1.3.87,3.45,3.45,0,0,0,3.4,2.24,3.53,3.53,0,0,0,3.26-2.39,1.12,1.12,0,0,1,.91-.69c5,0,10,0,15,0h1.11a.62.62,0,0,1,.26.06.53.53,0,0,1,.36.41v30.33A.4.4,0,0,1,228.46,134.16Zm-40.84-.81h40.44V103.76h-.93c-5,0-10,0-15,0a.7.7,0,0,0-.15.15,4.34,4.34,0,0,1-4,2.93,4.2,4.2,0,0,1-4.17-2.74c-.12-.3-.17-.37-.56-.37-3.77,0-7.54,0-11.31,0H187.7V123a.38.38,0,0,1,0,.19v6.72s0,.06,0,.09v.39c0,.4,0,.8,0,1.2v1.58a.35.35,0,0,1,0,.14A.2.2,0,0,0,187.62,133.35Zm10.6-2h-1.46l-.13,0H189.3a.4.4,0,0,1-.4-.41v-.12a.45.45,0,0,1,.12-.29l-.11-.63v-3.21a2,2,0,0,0,0-.32q0-6.12,0-12.25v-3.87h0c0-1.15.19-1.33,1.35-1.33h6.94c1.19,0,1.38.19,1.38,1.36v2c0,1.81,0,3.62,0,5.43,0,1.06,0,2.11,0,3.16,0,1.4,0,2.85,0,4.28,0,1.1,0,2.2,0,3.3V131A.4.4,0,0,1,198.22,131.35Zm-8.92-.55h0Zm7.59-.25h.93v-2.09c0-1.11,0-2.22,0-3.34,0-1.41,0-2.85,0-4.24,0-1.06,0-2.12,0-3.17,0-1.81,0-3.62,0-5.43v-2a3,3,0,0,0,0-.58,3.51,3.51,0,0,1-.55,0H190.3a4.06,4.06,0,0,0-.57,0,2.93,2.93,0,0,1,0,.51v3.87q0,6.12,0,12.25a1.53,1.53,0,0,1-.05.41l0,3.18.11.58h6.92A.31.31,0,0,1,196.89,130.55Zm29.34.77h-8.72a.4.4,0,0,1-.4-.38l0-.24c0-.16,0-.32,0-.48v-20c0-1.08.19-1.27,1.25-1.27h2.16c1.7,0,3.4,0,5.09,0a1,1,0,0,1,1.12,1.11v20.56a1.67,1.67,0,0,1,0,.29l0,.14A.4.4,0,0,1,226.23,131.32Zm-8.35-.8h8V110c0-.22,0-.27,0-.27s0,0-.27,0c-1.7,0-3.4,0-5.11,0h-2.59c0,.1,0,.3,0,.46v20C217.87,130.32,217.88,130.42,217.88,130.52Zm-3,.78h-14a.4.4,0,0,1-.4-.4v-8.44a.29.29,0,0,1-.07-.18v-.75a.36.36,0,0,1,.06-.2l0-.07a.35.35,0,0,1,0-.14v-3.83a.59.59,0,0,1,0-.13,1,1,0,0,0,0-.35c0-1.74,0-3.48,0-5.22v-1.2h0c0-1.16.34-1.49,1.48-1.49l3.66,0,8.55,0h0a1.19,1.19,0,0,1,.87.3,1.15,1.15,0,0,1,.29.88c0,.77,0,1.55,0,2.32V130.9A.39.39,0,0,1,214.84,131.3Zm-13.63-.8h13.23V112.36c0-.77,0-1.55,0-2.33a.56.56,0,0,0-.06-.31.5.5,0,0,0-.3-.06h0l-8.55,0-3.66,0c-.67,0-.67,0-.67.69v1.2c0,1.74,0,3.48,0,5.22a1.71,1.71,0,0,1-.06.54v3.7l.11.29a.37.37,0,0,1,0,.31.32.32,0,0,1-.1.13V122a.29.29,0,0,1,.07.18Z" transform="translate(-9.56 -13.94)"/><path class="cls-4" d="M212.4,102.78a.93.93,0,0,1-1-.88,3.59,3.59,0,0,0-3.61-3,3.69,3.69,0,0,0-3.5,3.1c0,.07,0,.14,0,.24l0,.21a.41.41,0,0,1-.4.35H186.93c-.53,0-.84,0-1.07-.24s-.23-.57-.22-1.07c0-.2,0-.4,0-.6a4.25,4.25,0,0,1,.45-2.41,3.55,3.55,0,0,1,2.85-1.89c.21,0,.41,0,.62,0h9.29q13.64,0,27.27,0h0a3.75,3.75,0,0,1,3.81,2.88h0a9,9,0,0,1,.08,2.49V102c0,.48-.81.75-1.13.75-2.29,0-4.58,0-6.87,0H212.4Zm-22.84-5.44a5,5,0,0,0-.55,0,2.74,2.74,0,0,0-2.23,1.5,3.51,3.51,0,0,0-.34,2c0,.21,0,.42,0,.63a2.69,2.69,0,0,0,0,.53s.26,0,.47,0h16.51s0-.09,0-.14a4.48,4.48,0,0,1,4.27-3.76h.09a4.37,4.37,0,0,1,4.33,3.73.65.65,0,0,0,0,.16h0a.57.57,0,0,0,.25,0H222c2.29,0,4.58,0,6.87,0a1.16,1.16,0,0,0,.34-.12,8.94,8.94,0,0,0-.07-2.26h0a2.93,2.93,0,0,0-3-2.25h0q-13.63,0-27.27,0Z" transform="translate(-9.56 -13.94)"/><path class="cls-4" d="M228.24,157.17H187.49c-1,0-1.25-.22-1.25-1.21,0-.23,0-.46,0-.69s0-.73,0-1.1a1.22,1.22,0,0,1,.32-1,1.18,1.18,0,0,1,.94-.24H228c1.23,0,1.45.22,1.45,1.45h0v.52c0,.36,0,.71,0,1.07a1.13,1.13,0,0,1-.26.91A1.25,1.25,0,0,1,228.24,157.17Zm-41-3.47a.31.31,0,0,0-.18,0s-.07.09-.06.39,0,.76,0,1.14c0,.22,0,.44,0,.67a1.94,1.94,0,0,0,0,.45,1.48,1.48,0,0,1,.42,0h24.6q8.07,0,16.14,0c.31,0,.37-.05.37-.06s.06-.06.05-.32,0-.75,0-1.12v-.51h0a2.8,2.8,0,0,0,0-.64H187.27Z" transform="translate(-9.56 -13.94)"/><path class="cls-4" d="M222.86,166a.36.36,0,0,1-.2-.06l-.16-.08a1.47,1.47,0,0,1-.51-.34.47.47,0,0,0-.41-.1.7.7,0,0,0-.45.13c-.12.16-.58.56-1,.4a1.06,1.06,0,0,1-.56-.88,21.65,21.65,0,0,1,0-2.42c0-.28,0-.34,0-.34s-.07-.07-.4-.07h0q-8.32,0-16.65,0h-6.36v1.82a6.41,6.41,0,0,1,0,1.07,1.09,1.09,0,0,1-.63.81c-.39.16-.83-.23-.95-.38a.61.61,0,0,0-.43-.16.58.58,0,0,0-.44.13,1.52,1.52,0,0,1-.5.32L193,166a.42.42,0,0,1-.31,0,.4.4,0,0,1-.24-.2l-.1-.17a1.4,1.4,0,0,1-.24-.64c0-.76,0-1.57,0-2.53a.51.51,0,0,0,0-.19s0,0-.13,0h0c-.77,0-1.59,0-2.52,0h-.12c-.38,0-1.25,0-1.25-1a1,1,0,0,1,.26-.74.88.88,0,0,1,.34-.21,1,1,0,0,1-.36-.23,1,1,0,0,1-.24-.75c0-1,1-1,1.32-1H192a.93.93,0,0,1,.2-.59,1.33,1.33,0,0,1,1.18-.32c.58,0,1.08,0,1.59,0h.68a.4.4,0,0,1,.4.37l0,.49h23.4a.91.91,0,0,1,.19-.55,1.41,1.41,0,0,1,1.21-.31c.55,0,1,0,1.52,0h.65a.41.41,0,0,1,.4.36l0,.55h3a1.06,1.06,0,0,1,1.12,1,1,1,0,0,1-.23.73,1.06,1.06,0,0,1-.43.29,1,1,0,0,1,.65.89.91.91,0,0,1-.23.72,1.34,1.34,0,0,1-1,.35h-.63c-.65,0-1.31,0-2,0a.8.8,0,0,0-.31,0h0a.65.65,0,0,0,0,.27c.05.87,0,1.74,0,2.48a1.2,1.2,0,0,1-.23.59,1.09,1.09,0,0,0-.08.15.41.41,0,0,1-.24.21Zm-28.8-1.38h.05a1.38,1.38,0,0,1,1,.45.45.45,0,0,0,.1.09.49.49,0,0,0,.07-.11,6,6,0,0,0,0-.95v-2.24a.4.4,0,0,1,.4-.4h6.76c5.54,0,11.1,0,16.65,0h0a1.27,1.27,0,0,1,1,.32,1.22,1.22,0,0,1,.25.94,20.07,20.07,0,0,0,0,2.33.22.22,0,0,0,0,.1l.1-.09a1.36,1.36,0,0,1,1-.42,1.29,1.29,0,0,1,1,.38l.1.07a.24.24,0,0,1,0-.07c0-.72.05-1.57,0-2.4a1.12,1.12,0,0,1,.25-.88,1.19,1.19,0,0,1,.91-.27c.64,0,1.28,0,1.93,0h.62c.32,0,.41-.08.42-.09a.19.19,0,0,0,0-.13c0-.09,0-.23-.48-.23-.82,0-1.7,0-2.85,0a.81.81,0,0,1-.52-.23l-.1-.07a.4.4,0,0,1-.19-.31.38.38,0,0,1,.14-.33l.09-.1a1.23,1.23,0,0,1,.45-.33h0a1.21,1.21,0,0,1,.56,0h.84c.58,0,1.16,0,1.74,0a.38.38,0,0,0,.29-.1s0,0,0-.13-.08-.26-.34-.25-.61,0-.91,0h-2.46a.4.4,0,0,1-.4-.36l-.05-.54h-.29c-.49,0-1,0-1.48,0a1.89,1.89,0,0,0-.63,0h0s0,.08,0,.35a.39.39,0,0,1-.08.34.4.4,0,0,1-.31.15h-24.2a.4.4,0,0,1-.4-.37l0-.49H195c-.51,0-1,0-1.53,0a1.86,1.86,0,0,0-.63,0h0a.88.88,0,0,0,0,.39.4.4,0,0,1-.39.49h-3.17c-.5,0-.51.07-.51.24s0,.15,0,.17.2.07.46.08c.9,0,1.79,0,2.69,0a.92.92,0,0,1,.76.31.93.93,0,0,1,0,.87.4.4,0,0,1-.37.25h-3a1.24,1.24,0,0,0-.53,0,.33.33,0,0,0,0,.18c0,.19,0,.22.46.22h.13c.91,0,1.72,0,2.48,0a1,1,0,0,1,.76.24,1,1,0,0,1,.24.77c0,.95,0,1.73,0,2.48a1.18,1.18,0,0,0,.06.13l.12-.07A1.33,1.33,0,0,1,194.06,164.63ZM204.28,161H196l-.21,0a.55.55,0,0,1-.39-.3.77.77,0,0,1,.85-1.1h9.26l13.88,0a1.09,1.09,0,0,1,.63.26l.15.09a.42.42,0,0,1,.2.35.38.38,0,0,1-.2.35l-.12.09a1.06,1.06,0,0,1-.6.25h0Z" transform="translate(-9.56 -13.94)"/><path class="cls-4" d="M217.72,96.24h-19.8a.4.4,0,0,1-.4-.4V93.15c0-1.77.18-2,2-2h3.6c4.62,0,9.25,0,13.88,0h0a1.21,1.21,0,0,1,.91.29,1.14,1.14,0,0,1,.25.87c0,.8,0,1.61,0,2.43v1.07A.4.4,0,0,1,217.72,96.24Zm-19.4-.8h19v-.66c0-.84,0-1.66,0-2.47a.57.57,0,0,0,0-.29.73.73,0,0,0-.33,0h0q-6.94,0-13.88,0h-3.6c-1.17,0-1.17,0-1.17,1.16Z" transform="translate(-9.56 -13.94)"/><path class="cls-4" d="M201.25,90.94h0a.4.4,0,0,1-.36-.26l-.09-.18a2.23,2.23,0,0,1-.2-.6c0-.26,0-.52,0-.79s0-.27,0-.4,0-.12,0-.18H199.2a.37.37,0,0,1-.31-.15l.31-.25-.35.21a.67.67,0,0,1-.16-.3c-.09-.73-.13-1.09.12-1.38s.64-.29,1.33-.29h16.39a.4.4,0,0,1,.4.41v1.36a.4.4,0,0,1-.4.4h-.42c-.32,0-.64,0-1,0H215a1.09,1.09,0,0,1,0,.13c0,.49,0,1,0,1.52a.81.81,0,0,1-.23.48l-.06.08a.42.42,0,0,1-.31.19.4.4,0,0,1-.34-.15l-.07-.08a.8.8,0,0,1-.29-.5c0-.54,0-1.07,0-1.57a.77.77,0,0,0,0-.1h-.13q-5.75,0-11.49,0l-.17,0s0,.06,0,.16a7.28,7.28,0,0,1,0,1.23,1.75,1.75,0,0,1-.22.58,1.42,1.42,0,0,0-.08.18A.42.42,0,0,1,201.25,90.94Zm12.34-3.21a1,1,0,0,1,.7.24l.08.1a.52.52,0,0,1,.1-.11.94.94,0,0,1,.73-.23c.3,0,.6,0,.9,0h0v-.56h-16a4.56,4.56,0,0,0-.76,0,3.29,3.29,0,0,1,.08.52h1.44a.4.4,0,0,1,.39.31s0,0,.05-.05a1,1,0,0,1,.74-.26h0q5.74,0,11.49,0Z" transform="translate(-9.56 -13.94)"/><path class="cls-4" d="M207.79,105.74a3.36,3.36,0,0,1-2.4-1.07,2.93,2.93,0,0,1-.84-2.24,3,3,0,0,1,.85-2.24,3.39,3.39,0,0,1,2.44-1h0a3.3,3.3,0,1,1,0,6.59h0Zm.05-5.79a2.59,2.59,0,0,0-1.86.79,2.29,2.29,0,0,0-.63,1.69,2.25,2.25,0,0,0,.62,1.7,2.55,2.55,0,0,0,1.82.81h0a2.5,2.5,0,1,0,.05-5Zm0,4.6a2.11,2.11,0,0,1-1.51-3.57,2.13,2.13,0,0,1,1.5-.59h0a2.14,2.14,0,0,1,2.14,2.07,2.23,2.23,0,0,1-2.14,2.09Zm0-3.36a1.34,1.34,0,0,0-.93.35,1.3,1.3,0,0,0,0,1.82,1.3,1.3,0,0,0,.92.39h0a1.44,1.44,0,0,0,1.34-1.3,1.34,1.34,0,0,0-1.35-1.26Z" transform="translate(-9.56 -13.94)"/><path class="cls-4" d="M207.83,148h0a4.14,4.14,0,0,1-2.91-1.25,4,4,0,0,1-1.19-2.9,4.13,4.13,0,0,1,1.33-3,3.86,3.86,0,0,1,2.79-1.06,3.78,3.78,0,0,1,2.81,1.12,4.1,4.1,0,0,1-2.82,7.11Zm-.16-7.43a3,3,0,0,0-2.08.85,3.36,3.36,0,0,0-1.07,2.43,3.23,3.23,0,0,0,1,2.34,3.34,3.34,0,0,0,2.34,1h0a3.3,3.3,0,0,0,2.27-5.73,3,3,0,0,0-2.26-.9Zm1.46,3.61a1.53,1.53,0,0,1-1.42-1.33,1.41,1.41,0,0,1,.36-1,1.52,1.52,0,0,1,1-.51h0a1.4,1.4,0,0,1,1,.38,1.48,1.48,0,0,1,.48,1,1.34,1.34,0,0,1-.39,1,1.45,1.45,0,0,1-1,.46Zm0-2a.67.67,0,0,0-.45.24.59.59,0,0,0-.16.4.71.71,0,0,0,.62.57h0a.6.6,0,0,0,.44-.2.59.59,0,0,0,.18-.41.73.73,0,0,0-.23-.43A.73.73,0,0,0,209.12,142.15Z" transform="translate(-9.56 -13.94)"/><path class="cls-4" d="M224.82,129.89H218.9a.4.4,0,0,1-.4-.4V110.72a.4.4,0,0,1,.4-.4h5.92a.4.4,0,0,1,.41.4v18.77A.4.4,0,0,1,224.82,129.89Zm-5.51-.8h5.11v-18h-5.11Z" transform="translate(-9.56 -13.94)"/><path class="cls-4" d="M196.89,130h-6.13a.39.39,0,0,1-.4-.4v-3.73a5.15,5.15,0,0,1,0-.58c0-3.64,0-7.29,0-11v-3.61a.07.07,0,0,1,0,0v-.11a.39.39,0,0,1,.4-.4h6.13a.4.4,0,0,1,.4.4v19A.4.4,0,0,1,196.89,130Zm-5.73-.4h0Zm0-.4h5.34V111h-5.34v3.36c0,3.68,0,7.33,0,11,0,.18,0,.36,0,.53Z" transform="translate(-9.56 -13.94)"/><path class="cls-4" d="M213.4,129.88H202.3a.4.4,0,0,1-.4-.38v-.2c0-.15,0-.3,0-.44v-1.42c0-1.93,0-3.86,0-5.79l.4,0h-.4v-5.8c0-1.21,0-2.44,0-3.67v-1.44a.4.4,0,0,1,.4-.4H213.4a.4.4,0,0,1,.4.4v18.76A.4.4,0,0,1,213.4,129.88Zm-10.72-.8H213v-18H202.67v1c0,1.23,0,2.45,0,3.66v5.81s0,0,0,0c0,1.93,0,3.85,0,5.77v1.42A1.62,1.62,0,0,0,202.68,129.08Z" transform="translate(-9.56 -13.94)"/><path class="cls-4" d="M147.17,298c-11.93,0-27.3-28.1-34-41.93,10.24-5.78,18.37-15.59,18.37-26.27,0-7.68-1.91-12.3-4.32-14.71s-10.39-2-12.08-2c-10.39,0-13.17,31.4-13.46,39.81a13.39,13.39,0,0,1-1.54.81c.44-16.32,2.93-27.37,2.93-29.79,0-2.71-7.83-3-10.46-3-3.52,0-5.13,13.17-5.13,24.15,0,24,5.64,43.11,15.74,43.11,1.68,0,3.58-1.1,3.58-1.69A59.38,59.38,0,0,1,100,261a36,36,0,0,0,3.73-.88c7,15.58,22.25,41.71,39.08,41.71C148.49,301.79,150.24,298,147.17,298Zm-33.23-81.15c3.44,0,8,1.61,8,10.9,0,11.2-9.88,19-18.07,23.78C104.43,243.1,107.58,216.83,113.94,216.83Z" transform="translate(-9.56 -13.94)"/><path class="cls-4" d="M159.61,262c0-3.59-6.81-4.25-8.56-4.25S149,259.64,149,261c0,.8-.15,3.14-.29,5.85-1.83,5.85-5.2,14-6.66,17.34a36.07,36.07,0,0,1-.81-8.7c0-10.4,2.78-19.18,2.78-21.81s-4.68-4.83-8.56-4.83c-3.22,0-1.17,2.19-1.17,3.95,0,2.56-1.83,15.22-1.83,23.2,0,13,11,14.56,11,12.58a5.83,5.83,0,0,0-.59-2l5.56-14c-.07,1.31-.07,2.49-.07,3.58,0,8.27,5.34,11.49,10,11.49,2.85,0,.07-2.34.07-10.83C158.44,266,159.61,264.32,159.61,262Z" transform="translate(-9.56 -13.94)"/><path class="cls-4" d="M208.93,238.85c1.83-.58,2.27-1.68.15-1.75-5.71,0-17.34.51-29.93.58l.44-2.48c.58-4.1,1-7.1,1-8.57,0-5.49-8.93-10-8.93-3,0,1.61-.87,6-2,11.78l-.44,2.2c-9.44-.29-18.66-1-25.91-2.41-1-.22-1.83.73-.29,1.75,3.66,2.49,8.86,6,16.1,6.88a66.94,66.94,0,0,0,8.93.37c-1.47,8.63-2.86,18.22-2.86,25.68,0,16,6.59,24.52,11,24.52s-2-1.61-2-21.08c0-7.17,2-19.32,3.88-29.64C190.05,242.73,203,240.68,208.93,238.85Z" transform="translate(-9.56 -13.94)"/><path class="cls-4" d="M229.43,268.93c-4.32,0,.8-14.27,6.44-14.27,1.17,0-1.91,10.32-.59,10.32s8.27-7,8.27-12.44-7.39-4.9-12.73-4.9-11.71,11.49-11.71,17.85a9.06,9.06,0,0,0,1.53,5.38c-2.6,7.07-5.94,15.63-6.88,15.63-2.41,0-2-14.05-2.19-19V266.3c0-1.54-1.83-3.59-6.29-3.59s-4.4,2.64-4.4,4.1c0,3.81-4.61,19.1-6.8,19.1s-2.49-4.39-2.49-7.1c0-13.46,6.37-26.49,13.54-26.49,2.71,0,3.22,5.93,3.22,7.61s2.63.73,2.63-.29C211,249,205.64,249,198.1,249c-10.83,0-16.1,15.66-16.1,25.25,0,10.17,4.69,14.05,10.47,14.05s8.56-11.12,9.15-11.12,2.19,14.27,9.07,14.27a2.44,2.44,0,0,0,1.17-.22c3.7-1.31,7.74-10.76,10.49-18.55,4.6,3.51,12.49,2.3,12.49,2.3,0,2.64-10.1,13.47-13.61,13.47-1.9,0,.88,3.8,5.19,3.8s16.11-10.46,16.11-17S231.33,268.93,229.43,268.93Z" transform="translate(-9.56 -13.94)"/></g></g></svg>