<svg id="Capa_1" data-name="Capa 1" xmlns="http://www.w3.org/2000/svg" viewBox="0 0 43.43 50"><defs><style>.cls-1{fill:#fff;}</style></defs><title>Rutas</title><path class="cls-1" d="M728,357h-1a.33.33,0,0,1-.32-.32V345.6h-3.55a.37.37,0,0,1-.2-.07l-1.86-1.42a.3.3,0,0,1-.12-.25.3.3,0,0,1,.11-.25l1.87-1.52a.27.27,0,0,1,.2-.07h3.55v-1h-5.41a.32.32,0,0,1-.32-.32V337.8a.32.32,0,0,1,.32-.32h5.41v-.79a.32.32,0,0,1,.32-.32h1a.32.32,0,0,1,.32.32v.79h3.55a.31.31,0,0,1,.21.07l1.86,1.52a.35.35,0,0,1,.12.25.33.33,0,0,1-.13.25L732,341a.31.31,0,0,1-.2.07h-3.55v1h5.41a.32.32,0,0,1,.33.32v2.94a.33.33,0,0,1-.33.32h-5.41v11.1A.32.32,0,0,1,728,357Zm-.63-.64h.31v-11.1A.32.32,0,0,1,728,345h5.41v-2.29H728a.32.32,0,0,1-.32-.32v-1.6a.32.32,0,0,1,.32-.33h3.76l1.45-1.1-1.45-1.19H728a.32.32,0,0,1-.32-.32V337h-.31v.79a.32.32,0,0,1-.33.32h-5.41v2.29H727a.33.33,0,0,1,.33.33v1.6a.32.32,0,0,1-.33.32h-3.76l-1.45,1.19,1.45,1.1H727a.33.33,0,0,1,.33.33Z" transform="translate(-709.31 -320.71)"/><path class="cls-1" d="M731,370.71a.45.45,0,0,1-.25-.07l-21.22-12.25a.5.5,0,0,1-.25-.43v-24.5a.5.5,0,0,1,.25-.43l21.22-12.25a.5.5,0,0,1,.5,0L752.5,333a.5.5,0,0,1,.25.43V358a.5.5,0,0,1-.25.43l-21.22,12.25A.47.47,0,0,1,731,370.71Zm-20.72-13,20.72,12,20.72-12V333.75l-20.72-12-20.72,12Z" transform="translate(-709.31 -320.71)"/><path class="cls-1" d="M731,368.45a.32.32,0,0,1-.19-.05l-19.15-11a.37.37,0,0,1-.19-.33V334.91a.36.36,0,0,1,.19-.32l19.15-11.06a.35.35,0,0,1,.37,0l19.16,11.06a.37.37,0,0,1,.18.32V357a.39.39,0,0,1-.18.33l-19.16,11A.29.29,0,0,1,731,368.45Zm-18.78-11.64L731,367.65l18.78-10.84V335.13L731,324.28l-18.78,10.85Z" transform="translate(-709.31 -320.71)"/><rect class="cls-1" x="3.76" y="35.55" width="12.83" height="0.43"/><rect class="cls-1" x="23.03" y="35.56" width="7.47" height="0.5"/><rect class="cls-1" x="13.22" y="33.92" width="3.48" height="0.43"/><rect class="cls-1" x="3.87" y="33.92" width="4.13" height="0.43"/><rect class="cls-1" x="31.49" y="35.56" width="7.47" height="0.5"/><path class="cls-1" d="M722.13,351.82a4.06,4.06,0,0,1,2.73-1.11,7,7,0,0,0-2.43,2.9,6.55,6.55,0,0,1-1,1.32,2.12,2.12,0,0,1-3.09,0,6.21,6.21,0,0,1-1-1.39c-.3-.51-.59-1-.94-1.5a4.28,4.28,0,0,0-1.44-1.33,4,4,0,0,1,2.81,1.2,12.89,12.89,0,0,0-1.22-4.23,6.29,6.29,0,0,1,2.36,2.83c.39-1.64.67-3.23,1-4.81.33,1.58.62,3.16,1,4.83a9.64,9.64,0,0,1,1-1.62,3.91,3.91,0,0,1,1.4-1.22,13,13,0,0,0-1.25,4.05v.11Zm1.68-.7a4.11,4.11,0,0,0-1.12.53c-1,.56-.83,1.5-.87,2.39a26.2,26.2,0,0,1,2-2.88v0Zm-5.72,3.14.07.05s0-.07,0-.1c0-.46-.1-.91-.16-1.37a.87.87,0,0,0-.12-.49,3.7,3.7,0,0,0-1.63-1.18.27.27,0,0,0-.26,0,7.68,7.68,0,0,1,1.19,1.59A15.41,15.41,0,0,0,718.09,354.26Zm1.78-7.15c-.24,1.17-.48,2.34-.73,3.51a.92.92,0,0,0,.05.59c.23.55.45,1.1.68,1.66.07.16.1.08.14,0,.22-.56.44-1.11.67-1.66a1,1,0,0,0,0-.59c-.17-.76-.33-1.52-.49-2.28a5,5,0,0,0-.24-1l0-.19c0-.05,0-.13,0-.13S719.87,347.05,719.87,347.11Zm2.73,1.39c-.11.12-.23.22-.33.35a14.09,14.09,0,0,0-2.14,4.43,1.92,1.92,0,0,0-.07.48c0,.11,0,.21-.14.27a.3.3,0,0,1-.11-.25,3,3,0,0,0-.28-1.18c-.25-.62-.49-1.24-.77-1.86a6.92,6.92,0,0,0-1.53-2.29h0c-.06.09,0,.17,0,.24a16.36,16.36,0,0,1,.83,3.29c.11.71.17,1.43.29,2.15a1.45,1.45,0,0,0,1.53,1.24,1.52,1.52,0,0,0,1.61-1.38c.07-.49.11-1,.17-1.49a19.78,19.78,0,0,1,.95-3.95v-.05Z" transform="translate(-709.31 -320.71)"/><path class="cls-1" d="M747.82,352.16H735.51a.12.12,0,0,1-.12-.12v-5.21a.13.13,0,0,1,.12-.12h12.31a.13.13,0,0,1,.12.12V352A.12.12,0,0,1,747.82,352.16Zm-12.19-.24H747.7v-5H735.63Zm6-.76a1.56,1.56,0,0,1-.87-.26,1.63,1.63,0,0,1-.67-1.8h0a1.62,1.62,0,0,1,1.51-1.19h0A1.64,1.64,0,0,1,743.2,349a2,2,0,0,1,0,1l0,0h0l0,0a2,2,0,0,1-.57.71A1.65,1.65,0,0,1,741.63,351.16Zm-1.31-2a1.38,1.38,0,0,0,2.14,1.5,1.76,1.76,0,0,0,.5-.64v0a0,0,0,0,1,0,0,1.74,1.74,0,0,0,0-.88,1.43,1.43,0,0,0-1.36-.94,1.39,1.39,0,0,0-1.29,1Z" transform="translate(-709.31 -320.71)"/><path class="cls-1" d="M747.81,346.63H735.52a.13.13,0,0,1-.12-.08v0s0,0,0,0h0a.34.34,0,0,1,0-.17v-3a.14.14,0,0,1,0-.06v-5.79a.12.12,0,0,1,.11-.12h4.77a.35.35,0,0,1,.39.26,1,1,0,0,0,1,.67,1.06,1.06,0,0,0,1-.72.34.34,0,0,1,.27-.2h4.89s.11.07.11.12v9.06A.12.12,0,0,1,747.81,346.63Zm-12.2-.24h12.08v-8.83h-4.76a.08.08,0,0,0,0,0,1.32,1.32,0,0,1-1.2.88,1.29,1.29,0,0,1-1.24-.82.15.15,0,0,0-.17-.11h-4.64v5.74a.14.14,0,0,1,0,.06v3Zm3.17-.6h-2.66a.12.12,0,0,1-.12-.12v0a.11.11,0,0,1,0-.08l0-.19v-1a.51.51,0,0,0,0-.1v-4.81c0-.34.06-.4.41-.4h2.07c.35,0,.41.06.41.41v.62c0,.53,0,1.07,0,1.6,0,.32,0,.63,0,.95s0,.85,0,1.27v1.74A.11.11,0,0,1,738.78,345.79Zm-2.66-.16Zm2.26-.07h.28v-.63c0-.33,0-.66,0-1s0-.86,0-1.27,0-.63,0-.95c0-.53,0-1.07,0-1.6v-.62a.92.92,0,0,0,0-.18h-2.4v.15h0v4.81a.62.62,0,0,1,0,.13v.93l0,.19h2.1Zm-2.25-6.07h0Zm11,6.3h-2.61a.13.13,0,0,1-.12-.12v-.07c0-.05,0-.1,0-.14v-6c0-.32.06-.38.37-.38H747a.28.28,0,0,1,.25.08.31.31,0,0,1,.09.25v6.14a.25.25,0,0,1,0,.08v.05A.13.13,0,0,1,747.15,345.79Zm-2.5-.24H747v-6.13c0-.07,0-.08,0-.08s0,0-.08,0h-2.3v6.22Zm-.9.23h-4.2a.12.12,0,0,1-.12-.12v-2.52a.07.07,0,0,1,0-.05v-.23a.13.13,0,0,1,0-.06h0s0,0,0-.05v-1.18a.34.34,0,0,0,0-.11v-1.91h0c0-.35.1-.45.44-.45h3.65a.31.31,0,0,1,.35.35q0,.35,0,.69v5.54A.12.12,0,0,1,743.75,345.78Zm-4.08-.24h4v-5.41c0-.24,0-.47,0-.7a.14.14,0,0,0,0-.09.13.13,0,0,0-.09,0h-3.65c-.2,0-.2,0-.2.21v1.91a.44.44,0,0,1,0,.17v1.1l0,.09a.1.1,0,0,1,0,.09.05.05,0,0,1,0,0V343s0,0,0,.05Z" transform="translate(-709.31 -320.71)"/><path class="cls-1" d="M743,337.26a.27.27,0,0,1-.31-.26,1.07,1.07,0,0,0-1.08-.9,1.09,1.09,0,0,0-1,.92.2.2,0,0,1,0,.07v.07a.1.1,0,0,1-.11.1h-5c-.16,0-.25,0-.32-.07s-.07-.17-.06-.32a1.09,1.09,0,0,0,0-.18,1.33,1.33,0,0,1,.14-.72,1.05,1.05,0,0,1,.85-.56h11.11a1.11,1.11,0,0,1,1.13.86,2.7,2.7,0,0,1,0,.75v0c0,.14-.24.22-.34.22H743Zm-6.83-1.62H736a.84.84,0,0,0-.67.45,1.19,1.19,0,0,0-.1.6,1.08,1.08,0,0,1,0,.18.67.67,0,0,0,0,.16h5.07v0a1.32,1.32,0,0,1,1.27-1.12h0a1.3,1.3,0,0,1,1.29,1.11.12.12,0,0,0,0,0h5l.1,0a2.48,2.48,0,0,0,0-.67h0a.87.87,0,0,0-.9-.68H736.19Z" transform="translate(-709.31 -320.71)"/><path class="cls-1" d="M747.75,353.51H735.58c-.31,0-.37-.06-.38-.36v-.2c0-.11,0-.22,0-.33a.38.38,0,0,1,.1-.3.32.32,0,0,1,.28-.07h12.09c.37,0,.44.06.44.43h0v.15c0,.11,0,.22,0,.32a.31.31,0,0,1-.36.37Zm-12.24-1h0s0,0,0,.12v.54a.45.45,0,0,0,0,.13h12.29a.24.24,0,0,0,.12,0,.28.28,0,0,0,0-.1,1.82,1.82,0,0,1,0-.33v-.15h0a.5.5,0,0,0,0-.19H735.51Z" transform="translate(-709.31 -320.71)"/><path class="cls-1" d="M737.16,356.15h0a.12.12,0,0,1-.08-.06s0,0,0-.05a.37.37,0,0,1-.08-.19c0-.23,0-.47,0-.76V355h-.84c-.12,0-.38,0-.38-.31a.31.31,0,0,1,.08-.22.27.27,0,0,1,.1-.06l-.1-.07a.29.29,0,0,1-.08-.22c0-.31.3-.31.4-.31s.42,0,.65,0h.15a.29.29,0,0,1,.06-.17c.09-.11.23-.1.36-.1H738a.11.11,0,0,1,.12.11l0,.15h7a.26.26,0,0,1,.06-.16c.09-.11.23-.1.36-.1h.65a.13.13,0,0,1,.12.11v.16h.91a.31.31,0,0,1,.33.3.26.26,0,0,1-.07.22.36.36,0,0,1-.12.08.29.29,0,0,1,.19.27.24.24,0,0,1-.07.21.38.38,0,0,1-.3.11h-.77c-.07,0-.09,0-.09,0h0s0,0,0,.08c0,.26,0,.52,0,.74a.29.29,0,0,1-.07.17l0,.05a.13.13,0,0,1-.07.06.11.11,0,0,1-.1,0l-.05,0a.48.48,0,0,1-.15-.11.22.22,0,0,0-.12,0c-.07,0-.12,0-.13,0s-.18.17-.3.12a.36.36,0,0,1-.17-.26c0-.23,0-.48,0-.72a.17.17,0,0,0,0-.11s0,0-.12,0h-6.87v.54c0,.11,0,.21,0,.32a.35.35,0,0,1-.19.25.28.28,0,0,1-.28-.12.25.25,0,0,0-.13,0,.2.2,0,0,0-.13,0,.44.44,0,0,1-.15.1l0,0Zm.38-.42h0a.45.45,0,0,1,.3.14l0,0,0,0a2.53,2.53,0,0,0,0-.28v-.67a.12.12,0,0,1,.12-.12h7a.41.41,0,0,1,.3.09.37.37,0,0,1,.07.28c0,.24,0,.48,0,.7v0l0,0a.45.45,0,0,1,.32-.13.4.4,0,0,1,.3.12l0,0v0a5.76,5.76,0,0,0,0-.72.34.34,0,0,1,.08-.26.35.35,0,0,1,.27-.08h.76c.09,0,.12,0,.13,0v0s0-.07-.14-.07-.51,0-.85,0a.26.26,0,0,1-.16-.07l0,0a.1.1,0,0,1-.06-.09.1.1,0,0,1,0-.1l0,0a.34.34,0,0,1,.13-.1h0a.5.5,0,0,1,.17,0h.77a.12.12,0,0,0,.08,0s0,0,0,0,0-.08-.1-.08h-1c-.07,0-.12,0-.12-.1l0-.17h-.53c-.07,0-.17,0-.19,0h0a.19.19,0,0,0,0,.1.14.14,0,0,1,0,.11.15.15,0,0,1-.09,0h-7.23a.11.11,0,0,1-.12-.11l0-.15h-.73s0,0,0,.12a.13.13,0,0,1,0,.1.1.1,0,0,1-.09,0h-1c-.14,0-.15,0-.15.08s0,0,0,0a.3.3,0,0,0,.14,0h.8a.28.28,0,0,1,.23.09.33.33,0,0,1,0,.26.12.12,0,0,1-.11.08h-.9c-.07,0-.15,0-.16,0a.12.12,0,0,0,0,.05c0,.06,0,.07.14.07h.78a.3.3,0,0,1,.23.07.35.35,0,0,1,.07.23c0,.28,0,.52,0,.74l0,0,0,0A.43.43,0,0,1,737.54,355.73Zm3.06-1.07h-2.54a.16.16,0,0,1-.12-.09.24.24,0,0,1,0-.24.26.26,0,0,1,.23-.09h6.91a.47.47,0,0,1,.19.08l0,0a.14.14,0,0,1,.07.11.13.13,0,0,1-.06.1l0,0a.36.36,0,0,1-.18.07H740.6Zm4.52-.13Z" transform="translate(-709.31 -320.71)"/><path class="cls-1" d="M744.6,335.31h-5.91a.12.12,0,0,1-.12-.12v-.8c0-.53.06-.59.59-.59h5.23a.35.35,0,0,1,.26.08.34.34,0,0,1,.08.26c0,.24,0,.49,0,.73v.32A.12.12,0,0,1,744.6,335.31Zm-5.79-.24h5.67v-.2c0-.25,0-.49,0-.73a.24.24,0,0,0,0-.09h-5.32c-.35,0-.35,0-.35.35Z" transform="translate(-709.31 -320.71)"/><path class="cls-1" d="M739.69,333.73h0a.11.11,0,0,1-.1-.08l0-.06a.76.76,0,0,1-.06-.18,1.69,1.69,0,0,1,0-.23.49.49,0,0,0,0-.12s0,0,0-.05h-.41A.12.12,0,0,1,739,333l.09-.07-.1.06a.26.26,0,0,1-.05-.09c0-.22,0-.33,0-.41s.19-.09.4-.09h4.89a.12.12,0,0,1,.12.12v.41a.12.12,0,0,1-.12.12h-.45v0a3.38,3.38,0,0,1,0,.45.24.24,0,0,1-.07.15s0,0,0,0a.21.21,0,0,1-.1.06.16.16,0,0,1-.1-.05l0,0a.27.27,0,0,1-.09-.15c0-.16,0-.32,0-.47v0h-3.52v.05a2.27,2.27,0,0,1,0,.37.51.51,0,0,1-.07.17l0,0A.13.13,0,0,1,739.69,333.73Zm3.68-1a.3.3,0,0,1,.21.07l0,0,0,0a.25.25,0,0,1,.22-.07h.28v-.17h-5l0,.16h.43a.12.12,0,0,1,.12.09h0a.3.3,0,0,1,.23-.08Z" transform="translate(-709.31 -320.71)"/><path class="cls-1" d="M741.64,338.15a1,1,0,0,1-.72-.32.91.91,0,0,1-.25-.67.92.92,0,0,1,.26-.67,1,1,0,0,1,.73-.31h0a1,1,0,1,1,0,2h0Zm0-.12Zm0-1.61a.77.77,0,0,0-.56.23.69.69,0,0,0-.19.51.63.63,0,0,0,.19.5.75.75,0,0,0,.55.25h0a.75.75,0,1,0,0-1.49Zm0,1.37a.61.61,0,0,1-.62-.62.58.58,0,0,1,.62-.62h0a.63.63,0,0,1,.64.62.65.65,0,0,1-.63.62Zm0-1a.43.43,0,0,0-.28.1.39.39,0,0,0-.11.28.37.37,0,0,0,.12.27.39.39,0,0,0,.27.11h0a.42.42,0,0,0,.4-.39.4.4,0,0,0-.4-.37Z" transform="translate(-709.31 -320.71)"/><path class="cls-1" d="M741.65,350.76h0a1.21,1.21,0,0,1-.87-.37,1.23,1.23,0,0,1-.36-.87,1.25,1.25,0,0,1,.4-.89,1.14,1.14,0,0,1,.84-.32,1.13,1.13,0,0,1,.84.33,1.29,1.29,0,0,1,.39.94A1.27,1.27,0,0,1,741.65,350.76Zm0-.23h0a1,1,0,0,0,.68-1.72,1,1,0,0,0-1.35,0,1,1,0,0,0-.32.73,1,1,0,0,0,.29.7,1.09,1.09,0,0,0,.7.3Zm.39-.91a.45.45,0,0,1-.42-.39.37.37,0,0,1,.11-.29.43.43,0,0,1,.29-.16h0a.44.44,0,0,1,.3.12.46.46,0,0,1,.15.29.42.42,0,0,1-.12.3.44.44,0,0,1-.31.13Zm0-.6h0a.21.21,0,0,0-.14.07.24.24,0,0,0,0,.12.22.22,0,0,0,.19.17h0a.2.2,0,0,0,.14-.06.18.18,0,0,0,.05-.12.21.21,0,0,0-.07-.13A.21.21,0,0,0,742,349Zm0-.12Z" transform="translate(-709.31 -320.71)"/><path class="cls-1" d="M746.73,345.36H745a.12.12,0,0,1-.12-.12v-5.6a.12.12,0,0,1,.12-.12h1.77a.12.12,0,0,1,.12.12v5.6A.12.12,0,0,1,746.73,345.36Zm-1.65-.24h1.53v-5.37h-1.53Z" transform="translate(-709.31 -320.71)"/><path class="cls-1" d="M738.38,345.4h-1.83a.12.12,0,0,1-.12-.12v-5.64h0v0a.12.12,0,0,1,.12-.12h1.83a.12.12,0,0,1,.12.12v5.68A.12.12,0,0,1,738.38,345.4Zm-1.71-.12Zm0-.11h1.59v-5.45h-1.59v5.45Z" transform="translate(-709.31 -320.71)"/><path class="cls-1" d="M743.32,345.36H740a.12.12,0,0,1-.12-.12v-.06a.53.53,0,0,1,0-.13v-.42c0-.58,0-1.15,0-1.73h0v-1.73c0-.36,0-.73,0-1.1v-.43a.13.13,0,0,1,.12-.12h3.33a.13.13,0,0,1,.12.12v5.61A.13.13,0,0,1,743.32,345.36Zm-3.21-.24h3.09v-5.37h-3.09v.32c0,.36,0,.72,0,1.09v1.75l-.11,0,.11,0v2.21Z" transform="translate(-709.31 -320.71)"/></svg>