<svg xmlns="http://www.w3.org/2000/svg" viewBox="0 0 325.39 319.43"><defs><style>.cls-1{isolation:isolate;}.cls-2{fill:#fff;}.cls-3{mix-blend-mode:multiply;}.cls-4{fill:#f7931e;}</style></defs><title>circulo gastronomia</title><g class="cls-1"><g id="Capa_1" data-name="Capa 1"><circle class="cls-2" cx="160.33" cy="165.93" r="153.5"/><g class="cls-3"><path class="cls-4" d="M314.45,93.44l1.5,2.45c1,1.7,2.23,3.48,3.28,5.41A25.84,25.84,0,0,0,317,95.77c-.5-1-1-2-1.58-3s-1.18-2-1.75-2.9c-1.13-1.34-2.47-2.91-3.61-4.24.06.88,1.23,2.91,3,5.63C313.47,92,314,92.66,314.45,93.44Z" transform="translate(-12.04 -16.28)"/><path class="cls-4" d="M23.57,240.3c-.46-1.06-.91-2.1-1.27-3l-1.78-3.72c-.56-1.22-1.06-2.48-1.61-3.79-.53-1.48-1.08-2.95-1.58-4.43L16,220.82a6,6,0,0,0-1.44-1c-.49-1.35-.85-2.67-1.22-4s-.73-2.63-1.12-4a25.19,25.19,0,0,0,.09,5.77c.45,1.84,1.07,3.62,1.6,5.43s1.07,3.62,1.75,5.38c.6,1.15,1.24,2.36,1.87,3.58l.95,1.8c.34.59.68,1.16,1,1.72.87,2,1.71,3.88,2.56,5.78s1.86,3.73,2.83,5.65c.43.07,1,.39,1.44.46.28-.51-.34-2.12-1.24-4.06Z" transform="translate(-12.04 -16.28)"/><path class="cls-4" d="M68.76,301.18c-2.21-1.64-5.09-4-8.86-6.86L56,290.51c-1.88-1.78-2.9-2.34-7.19-6.6l-.75.8c1.55,2.6,4.86,5.87,7.58,8.52,1.51.91,3.14,2.1,4.69,2.92l2.83,3.06c1,1.06,2,2.15,3,3.15,1.45,1,3.12,2.12,4.58,3.05a6.89,6.89,0,0,1,2-.41A16.91,16.91,0,0,0,68.76,301.18Z" transform="translate(-12.04 -16.28)"/><path class="cls-4" d="M337.11,166.5c-.15-1.69-.22-3.38-.46-5l-.52-4.24c-.17-1.39-.36-2.77-.64-4.22-.62-3.18-1.18-6.36-2-9.48-.28-1.29-.55-2.56-.83-3.83s-.64-2.49-.95-3.74c-.67-2.48-1.28-5-2.14-7.47-.22-1.49-.44-3-.7-4.47a26.22,26.22,0,0,0-.15-4.77,27.93,27.93,0,0,0-1.16-5.37l-2.76-6.61c-1.84-2.38-1.74,0-.91,5.18-.42.06-.81.26-.87,1.11a18.61,18.61,0,0,0,.93,5c-1-2.72-2.12-3.78-3.35-6-.34.49-2.52-2.84-1.19,2.24a5.38,5.38,0,0,1-1.36-.89c-1.89-3.78-2.22-2-1.55.81.31,1.41.64,2.81.9,4.19s.44,2.74.61,4l-.16.07c-.46.21-1,.45-.49,3.23l-.59.26c-.72-.59-1.21-.14-1,1.85s1.3,5.45,3.34,11.15c0,.85.06,1.75.1,2.66s0,1.82,0,2.66c-1.43-2.22-1.82,0-1.92,3.34,0,1.67-.12,3.64-.18,5.49a37.32,37.32,0,0,1-.37,4.81c.52,2,.95,6.7,1.58,4.74.56,1,.34,3.39.54,5,.43,3.66-.13,6.33-.7,5.33a3.26,3.26,0,0,1-.8,2,3.48,3.48,0,0,0-.4,1.29,28.7,28.7,0,0,0-.17,3,30.44,30.44,0,0,0-.43,4c0,.62,0,1.21,0,1.75s0,1,0,1.47c.11,1.74.54,2.53,1.25,1.37,0,1.17.09,2.5.15,3.91s0,2.92-.07,4.46a46.83,46.83,0,0,1-1.12,9.14c-.36,1.94-1.12,4.57-1.94,7.74-1,3.12-2.05,6.8-3.6,10.69a152,152,0,0,1-12.19,25,169.58,169.58,0,0,1-16.06,22.14c-1.33,1.52-2.58,3-3.76,4.33s-2.38,2.53-3.41,3.67l-1.46,1.63-1.35,1.41c-.84.89-1.54,1.68-2.09,2.35l-1.81,1.81L267,288.43l-3.77,3.48c-1.28.17-1.75,0-5,3.82a55.71,55.71,0,0,0-6.37,4.25c-1.54,1.25-2.49,2.16-2.53,2.78a15.81,15.81,0,0,1-3.3,1.75c.33-.67-.21-.52-1.15,0s-2.33,1.24-3.6,1.94c-.79.59-1.69,1.21-2.67,1.84s-2.09,1.2-3.21,1.81l-3.51,1.81c-1.2.6-2.45,1.11-3.67,1.65l-3.58,1.59-3.35,1.34c-2.1.87-3.87,1.72-5.11,2.35-8.91,2.74-18.24,5.3-27.67,5.67-7.87,2-15.69,1.94-23.55,1.31-2-.21-4-.33-5.95-.6s-4-.53-6-.75-4.1-.62-6.21-.87-4.25-.63-6.47-.85c.08.44-1.14.51-2.89.22s-4-.83-6.11-1.36a9.47,9.47,0,0,0-3.63-2c-1.57-.56-3.46-1-5.46-1.64a49.71,49.71,0,0,1-12.37-4.78c-5.46-2.95-13-6.68-20.42-11.35s-14.62-10.25-19.43-15.9c-1.37-1.05-2.77-2.66-4.16-4a17,17,0,0,0-3.52-2.9c-1.83-2.31-4-4.9-6.32-8-.6-.74-1.2-1.51-1.83-2.3s-1.21-1.63-1.86-2.47l-2-2.58c-.35-.43-.69-.87-1-1.32l-1-1.39c-.08-.61,0-1-.06-1.64-.9-1.64-1.92-3.26-2.78-5l-2.57-5.08c-1.32-2.25-2.39-4.35-3.65-6.64-.39-.68-.72-1.39-1.17-2.33-1.27-2.58-.78-3.16-2.32-5.87-1-1.8-2-3.34-3.2-5.38-.37-1-.69-2.28-1.07-3.55a15.77,15.77,0,0,0-1-5.11c-.58-2.07-1.55-4.41-2.44-7-2.49-4.95-2.29-11-3.75-15.74,0-2.14-.09-4.27,0-6.39a18.21,18.21,0,0,0,0-4.19c-.15-1.58-.2-3.27-.25-4.71a20,20,0,0,0-1,2.76l-.28-4.1L22.6,179l0-2.06-.07-4.12c0-1.38.07-2.75.1-4.12.76,1.4,1.05-.5,1.24-3.2a54.5,54.5,0,0,1,1.15-8c.57-2.56,1.31-6.65.68-7.49.18-1.15.37-2.37.56-3.62s.38-2.55.69-3.81c1.32-5.07,2.84-10.33,4.64-12.83,2.74-6.75.91-4.57,1.93-8.6,1.64-4.94,2.12-2.33,4.08-7.93,2.63-8.72,7.82-15.67,13.51-22.15-.36,1.28-2.22,3.77-2.88,5.47.22.26.7-.17,1.36-1S51,93.4,52,92.09L54.87,88a28.47,28.47,0,0,1,2.72-3.13c3.57-4.84,7.86-8.64,12.09-12.53,1.09-.95,2.2-1.88,3.29-2.85s2.14-2,3.28-3c2.25-2,4.4-4.18,6.71-6.47l3.26-1.9c1.08-.59,2.19-1.14,3.34-1.74s2.14-1.29,3.15-2l3.16-1.91-.65-.89a35.66,35.66,0,0,1,11-5.62c-2,1.41-1.7,1.72-.52,1.28a33.25,33.25,0,0,0,5.43-2.42,27.46,27.46,0,0,0-2.83.15c1.27-.73,2.6-1.48,4-2.11s2.7-1.14,3.91-1.57c2.4-.9,4.36-1.21,4.94-.84a18.7,18.7,0,0,0,4.22-1.36l3.89-1.61c1.38-.29,2.71-.64,3.94-.82s2.32-.33,3.18-.38c1.36-.09,2.13.05,2,.57l-1.41.3c-1.59.37-3.2.68-4.66,1.07l-3.86,1.11c-1.08.32-1.9.58-2.34.75s-.49.27,0,.21c2.34.08,6.8-1.52,11.22-2.56a44.56,44.56,0,0,1,6.16-1.27c1.8-.24,3.21-.33,3.94.06a15.53,15.53,0,0,0,4.34-.77,11.73,11.73,0,0,1,4-.78c2.36.5,9.47-.62,14.48-.4a12.65,12.65,0,0,0,3.39.59c1.46.17,3.16.33,4.81.46.83.08,1.65.13,2.42.24s1.49.23,2.13.36a6.13,6.13,0,0,1,2.61.9c1.62.06,3.16.31,4.64.5s2.89.37,4.25.66l3.94.85,1.88.43,1.83.53c2.42.7,4.77,1.36,7.11,2.22l3.58,1.22,3.68,1.4a57.91,57.91,0,0,1,6.42,2.73c2,.89,3.79,1.95,5.6,3,.91.52,1.83,1,2.74,1.56l2.78,1.7c.95.58,2,1.12,3,1.74s2.07,1.29,3.19,2c-.58.08-.94.25-1.53.38l2.82,2.11L244,62.4a29.42,29.42,0,0,1,2.5,1.86,26,26,0,0,0,5.06,3.09c4.59,3.81,6.45,4.5,6.21,3.2-1.47-1.67-3.07-3.61-4.78-5.44,1.79,1.25,1.66.12,4.33,2.28.4-.16,1-.15,1.39-.3,1.67.63,3.07,1.21,4.68,2,.91.43,8.34,7,14.61,14.35,1.55,1.86,3.16,3.65,4.48,5.47l2,2.56c.64.81,1.22,1.58,1.72,2.33,2.07,2.93,3.49,4.86,3.65,4.82-1.1-1.68-2.16-3.4-3.23-5.12a24.46,24.46,0,0,0-1.2-2.56,15.08,15.08,0,0,0-1.92-2.72c-1.12-2-2.57-4.15-3.84-6.1a74.43,74.43,0,0,0-5.32-5.7c-1.45-1.59-2.58-2.71-2.69-3.56L269,70.12c-.93-1-2-1.84-3-2.82s-2.1-2-3.23-3l-3.45-2.93c-1.13-1-2.34-2-3.55-2.89l-3.57-2.81-3.58-2.6c-1.16-.87-2.29-1.71-3.43-2.44.83,0-2-1.29-3-2a39.86,39.86,0,0,0-4.51-2.83l-2.72-1.52c-1-.49-1.94-.94-2.92-1.42C230,42,228,41,226.09,40.26s-3.57-1.6-5-2.21l-4.75-1.73c-1.57-.62-3.21-1-4.81-1.56s-3.17-1.28-4.68-1.75c-1.66-1-5.51-1.6-7.28-2.29-1.66-.36-3.25-.73-4.86-1l-4.91-.79a134.62,134.62,0,0,0-30.22-2.4c-2.76.29-5.52.5-8.27.87l-4.11.62-2.05.31-2,.41-4.32.65c-1.45.21-2.87.56-4.31.83l-1.28.33c-.16-.25-.66-.29-1.36-.21-.35,0-.76.11-1.19.2s-.88.24-1.36.38a31.21,31.21,0,0,1-5.09,1.29c-2.28.7-5,1.59-7.83,2.39-2.76,1-5.61,1.81-8.07,2.63C99.85,41.21,93,45,87.12,47.42c-1.85,1.14-3.69,2.29-5.51,3.47l-5.84,4c-2,1.37-3.81,2.87-5.68,4.27-1.07.64-2,1.25-2.91,1.85l-2.73,1.79-1,.94a8.18,8.18,0,0,1-.65-2.41l3.45-3c1.15-1,2.37-1.92,3.54-2.9s2.37-2,3.63-3l3.76-2.85,2.38-1.18c.8-.35,1.61-.74,2.5-1.2s1.83-1,2.93-1.72l1.75-1.16c.65-.4,1.33-.85,2.08-1.34.45-.76.89-1.56,1.33-2.37,2.36-1.47,4.57-2.63,6.81-3.89,1.13-.61,2.23-1.3,3.45-1.9l3.85-2c.63-.55,1.27-1.11,2.17-1.79,3.61-1.5,7.18-3.11,11.15-4.46,1.47-.13,2.67-.19,4.13-.3.17.42,4.21-.62,4.37-.19l3-1,3.26-1c.05.53,1.35.33,3.11-.15s4-1.09,5.85-1.62c2.69-.6,5.15-.9,7.87-1.32l-.19-.85c2-.34,5.08-.64,8.22-1,1.56-.19,3.17-.23,4.69-.28s3-.05,4.22,0a66.72,66.72,0,0,0,7.49.16c2.69.07,5.11.23,5.81.68,2.21,0,4.4.28,6.6.42,1.1.09,2.2.15,3.3.26l3.28.4c1.53.26,3.05.46,4.5.8l4.22,1c2.73.61,5.19,1.48,7.41,2.1s4.15,1.29,5.77,1.68a12.61,12.61,0,0,0,3.87.51c-.38-.8-3.19-1.88-6.35-3-1.59-.55-3.29-1-4.81-1.47s-2.88-.93-3.82-1.27c-3.56-.68-7.11-1.41-10.71-1.85a110.94,110.94,0,0,0-32.2-2.78,4.61,4.61,0,0,0-1.73-.25c-.82,0-1.87.11-3.08.25s-2.57.33-4,.55-3,.59-4.58.91c-.29-.32-1-.43-2-.4a17.11,17.11,0,0,0-1.73.14c-.64.11-1.34.24-2.08.4-1.49.32-3.15.73-4.86,1.16s-3.46,1-5.15,1.5l-2.74.69c-1.53.32-3.12.7-4.72,1.07s-3.21.7-4.71,1.15L115.22,25c-1.29.42-2.57.84-3.82,1.36l-3.78,1.46c-1.26.49-2.52,1-3.75,1.55-2.09.91-4.19,1.8-6.26,2.76l-6.12,3.08c-1.4.7-2.79,1.57-4.21,2.38S84.43,39.2,83.1,40l-6.38,4.1-6.17,4.41a165.7,165.7,0,0,0-20.5,18.36l-3.76,4L42.72,75a23.39,23.39,0,0,0-1.87,2c-.63.83-1.31,1.77-2,2.82s-1.49,2.21-2.31,3.47l-2.42,4.18-1.7,2.56-1.61,2.67-1.6,2.67c-.54.89-1.06,1.77-1.51,2.67-.15.87-.29,1.74-.51,2.88l-1.48,3.09c-.46,1-.88,2.1-1.31,3.15a11,11,0,0,0,.13,1.26,23.37,23.37,0,0,0,.09,3A61.24,61.24,0,0,0,28,105.36c1.08-2,2.09-4.25,3.41-7.19L34,93.54c.56-.66,1.06-1.36,1.82-2.23-.92,1.73-1,2.69-.66,2.83s1.25-.52,2.63-1.83a19.07,19.07,0,0,0,.34,3.23,77.12,77.12,0,0,0-7.31,13.61c-2.05,4.7-3.83,9.33-5.91,13.44-.63,2-1.44,4-2,6a34.62,34.62,0,0,0-1.19,5.57c-.52,1.56-1,3.41-1.44,5A149.29,149.29,0,0,0,15.86,173l-1.33.1c-.41.72-.47,2.95-.39,6,.1,1.54.27,3.28.44,5.16.1.93.16,1.91.29,2.89s.27,2,.41,3c.42.48.81.68,1.23,1.16,0,.89.1,1.77.16,2.64l.27,2.58c.17,1.71.35,3.43.54,5.22a9.52,9.52,0,0,1-.13,1.45l-.22.06c-.4,3.55,1.63,10.46,4.44,19.44.46,1.74,1.12,3.42,1.67,5.1s1.07,3.34,1.73,4.87c.76,2.1,1.52,4.27,2.32,6.39s1.73,4.16,2.54,6.09c.75,1.66,1.65,3.23,2.46,4.86s1.62,3.24,2.56,4.79a27,27,0,0,0,2.24,4.78c.94,1.69,2.07,3.29,2.78,4.69.92,1.32,1.76,2.67,2.73,3.91L45.44,272l1.41,1.85,1.5,1.78,3,3.54c1.17,1.6,2.28,2.89,3.51,4.44.71.68,1.4,1.37,2.62,2.62s3,3.08,5.81,6.06c2.53,2.24,5.31,4.09,7,6l4.41,3.24,4.55,3a32.32,32.32,0,0,0,5.19,4.65,56.34,56.34,0,0,0,6.82,4.46c1.14.22,2.46.67,3.89.91l6,3.07,6.08,2.92c2,.92,4.14,1.75,6.21,2.61,1.5.86,1.85,1.22,2,1.54s.28.57,1.32,1.1a45.28,45.28,0,0,0,12,2.86,162.24,162.24,0,0,0,19.88,3.74c1.65.38,3.32.76,5.29,1.1a20.56,20.56,0,0,0,5.9,1,51.49,51.49,0,0,0,7.57-.42l6.77.19c2.26,0,4.53-.08,6.79-.12,2.38.71,4.45.92,8.38.32,2.28-.09,3-.66,5.13-1.61a146,146,0,0,0,23.53-5.73c2.72-.77,5.07-1.73,7.74-2.66.78-.3,1.6-.55,2.63-1,.54.44,2.13,0,3.93-.68.9-.33,1.86-.72,2.76-1.07s1.72-.75,2.4-1c.33-.57.42-1,.72-1.57l3.39-1.62c1.13-.52,2.19-1.16,3.28-1.73,2.15-1.2,4.36-2.29,6.5-3.66l.65.9c6.73-4.19,5.87-2.52,12.41-6.23l.3.35a23.81,23.81,0,0,0-1.25,3c-4.23,3.05-.69,1.91-1.06,2.83l3.94-2.8c1.3-.93,2.53-2,3.81-3l3.36-2.55,3.28-2.75,3.26-2.75,3.09-2.88c.13-1.06.29-2.08.4-3.12l1.07-1,4.2-3.83c.7-.65,1.41-1.27,2.1-1.94l2-2c.88-1,1.9-2.2,2.88-3.32a22.21,22.21,0,0,1,2.56-2.77c.9-1.14,1.8-2.26,2.68-3.38s1.67-2.29,2.49-3.42l2.44-3.4c.75-1.16,1.5-2.32,2.26-3.48.53-.83,1.52-2.2,2.7-4.08s2.62-4.23,4.16-6.93,3.22-5.74,4.75-9c.77-1.65,1.64-3.31,2.39-5.05l2.24-5.26a163,163,0,0,0,6.8-20.52c.86-3,1.41-5.76,1.88-8,.23-1.11.44-2.08.61-2.91s.26-1.52.34-2c.55-3.19,1.13-6.38,1.42-9.6l.48-2.85c.17-.95.32-1.91.42-2.87l.7-5.76c.16-2.65.19-5.62.24-8.28C337.38,169.88,337.22,168.19,337.11,166.5Zm-15.05-3.21c.06.59.09,1.19.12,1.79,0-.74-.1-1.49-.2-2.26s-.15-1.57-.2-2.37Zm.14,2.12c0,.22,0,.45,0,.67C322.23,165.86,322.22,165.64,322.2,165.41Zm7.49-9.59c0-.55,0-1.13,0-1.71a6.21,6.21,0,0,1,0,1.71c-.31.65-.64,1-.94,1.63C329,156.54,329.25,155.63,329.69,155.82Zm-12.5,56.46c-.22.85-.47,1.74-.8,2.72C316.67,214.1,316.93,213.19,317.19,212.28ZM43.55,80.39c.37-.53.77-1,1.18-1.57-.7.93-1.4,1.9-2.11,2.87Zm8,.73a44.42,44.42,0,0,0-2.69,4c.33-.57.65-1.16,1-1.74s.75-1.15,1.16-1.74a42.16,42.16,0,0,1,2.88-3.75l.81-.56c-.31.31-.63.63-1,1C53.07,79.1,52.35,80,51.54,81.12ZM141,36.38l.54-.18c2-.32,4.63-1.18,6-.91C149.15,35.15,145.62,35.54,141,36.38ZM285.44,279.1c.42-.28.82-.54,1.21-.76A4.31,4.31,0,0,1,285.44,279.1Z" transform="translate(-12.04 -16.28)"/></g><path class="cls-4" d="M99.07,282.43c0,10.38,4.86,11.71,1.51,11.71s-6.81-7-6.81-14A40.55,40.55,0,0,1,94,276a18.69,18.69,0,0,1-6.12,3,3.51,3.51,0,0,1-1.08.11.67.67,0,0,1-.44-.11c-1.51-.47-4-3.18-5.26-7.21-2.59,2.27-4.9,4-6.92,4S69,270.21,74,270.21c1.58,0,3.71-1.26,6.37-2.95v-.47c0-10.81,11.79-22.6,16.26-22.6,3,0,5.26,1.41,5.26,3.53,0,1.12-12.72,4.58-16.47,16.37,4.36-2.56,9.51-5,15.21-5,0,0,0,0,.07,0a.13.13,0,0,1,.11,0,.26.26,0,0,1,.18,0v0c1.87.07,3,.87,3,2.52C103.9,262.5,99.07,269.89,99.07,282.43Zm-.18-21.84c-5.45.43-10.24,4.4-14.42,8.15-.07.72-.11,1.47-.11,2.23a9.79,9.79,0,0,0,2.81,6.56c2-.43,5.16-3.17,7.53-5.95A34.38,34.38,0,0,1,98.89,260.59Z" transform="translate(-12.04 -16.28)"/><path class="cls-4" d="M126.82,265.46c-.18.82-3.71,13.22-6.77,14.3a1.1,1.1,0,0,1-.58.11c-3.39,0-4.22-7-4.47-7s-1.66,5.48-4.51,5.48-5.15-1.91-5.15-6.92c0-4.72,2.6-12.43,7.93-12.43,3.71,0,6.34,0,6.34,5.26,0,.5-1.29.94-1.29.14s-.26-3.74-1.59-3.74c-3.53,0-6.67,6.41-6.67,13,0,1.34.15,3.5,1.23,3.5s3.35-7.53,3.35-9.41c0-.72,0-2,2.16-2s3.1,1,3.1,1.77v.58c.11,2.45-.11,9.37,1.08,9.37.76,0,4.72-11.39,5-12.18S127,264.55,126.82,265.46Z" transform="translate(-12.04 -16.28)"/><path class="cls-4" d="M129.38,258.32c2.63,0,6.27-.32,6.27,2.41s-3.46,6.13-4.07,6.13.87-5.08.29-5.08c-2.78,0-5.3,7-3.17,7,.93,0,6.45-.07,6.45,3.1s-5.8,8.36-7.93,8.36-3.5-1.88-2.56-1.88c1.73,0,6.71-5.33,6.71-6.63,0,0-7.75,1.19-7.75-4.65C123.62,264,126.79,258.32,129.38,258.32Z" transform="translate(-12.04 -16.28)"/><path class="cls-4" d="M159.44,254a86.59,86.59,0,0,1-15.17,2.38c-.9,5.09-1.91,11.07-1.91,14.6,0,9.59,3.14,10.38,1,10.38s-5.4-4.22-5.4-12.07a82.7,82.7,0,0,1,1.4-12.65,34.1,34.1,0,0,1-4.39-.18,17.59,17.59,0,0,1-7.93-3.39c-.76-.51-.36-1,.14-.87a80.61,80.61,0,0,0,12.76,1.19l.22-1.08a55.45,55.45,0,0,0,1-5.8c0-3.46,4.4-1.23,4.4,1.48,0,.72-.22,2.19-.51,4.21l-.22,1.23c6.2,0,11.93-.29,14.75-.29C160.56,253.17,160.34,253.71,159.44,254Z" transform="translate(-12.04 -16.28)"/><path class="cls-4" d="M160.63,260.7c0,3-.75,5.87-2.56,5.87s-3.17-.72-3.17-1.51.62-3.89.62-3.89-4.18,8.32-4.47,13.44c.39,2.63.93,3.32.93,3.93,0,1-5.91,2.77-5.91-11.14,0-3.67.47-9,1.7-9,2.41,0,3.53,1.26,3.53,2.77s-.72,3.28-.72,6c0,1.33,0,2.49.11,3.5.93-4.73,4-12.84,5.62-12.84C158.29,257.81,160.63,257.71,160.63,260.7Z" transform="translate(-12.04 -16.28)"/><path class="cls-4" d="M172.93,266.68c0,5.52-1.84,11.79-6.56,11.79-4.26,0-5.27-4.83-5.27-8.47,0-3.39.65-7.57,3.28-8.15.87-2.41,3.07-2.67,4.76-2.67C171.23,259.18,172.93,261.2,172.93,266.68Zm-4-5.3c-1.15,0-.69,3.79-2,4.94,0,4.36-1,10.24,1.26,10.24S172.75,261.38,168.89,261.38Z" transform="translate(-12.04 -16.28)"/><path class="cls-4" d="M189.9,272.59c0,5.44.69,5.12.69,6.16s-5.44.29-5.44-5.8a70.38,70.38,0,0,1,1.26-11.57c-1.59,4-4.33,14.45-5.73,16.51a.43.43,0,0,1-.29.36h-.11a1.24,1.24,0,0,1-.43.07c-5.26,0-4.76-12.25-4.76-12.79s-.4-.4-.4-1,5.3-1,5.3,1.34c0,.75-.14,4.64-.14,5.83a16.5,16.5,0,0,0,.18,2.49c1.37-4.58,4.47-14,7.06-15.5a.78.78,0,0,1,.29-.14,1.34,1.34,0,0,1,.4-.07,5.47,5.47,0,0,1,.68,0,1.78,1.78,0,0,1,1,.18c1.15.33,2.27,1,2.27,1.88C191.74,262.25,189.9,269.85,189.9,272.59Z" transform="translate(-12.04 -16.28)"/><path class="cls-4" d="M204.9,266.68c0,5.52-1.84,11.79-6.56,11.79-4.25,0-5.26-4.83-5.26-8.47,0-3.39.65-7.57,3.28-8.15.86-2.41,3.06-2.67,4.75-2.67C203.21,259.18,204.9,261.2,204.9,266.68Zm-4-5.3c-1.15,0-.68,3.79-2,4.94,0,4.36-1,10.24,1.26,10.24S204.72,261.38,200.86,261.38Z" transform="translate(-12.04 -16.28)"/><path class="cls-4" d="M228.8,278.47c-4.73,0-4.65-9.81-4.65-9.81s-2.89,9.16-4.08,9.16-4.14-.54-4.14-3.75,1.91-14.06.72-14.06c-2.09,0-3.64,13.19-4.79,17.41.25,1,.29,1.3-.62,1.3-5,0-4.25-10-4.25-13.73,0-.54-.43-.54-.43-1.08,0-1.09,5.08-.47,5.08,1.62s-.4,4.54-.4,7.13c0,.54,0,1,0,1.41.76-4.51,3-16,6.09-16,6.2,0,2.92,14.56,3.35,14.56s2.85-8.8,4.69-8.8,3.93.47,3.93,2.42c0,1.19-.47,3-.47,5.37C228.87,276.84,230.31,278.47,228.8,278.47Z" transform="translate(-12.04 -16.28)"/><path class="cls-4" d="M242,266.14c0,6.81-2.73,11.86-4.79,11.86h-.07c-4.69,0-5.26-6.74-5.26-10.06a64.64,64.64,0,0,1,.39-6.59c0-1.59,4.54-.18,4.54,1.62,0,1.3-.21,3.46-.21,5a18.58,18.58,0,0,0,1.37,7.64c1.48-.79,2.77-6.92,2.77-7.89S242,265.53,242,266.14Zm-5.51-10.52a6.5,6.5,0,0,1-3.82.21c-.9-.29-.87-1.12,1.12-1.76s3.57-2.92,4.25-3.14,2.24.65,2.63,1.55C240.77,252.84,238.49,254.9,236.44,255.62Z" transform="translate(-12.04 -16.28)"/><path class="cls-4" d="M262.17,265.46c-.18.82-3.71,13.22-6.77,14.3a1.1,1.1,0,0,1-.58.11c-3.39,0-4.21-7-4.47-7s-1.65,5.48-4.5,5.48-5.16-1.91-5.16-6.92c0-4.72,2.6-12.43,7.93-12.43,3.72,0,6.35,0,6.35,5.26,0,.5-1.3.94-1.3.14s-.25-3.74-1.59-3.74c-3.53,0-6.66,6.41-6.66,13,0,1.34.14,3.5,1.22,3.5s3.35-7.53,3.35-9.41c0-.72,0-2,2.16-2s3.1,1,3.1,1.77v.58c.11,2.45-.1,9.37,1.09,9.37.75,0,4.72-11.39,5-12.18S262.36,264.55,262.17,265.46Z" transform="translate(-12.04 -16.28)"/><path class="cls-4" d="M204.75,140a35.18,35.18,0,0,0-1-16.31h0l-1.9-6.27a13.61,13.61,0,0,0-25.78,0l-1.91,6.27a35.18,35.18,0,0,0-1,16.31,15.34,15.34,0,0,0,7.9,10.69L179,198.35a9.38,9.38,0,0,0,2.37,7.3,10.36,10.36,0,0,0,14.64.66,8.08,8.08,0,0,0,.65-.66,9.24,9.24,0,0,0,2.38-7.1l-2.15-47.87A15.32,15.32,0,0,0,204.75,140Zm-5.84-1a9.38,9.38,0,0,1-6.16,7.08,3,3,0,0,0-1.91,2.91L193.09,199a3.46,3.46,0,0,1-.89,2.69,4.6,4.6,0,0,1-6.45,0,3.58,3.58,0,0,1-.87-2.89L187.12,149A3,3,0,0,0,185.2,146,9.4,9.4,0,0,1,179,139a29.28,29.28,0,0,1,.82-13.54l1.9-6.27a7.69,7.69,0,0,1,14.43,0l1.9,6.27h0A29.28,29.28,0,0,1,198.91,139Z" transform="translate(-12.04 -16.28)"/><path class="cls-4" d="M159.93,140a3,3,0,0,0,.87-2.1V111.16a3,3,0,1,0-5.93,0v25.46l-8,8a3,3,0,0,0-.87,2.25l2.6,51.9a4.07,4.07,0,0,1-1.12,3,4.18,4.18,0,0,1-5.91,0l0,0a4.07,4.07,0,0,1-1.12-3L143,146.9a3,3,0,0,0-.87-2.25l-8-8V111.16a3,3,0,1,0-5.93,0v26.69a3,3,0,0,0,.87,2.1l8,8-2.53,50.59a10,10,0,0,0,20,1c0-.32,0-.65,0-1L152,147.92Z" transform="translate(-12.04 -16.28)"/><path class="cls-4" d="M140,137.85a3,3,0,0,0,3-3V111.16a3,3,0,0,0-5.94,0v23.72A3,3,0,0,0,140,137.85Z" transform="translate(-12.04 -16.28)"/><path class="cls-4" d="M146,111.16v23.72a3,3,0,1,0,5.93,0V111.16a3,3,0,1,0-5.93,0Z" transform="translate(-12.04 -16.28)"/><path class="cls-4" d="M166.73,63.71a89,89,0,1,0,89,89A89,89,0,0,0,166.73,63.71Zm0,172a83,83,0,1,1,83.05-83A83,83,0,0,1,166.73,235.72Z" transform="translate(-12.04 -16.28)"/><path class="cls-4" d="M173,205.7a55,55,0,0,1-12.57,0,3,3,0,0,0-.69,5.89,60.18,60.18,0,0,0,13.94,0,3,3,0,1,0-.58-5.9H173Z" transform="translate(-12.04 -16.28)"/><path class="cls-4" d="M207.92,114.11a3,3,0,0,0-.36,4.17,53.39,53.39,0,0,1-3.14,72.21,3,3,0,0,0,4.18,4.21,59.32,59.32,0,0,0,3.51-80.24,3,3,0,0,0-4.18-.36Z" transform="translate(-12.04 -16.28)"/><path class="cls-4" d="M146.84,102.91a2.88,2.88,0,0,0,1-.2,53.82,53.82,0,0,1,31.44-1.92A3,3,0,0,0,180.72,95a59.79,59.79,0,0,0-34.91,2.15,3,3,0,0,0,1.05,5.74Z" transform="translate(-12.04 -16.28)"/><path class="cls-4" d="M113.35,152.68a53,53,0,0,1,10.2-31.4,3,3,0,1,0-4.74-3.57l0,.07a59.32,59.32,0,0,0,5.95,76.76,3,3,0,1,0,4.21-4.19h0A53,53,0,0,1,113.35,152.68Z" transform="translate(-12.04 -16.28)"/></g></g></svg>