<svg xmlns="http://www.w3.org/2000/svg" viewBox="0 0 325.39 318.58"><defs><style>.cls-1{isolation:isolate;}.cls-2{fill:#fff;}.cls-3{mix-blend-mode:multiply;}.cls-4{fill:#0d84ce;}</style></defs><title>circulo experiencias</title><g class="cls-1"><g id="Capa_1" data-name="Capa 1"><circle class="cls-2" cx="158.7" cy="161.29" r="153.5"/><g class="cls-3"><path class="cls-4" d="M313.35,93l1.5,2.44c1,1.71,2.23,3.49,3.28,5.42a26.16,26.16,0,0,0-2.25-5.53c-.5-1-1-2-1.58-3s-1.18-2-1.75-2.91l-3.61-4.23c.06.88,1.23,2.91,3,5.63C312.37,91.55,312.88,92.25,313.35,93Z" transform="translate(-10.93 -15.88)"/><path class="cls-4" d="M22.47,239.9c-.46-1.06-.91-2.1-1.27-3l-1.78-3.72c-.57-1.22-1.06-2.48-1.61-3.79-.53-1.48-1.08-3-1.59-4.43s-.91-3-1.37-4.51a5.69,5.69,0,0,0-1.44-1c-.49-1.36-.85-2.67-1.23-4s-.72-2.63-1.11-4a25.2,25.2,0,0,0,.09,5.77c.44,1.83,1.06,3.62,1.59,5.43s1.08,3.61,1.76,5.38l1.87,3.58c.32.6.63,1.21.95,1.8l1,1.72,2.55,5.78c.94,1.86,1.87,3.72,2.84,5.65.43.07,1,.39,1.43.46.29-.52-.33-2.13-1.23-4.06Z" transform="translate(-10.93 -15.88)"/><path class="cls-4" d="M67.66,300.78c-2.22-1.64-5.1-4-8.86-6.86l-3.92-3.81c-1.88-1.78-2.9-2.34-7.19-6.61l-.75.81c1.55,2.6,4.86,5.86,7.58,8.51,1.5.92,3.14,2.11,4.69,2.93L62,298.81c1,1.06,2,2.14,3.06,3.15,1.44,1,3.11,2.12,4.58,3.05a6.82,6.82,0,0,1,2-.41A16.91,16.91,0,0,0,67.66,300.78Z" transform="translate(-10.93 -15.88)"/><path class="cls-4" d="M336,166.1c-.15-1.69-.22-3.38-.46-5l-.52-4.25c-.17-1.38-.36-2.77-.65-4.21-.61-3.18-1.17-6.36-2-9.48-.28-1.29-.56-2.57-.83-3.83s-.64-2.5-1-3.74c-.66-2.48-1.27-5-2.13-7.47-.22-1.49-.44-3-.7-4.47a27.15,27.15,0,0,0-.15-4.77,28.71,28.71,0,0,0-1.16-5.37l-2.76-6.61c-1.84-2.38-1.74,0-.91,5.18-.42.05-.81.26-.87,1.11s.23,2.33.93,5c-1-2.72-2.12-3.78-3.35-6-.34.49-2.52-2.84-1.19,2.24a5.59,5.59,0,0,1-1.37-.89c-1.88-3.78-2.21-2-1.54.81.31,1.41.64,2.81.9,4.18s.44,2.75.61,4l-.17.08c-.46.21-1,.45-.49,3.23l-.58.26c-.72-.59-1.21-.14-1,1.85s1.29,5.45,3.34,11.15c0,.84.06,1.75.09,2.66s0,1.82,0,2.66c-1.43-2.22-1.82,0-1.92,3.34,0,1.66-.12,3.64-.18,5.49a37.32,37.32,0,0,1-.37,4.81c.52,2,.95,6.7,1.58,4.74.56,1,.34,3.39.53,4.95.44,3.66-.12,6.33-.69,5.33a3.26,3.26,0,0,1-.8,2,3.3,3.3,0,0,0-.4,1.29c-.11.66-.12,1.6-.18,3a32,32,0,0,0-.42,4c0,.62,0,1.2,0,1.75s0,1,0,1.47c.11,1.74.54,2.53,1.24,1.36.05,1.18.1,2.5.16,3.92s0,2.92-.07,4.46a46.64,46.64,0,0,1-1.12,9.13c-.37,1.95-1.13,4.57-1.94,7.75-1,3.12-2.05,6.8-3.6,10.69a152.81,152.81,0,0,1-12.19,25,170.28,170.28,0,0,1-16.07,22.14l-3.75,4.33c-1.24,1.3-2.38,2.53-3.41,3.66L273,280.72l-1.35,1.42c-.84.89-1.54,1.68-2.1,2.35l-1.8,1.81L265.86,288l-3.77,3.48c-1.28.17-1.75,0-5,3.82a55.53,55.53,0,0,0-6.38,4.25c-1.53,1.25-2.48,2.16-2.52,2.77a15,15,0,0,1-3.31,1.75c.34-.66-.2-.51-1.14,0s-2.33,1.25-3.6,1.95c-.79.59-1.7,1.21-2.67,1.84s-2.09,1.19-3.21,1.81l-3.51,1.81c-1.2.6-2.45,1.1-3.67,1.65l-3.58,1.58-3.36,1.35c-2.1.87-3.86,1.71-5.11,2.35-8.91,2.73-18.23,5.3-27.66,5.67-7.87,2-15.69,1.93-23.56,1.31-2-.21-4-.33-5.94-.6s-4-.53-6.05-.75-4.09-.62-6.21-.87-4.24-.63-6.46-.85c.08.43-1.14.51-2.89.22s-4-.83-6.11-1.36a9.47,9.47,0,0,0-3.63-2.05c-1.57-.56-3.46-1-5.46-1.64a49.93,49.93,0,0,1-12.38-4.78c-5.45-3-13-6.68-20.42-11.35s-14.61-10.26-19.42-15.9c-1.37-1.05-2.77-2.66-4.16-4a17.24,17.24,0,0,0-3.52-2.9c-1.83-2.31-4-4.9-6.32-8-.6-.75-1.21-1.51-1.83-2.3s-1.22-1.64-1.86-2.47l-2-2.58-1-1.32-1-1.39c-.08-.61,0-1-.07-1.64-.89-1.64-1.91-3.26-2.77-5l-2.57-5.08c-1.33-2.25-2.39-4.35-3.65-6.64-.39-.68-.72-1.39-1.17-2.33-1.27-2.58-.79-3.16-2.32-5.87-1-1.8-2-3.34-3.2-5.38-.37-1-.69-2.28-1.07-3.55a15.72,15.72,0,0,0-1-5.11c-.58-2.07-1.55-4.42-2.44-7-2.49-4.95-2.29-11-3.75-15.74,0-2.14-.09-4.27,0-6.39a18.21,18.21,0,0,0,0-4.19c-.15-1.58-.2-3.27-.25-4.71a20,20,0,0,0-1,2.76l-.28-4.1-.13-2.06,0-2.06-.07-4.12c0-1.38.07-2.75.1-4.12.76,1.4,1-.5,1.24-3.2a53.18,53.18,0,0,1,1.15-8c.57-2.56,1.31-6.66.68-7.49.18-1.16.37-2.37.56-3.63s.38-2.54.69-3.8c1.31-5.07,2.83-10.34,4.64-12.83,2.74-6.75.91-4.57,1.93-8.6,1.64-4.94,2.11-2.33,4.07-7.94,2.63-8.72,7.83-15.66,13.52-22.14-.36,1.28-2.22,3.77-2.88,5.47.22.26.7-.17,1.36-1s1.44-2.1,2.41-3.41,2-2.79,2.91-4.11a27.44,27.44,0,0,1,2.72-3.13c3.57-4.85,7.86-8.64,12.09-12.53,1.09-1,2.2-1.88,3.28-2.85s2.14-2,3.29-3c2.25-2,4.4-4.18,6.71-6.47l3.26-1.9c1.08-.59,2.19-1.15,3.34-1.74s2.13-1.29,3.15-2l3.15-1.91c-.1-.15-.24-.34-.64-.89a35.55,35.55,0,0,1,11-5.62c-2,1.41-1.7,1.72-.52,1.28A34.14,34.14,0,0,0,110,44.47a25.18,25.18,0,0,0-2.84.15c1.28-.73,2.61-1.48,4-2.11s2.69-1.14,3.9-1.57c2.41-.91,4.37-1.21,5-.84a18.87,18.87,0,0,0,4.22-1.36l3.89-1.61c1.38-.29,2.71-.64,3.94-.82s2.32-.33,3.18-.38c1.36-.09,2.12,0,2,.57l-1.41.3c-1.59.37-3.2.68-4.66,1.07L127.24,39c-1.08.33-1.91.58-2.34.76s-.49.27,0,.21c2.34.07,6.8-1.52,11.22-2.57a47.72,47.72,0,0,1,6.16-1.27c1.8-.23,3.21-.32,3.94.07a15.53,15.53,0,0,0,4.34-.77,11.73,11.73,0,0,1,4-.78c2.36.5,9.47-.62,14.48-.4a12.65,12.65,0,0,0,3.39.59c1.46.17,3.15.33,4.81.46.83.08,1.64.13,2.41.24s1.5.23,2.14.36a5.89,5.89,0,0,1,2.6.9c1.63.06,3.17.31,4.64.5s2.9.37,4.26.66l3.94.85,1.88.43,1.83.53c2.42.7,4.77,1.35,7.11,2.22l3.58,1.22,3.68,1.4a54.34,54.34,0,0,1,6.42,2.73c2,.89,3.78,1.94,5.6,3,.91.52,1.83,1,2.74,1.56l2.78,1.69c.95.58,2,1.13,3,1.75s2.06,1.29,3.18,1.95c-.58.08-.93.25-1.52.38l2.82,2.11L242.91,62a26.24,26.24,0,0,1,2.51,1.86A25.64,25.64,0,0,0,250.48,67c4.59,3.81,6.45,4.5,6.21,3.19-1.48-1.66-3.07-3.6-4.78-5.44,1.79,1.26,1.66.13,4.33,2.28.4-.15,1-.14,1.39-.29,1.67.63,3.06,1.21,4.68,2,.91.43,8.34,7,14.61,14.35,1.55,1.85,3.15,3.65,4.48,5.46l2,2.57c.63.81,1.22,1.58,1.72,2.32,2.06,2.94,3.49,4.87,3.65,4.83-1.1-1.68-2.17-3.4-3.23-5.13a26.53,26.53,0,0,0-1.2-2.56,15.42,15.42,0,0,0-1.92-2.71c-1.12-2-2.57-4.15-3.84-6.1-1.8-2.32-3.86-4.12-5.32-5.7s-2.58-2.71-2.69-3.57l-2.7-2.7c-.94-1-2-1.84-3-2.82s-2.1-2-3.23-3L258.14,61c-1.14-1-2.34-2-3.55-2.89L251,55.32l-3.58-2.6c-1.16-.87-2.29-1.71-3.43-2.45.83.06-1.95-1.28-3-2a39.19,39.19,0,0,0-4.52-2.83L233.74,44c-1-.49-1.94-1-2.92-1.42-2-.95-3.94-1.92-5.83-2.68s-3.58-1.6-5-2.21l-4.74-1.74c-1.57-.61-3.21-1-4.82-1.55-1.45-.62-3.16-1.28-4.68-1.75-1.65-1.05-5.51-1.61-7.27-2.29-1.66-.36-3.25-.73-4.86-1.05l-4.91-.79a134.71,134.71,0,0,0-30.22-2.4c-2.76.29-5.52.5-8.27.87l-4.11.62-2.05.31-2,.4-4.32.66c-1.45.21-2.87.56-4.31.83l-1.28.33c-.16-.25-.66-.29-1.36-.21-.36,0-.76.11-1.19.2s-.89.24-1.36.38a31.21,31.21,0,0,1-5.09,1.29c-2.29.7-5,1.59-7.83,2.38-2.76,1-5.61,1.82-8.07,2.64C98.75,40.81,91.94,44.56,86,47c-1.84,1.15-3.68,2.3-5.5,3.48l-5.84,4c-2,1.37-3.81,2.87-5.68,4.26-1.08.65-2,1.26-2.91,1.86l-2.73,1.79-1,.94a8.59,8.59,0,0,1-.64-2.41l3.45-3c1.15-1,2.37-1.93,3.54-2.9s2.37-2,3.63-3l3.75-2.85L78.46,48c.8-.36,1.61-.74,2.5-1.21s1.83-1,2.92-1.71l1.76-1.16c.64-.4,1.33-.85,2.08-1.34.45-.76.89-1.56,1.33-2.37,2.36-1.47,4.57-2.63,6.81-3.89,1.12-.61,2.23-1.3,3.45-1.9l3.84-1.95c.64-.55,1.28-1.12,2.18-1.8,3.61-1.49,7.18-3.1,11.15-4.45,1.47-.13,2.66-.19,4.12-.31.18.43,4.22-.61,4.38-.19l3-1,3.26-1c0,.53,1.35.33,3.1-.15s4-1.09,5.85-1.62c2.7-.6,5.16-.9,7.88-1.32l-.19-.85c2.05-.34,5.08-.64,8.22-1,1.56-.19,3.17-.24,4.69-.28s3-.05,4.22,0a66.72,66.72,0,0,0,7.49.16c2.69.06,5.11.22,5.81.68,2.21,0,4.4.27,6.6.42,1.1.09,2.2.15,3.29.26l3.29.4c1.53.26,3.05.46,4.5.8l4.22,1c2.72.61,5.19,1.48,7.41,2.09s4.15,1.3,5.77,1.69a12.61,12.61,0,0,0,3.87.51c-.38-.81-3.19-1.88-6.36-3-1.58-.55-3.29-1-4.81-1.47s-2.87-.94-3.81-1.27c-3.56-.68-7.11-1.42-10.71-1.86a111.3,111.3,0,0,0-32.2-2.77,4.65,4.65,0,0,0-1.73-.25c-.82,0-1.87.11-3.08.25s-2.57.33-4,.55-3,.59-4.58.91c-.29-.32-1-.43-2-.4a16.89,16.89,0,0,0-1.73.14c-.64.11-1.34.24-2.08.4-1.49.32-3.15.73-4.87,1.16s-3.45,1-5.14,1.5l-2.74.69c-1.53.31-3.12.7-4.72,1.06s-3.21.71-4.71,1.16l-3.84,1.28c-1.29.42-2.57.84-3.82,1.35l-3.78,1.47c-1.26.49-2.52,1-3.75,1.55-2.09.91-4.2,1.8-6.27,2.76l-6.11,3.07c-1.4.71-2.79,1.58-4.21,2.39S83.33,38.79,82,39.62l-6.37,4.09-6.17,4.41A166.59,166.59,0,0,0,49,66.49l-3.76,4-3.58,4.16a25.11,25.11,0,0,0-1.86,2c-.63.82-1.31,1.77-2,2.82S36.23,81.7,35.41,83L33,87.14l-1.7,2.56-1.61,2.67c-.54.89-1.07,1.79-1.6,2.67S27,96.81,26.56,97.71c-.14.87-.28,1.74-.51,2.88l-1.47,3.08c-.46,1-.88,2.11-1.31,3.16a10.6,10.6,0,0,0,.13,1.25,23.47,23.47,0,0,0,.09,3A61.24,61.24,0,0,0,26.85,105c1.08-2,2.08-4.25,3.41-7.19l2.68-4.63c.56-.66,1.06-1.36,1.81-2.23-.91,1.73-1,2.69-.65,2.83s1.25-.53,2.62-1.83a18,18,0,0,0,.35,3.23,77.12,77.12,0,0,0-7.31,13.61c-2.05,4.69-3.83,9.33-5.91,13.44-.63,2-1.44,4-2,6a34.62,34.62,0,0,0-1.19,5.57c-.52,1.57-1,3.42-1.44,5a149.45,149.45,0,0,0-4.43,33.87l-1.33.1c-.41.72-.47,2.95-.39,6,.1,1.53.26,3.28.44,5.16.09.93.15,1.9.29,2.89s.27,2,.41,3c.42.48.81.68,1.22,1.16.06.89.11,1.77.16,2.64s.18,1.72.27,2.57c.18,1.72.36,3.44.55,5.22a9.55,9.55,0,0,1-.13,1.46l-.22.06c-.4,3.54,1.62,10.46,4.44,19.43.46,1.74,1.12,3.43,1.67,5.11s1.07,3.34,1.73,4.87c.76,2.09,1.52,4.26,2.32,6.39s1.73,4.16,2.54,6.09c.75,1.66,1.65,3.23,2.46,4.85s1.62,3.25,2.56,4.8A26.65,26.65,0,0,0,36,259.25c.93,1.69,2.07,3.29,2.78,4.69.92,1.31,1.76,2.67,2.73,3.91l2.84,3.75,1.41,1.85,1.5,1.78,3,3.54c1.17,1.6,2.28,2.88,3.51,4.44.71.68,1.4,1.37,2.62,2.62s3,3.08,5.81,6.05c2.53,2.25,5.31,4.1,7,6l4.41,3.24,4.55,3a32.33,32.33,0,0,0,5.19,4.66,56.94,56.94,0,0,0,6.81,4.45c1.14.23,2.47.68,3.9.92l6,3.07,6.08,2.91c2.05.93,4.14,1.76,6.21,2.62,1.5.86,1.85,1.21,2,1.54s.28.57,1.31,1.1a44.92,44.92,0,0,0,12,2.85A161.56,161.56,0,0,0,147.61,332c1.65.38,3.32.76,5.28,1.1a20.7,20.7,0,0,0,5.91,1,51.56,51.56,0,0,0,7.57-.42l6.77.19c2.26,0,4.52-.08,6.79-.13a17,17,0,0,0,8.37.33c2.29-.09,3-.66,5.14-1.61A147.34,147.34,0,0,0,217,326.77c2.72-.77,5.07-1.73,7.74-2.66.78-.3,1.6-.55,2.63-1,.53.44,2.13,0,3.93-.68.9-.33,1.86-.72,2.76-1.08s1.71-.75,2.4-1c.33-.57.42-1,.72-1.57l3.39-1.62c1.13-.52,2.18-1.16,3.28-1.73,2.15-1.2,4.36-2.29,6.5-3.66l.64.89c6.74-4.18,5.87-2.51,12.42-6.22l.3.35a23.81,23.81,0,0,0-1.25,3c-4.23,3-.69,1.91-1.06,2.83l3.93-2.8c1.31-.94,2.54-2,3.81-2.95l3.36-2.55,3.28-2.75,3.27-2.76,3.09-2.87c.13-1.06.29-2.08.4-3.12l1.06-1,4.21-3.83c.7-.65,1.41-1.28,2.09-1.94l2-2c.89-1,1.91-2.2,2.89-3.32a21.51,21.51,0,0,1,2.56-2.77l2.68-3.38c.87-1.12,1.67-2.29,2.49-3.42s1.63-2.27,2.43-3.4,1.51-2.32,2.26-3.48c.54-.83,1.53-2.2,2.7-4.08s2.63-4.23,4.16-6.93,3.23-5.74,4.76-9c.77-1.65,1.64-3.31,2.39-5.05l2.24-5.26a163,163,0,0,0,6.8-20.52c.86-3,1.41-5.77,1.88-8,.23-1.11.44-2.09.61-2.91s.25-1.52.34-2c.54-3.19,1.13-6.38,1.42-9.6L335,188c.17-1,.32-1.91.42-2.87l.69-5.76c.17-2.65.2-5.62.25-8.28C336.28,169.48,336.12,167.79,336,166.1ZM321,162.88c.06.6.09,1.2.12,1.79-.05-.73-.11-1.48-.2-2.25s-.15-1.58-.21-2.37Zm.14,2.13c0,.22,0,.45,0,.67C321.13,165.46,321.12,165.24,321.1,165Zm7.48-9.59c0-.55,0-1.13,0-1.72a6.19,6.19,0,0,1,0,1.72c-.3.65-.63,1-.94,1.63C327.92,156.14,328.15,155.23,328.58,155.42Zm-12.49,56.46c-.22.84-.48,1.74-.81,2.72C315.56,213.7,315.83,212.79,316.09,211.88ZM42.45,80c.37-.54.77-1.06,1.17-1.57-.69.93-1.39,1.9-2.1,2.87Zm8,.73a46.79,46.79,0,0,0-2.68,4c.33-.57.65-1.17,1-1.74s.75-1.15,1.16-1.74a42.21,42.21,0,0,1,2.88-3.76l.81-.55c-.32.31-.63.63-1,1C52,78.7,51.24,79.62,50.43,80.72ZM139.86,36l.54-.18c2-.33,4.62-1.18,6-.91C148.05,34.75,144.52,35.14,139.86,36ZM284.33,278.69c.42-.27.83-.53,1.22-.75A3.86,3.86,0,0,1,284.33,278.69Z" transform="translate(-10.93 -15.88)"/></g><path class="cls-4" d="M129.56,167.7l6.21-6.22,6.36,6.47a2.09,2.09,0,0,0,.45.33l1.47-4.18-6.82-6.93a2,2,0,0,0-1.44-.6,2.29,2.29,0,0,0-1.44.59l-7.67,7.66a2,2,0,0,0,2.88,2.88Z" transform="translate(-10.93 -15.88)"/><path class="cls-4" d="M206.74,127.62a2,2,0,0,0-3.82,0L196,146.88l-11.25-31.25a2,2,0,0,0-3.82,0l-11.38,31.62-7-19.61a2,2,0,0,0-3.83,0l-13.52,37.6h0l-3.23,9.09-4.21.05v-3.22l2.85,2.9,1.51-4.26-4.82-4.9a2,2,0,0,0-1.44-.6,2.13,2.13,0,0,0-1.44.59l-7.67,7.66a2,2,0,0,0,2.88,2.88l4.06-4.07v5s0,.07,0,.11a2,2,0,0,0,2,2h0c2.36,0,4.74,0,7.11-.06q8.81-.07,17.63-.1,9.17,0,18.3,0l8.09,0q9.12,0,18.18.11l-.28,0h17.43a2,2,0,0,0,1.91-2.72Zm-1.91,6.69,3,8.22-3,3.43-3-3.3Zm-22-12,4.24,11.78L182.66,139l-4.21-4.47Zm-22.25,12,3,8.3-2.9,3.33-3-3.38Zm-.84,40.06H146.16l0-.09,9.86-27.39,3.14,3.47a2,2,0,0,0,1.5.67h0a2.07,2.07,0,0,0,1.52-.7l2.91-3.34,2.24,6.24Zm26.35,0h-22l5.48-15.14,2.16-6,5.21-14.48,4.3,4.57a2,2,0,0,0,1.48.64h0a2.05,2.05,0,0,0,1.49-.67l4.42-4.89,5.21,14.46,2.16,6,5.54,15.52Zm23.5,0h-3.76l-7.69-21.49,2.12-5.89,3.07,3.39a2,2,0,0,0,1.51.67h0a2,2,0,0,0,1.51-.7l3-3.44,9.88,27.46Z" transform="translate(-10.93 -15.88)"/><path class="cls-4" d="M129.56,160l6.21-6.22,6.36,6.47a2,2,0,0,0,1.45.6,2,2,0,0,0,1.42-.58,2,2,0,0,0,0-2.87l-7.8-7.93a2,2,0,0,0-1.44-.6,2,2,0,0,0-1.44.59l-7.67,7.67a2,2,0,1,0,2.88,2.87Z" transform="translate(-10.93 -15.88)"/><path class="cls-4" d="M135.32,117.5a7.34,7.34,0,1,0-7.34-7.34A7.34,7.34,0,0,0,135.32,117.5Zm0-10.61a3.28,3.28,0,1,1-3.28,3.27A3.28,3.28,0,0,1,135.32,106.89Z" transform="translate(-10.93 -15.88)"/><path class="cls-4" d="M223.33,89.77c-.28,0-6.45-.11-10.85,3.35-4.4-3.45-10.58-3.36-10.85-3.35a1.95,1.95,0,0,0,.05,3.89h0c.07,0,5.86-.07,9,3.13a2,2,0,0,0,1.38.57l.34,0c.11,0,.22,0,.34,0a2,2,0,0,0,1.38-.57c3.17-3.18,8.92-3.13,9-3.13a1.95,1.95,0,1,0,.09-3.89Z" transform="translate(-10.93 -15.88)"/><path class="cls-4" d="M188.54,103s4.39,0,6.8,3a1.94,1.94,0,0,0,1.52.73.75.75,0,0,1,.54,0,2,2,0,0,0,1.53-.73c2.4-3,6.7-3,6.8-3a2,2,0,0,0,.11-3.9,13.69,13.69,0,0,0-8.71,3.12,13.68,13.68,0,0,0-8.71-3.12,2,2,0,0,0-1.89,2A1.93,1.93,0,0,0,188.54,103Z" transform="translate(-10.93 -15.88)"/><path class="cls-4" d="M240.44,69.76H105.77l1.06,105.32c0,4.65,2.87,8.86,7.56,11.27l50.46,25.89a18.18,18.18,0,0,0,16,.13l52.79-26c4.87-2.4,7.86-6.85,7.81-11.63ZM232.7,184.4l-52.8,26a15.9,15.9,0,0,1-14-.11l-50.46-25.89c-3.94-2-6.32-5.5-6.36-9.32L108,72H238.23l1,102.8C239.31,178.7,236.79,182.39,232.7,184.4Z" transform="translate(-10.93 -15.88)"/><path class="cls-4" d="M234.65,76h-123l1,96.2c0,4.25,2.63,8.1,6.91,10.3l46.09,23.65a16.59,16.59,0,0,0,14.65.11l48.22-23.72c4.45-2.19,7.18-6.26,7.14-10.62Zm-7.07,104.71-48.22,23.73a14.58,14.58,0,0,1-12.82-.1L120.45,180.7c-3.6-1.85-5.77-5-5.81-8.51l-.94-94.14H232.64l.94,93.9C233.62,175.52,231.32,178.89,227.58,180.72Z" transform="translate(-10.93 -15.88)"/><path class="cls-4" d="M95.44,264.18c0,3.79,3.3,5,1,5-1.81,0-4.11-1.73-5-5.27-3,3.14-8.37,7.45-11.31,7.45a4.27,4.27,0,0,1-3.71-1.65c-1.57-.69-3.94-2.62-3.94-5.32,0-4.14,2.49-8.89,5.67-12.88-1.24-.2-4.1-1.2-4.1-6.6,0-6.16,7.93-15.05,13.28-15.05a4.75,4.75,0,0,1,3,1.21c.48-2,2.46-6.36,3.18-6.36.93,0,2.82,1.89,2.82,3.14s-3.06,5.15-3.06,7.24c0,.65.24,1-.4,1a3.07,3.07,0,0,1-2.38-2.3,2.66,2.66,0,0,1-.88.16c-1.65,0-12.2,7.81-12.2,13.89a5.6,5.6,0,0,0,.2,1.49c1.53.28,4.15-1.77,4.15-1.77,3.3-3.14,6.6-5.27,8.49-5.27,1.49,0,3.5,2.13,3.5,3.5s-17.23,11-17.23,20.73a3.81,3.81,0,0,0,.65,2.09c.08,0,.16,0,.28,0,4.31,0,12.72-10.3,14.21-11.39.76-2.82,2.13-5.31,2.61-5.31,1.94,0,4.43,1.89,4.43,3.22S95.44,260.44,95.44,264.18Z" transform="translate(-10.93 -15.88)"/><path class="cls-4" d="M114.64,271.19c-2,0-4.43-2.38-6.68-5.6-1.81,1.93-3.58,3.22-4.95,3.22-3.58,0-3.34-2.45-2.78-2.45,1.53,0,3.58-1.73,5.64-4.11-2.82-4.83-4.91-10.34-4.91-12.72,0-.8,5.07-4.1,5.07-2a60,60,0,0,0,3.62,9.66c2.42-3.74,4.23-7.41,4.23-8.57,0-1.61,3,.92,3,2.17,0,1.69-2.38,6.24-5.28,10.39,2.26,4.26,4.91,7.92,7.25,7.92C119.84,269.09,117,271.19,114.64,271.19Z" transform="translate(-10.93 -15.88)"/><path class="cls-4" d="M130.46,268.53c-2.33,0-4.59-1.49-2.33-1.49,5,0,4.26-18.15,2.9-18.15-2.54,0-5.12,10.46-6,14.29-.08,2-.12,4.14-.12,6.28,0,10.38,3.06,12.6,1,12.6-8.21,0-6.56-35.79-3.62-35.79,1.53,0,3.58,0,3.58,1.65,0,.89-.28,4.15-.56,8.62.93-3.91,2.21-8.05,3.22-9.1,1.33-1.33,5.31-.56,5.84-.2C139.56,250.66,139.32,268.53,130.46,268.53Z" transform="translate(-10.93 -15.88)"/><path class="cls-4" d="M157.67,256.74c-.28.8-2.61,10.66-8.93,10.66-5.6,0-8.94-5-8.94-9,0-5.24,2.66-10.07,4.27-11.52s5.51-1.2,6.76-.6,2.09,2.42,2.09,4.67c0,4.23-2,6.44-4.63,6.44a11.67,11.67,0,0,1-2.94-.52c-.32,4,2.14,8.05,4.35,8.05,5.11,0,6.93-7.81,7.17-8.49S158,255.89,157.67,256.74ZM145.43,256c5.12,2.18,5.92-6.72,3.87-6.72S145.84,252.47,145.43,256Z" transform="translate(-10.93 -15.88)"/><path class="cls-4" d="M171.24,248.89c0,3.34-.85,6.56-2.86,6.56s-3.54-.81-3.54-1.69.68-4.35.68-4.35-4.67,9.3-5,15c.44,2.94,1.05,3.71,1.05,4.39,0,1.09-6.61,3.1-6.61-12.43,0-4.11.53-10.11,1.9-10.11,2.69,0,3.94,1.41,3.94,3.1s-.8,3.66-.8,6.72c0,1.49,0,2.78.12,3.91,1-5.28,4.42-14.33,6.28-14.33C168.62,245.67,171.24,245.55,171.24,248.89Z" transform="translate(-10.93 -15.88)"/><path class="cls-4" d="M171.6,242.21c0-2.06,1.73-2,3.74-2s4.11,2.42,4.11,4C179.45,247.8,171.6,244.22,171.6,242.21Zm13.28,14.61c-.48,1.89-3.78,11.39-6.56,11.39h-.08c-5.23,0-5.88-7.53-5.88-11.23a70.31,70.31,0,0,1,.45-7.37c0-1.77,5.07-.2,5.07,1.81,0,1.45-.24,3.87-.24,5.6a20.54,20.54,0,0,0,1.53,8.53c1.65-.88,4.54-7.77,4.83-8.81S185,256.17,184.88,256.82Z" transform="translate(-10.93 -15.88)"/><path class="cls-4" d="M200.1,256.74c-.29.8-2.62,10.66-8.94,10.66-5.59,0-8.94-5-8.94-9,0-5.24,2.66-10.07,4.27-11.52s5.52-1.2,6.76-.6,2.1,2.42,2.1,4.67c0,4.23-2,6.44-4.63,6.44a11.6,11.6,0,0,1-2.94-.52c-.32,4,2.13,8.05,4.35,8.05,5.11,0,6.92-7.81,7.16-8.49S200.38,255.89,200.1,256.74ZM187.86,256c5.11,2.18,5.92-6.72,3.86-6.72S188.26,252.47,187.86,256Z" transform="translate(-10.93 -15.88)"/><path class="cls-4" d="M214.1,262.17c0,6.08.77,5.72.77,6.88s-6.08.33-6.08-6.48a79.64,79.64,0,0,1,1.41-12.92c-1.77,4.47-4.83,16.14-6.4,18.44a.47.47,0,0,1-.32.4h-.12a1.56,1.56,0,0,1-.49.08c-5.87,0-5.31-13.68-5.31-14.29s-.44-.44-.44-1.17S203,252,203,254.6c0,.85-.16,5.2-.16,6.53a18.72,18.72,0,0,0,.2,2.77c1.53-5.11,5-15.66,7.89-17.31a.85.85,0,0,1,.33-.16,1.7,1.7,0,0,1,.44-.08,5.1,5.1,0,0,1,.76,0,1.91,1.91,0,0,1,1.13.2c1.29.37,2.54,1.13,2.54,2.1C216.16,250.62,214.1,259.11,214.1,262.17Z" transform="translate(-10.93 -15.88)"/><path class="cls-4" d="M217.61,257.62a15,15,0,0,1,3.46-9.5c1.21-1.24,4.51-1.53,5.39-.64s2.62,5.43,1.37,5.43-1.69-3.54-2.41-3.54c-2.7,0-3.87,16.1-.17,16.1,4.43,0,5.84-7.53,6.28-8.29s1.65-.89,1.21,0-2.74,11.31-8.53,11.31C220.18,268.49,217.61,263.1,217.61,257.62Z" transform="translate(-10.93 -15.88)"/><path class="cls-4" d="M230.81,242.21c0-2.06,1.73-2,3.74-2s4.11,2.42,4.11,4C238.66,247.8,230.81,244.22,230.81,242.21Zm13.28,14.61c-.48,1.89-3.78,11.39-6.56,11.39h-.08c-5.23,0-5.88-7.53-5.88-11.23a70.31,70.31,0,0,1,.45-7.37c0-1.77,5.07-.2,5.07,1.81,0,1.45-.24,3.87-.24,5.6a20.54,20.54,0,0,0,1.53,8.53c1.65-.88,4.54-7.77,4.83-8.81S244.25,256.17,244.09,256.82Z" transform="translate(-10.93 -15.88)"/><path class="cls-4" d="M264.94,254.2c-.2.93-4.14,14.77-7.57,16a1.29,1.29,0,0,1-.64.12c-3.78,0-4.71-7.85-5-7.85s-1.85,6.12-5,6.12-5.76-2.13-5.76-7.73c0-5.27,2.9-13.88,8.86-13.88,4.14,0,7.08,0,7.08,5.87,0,.57-1.45,1-1.45.16s-.28-4.18-1.77-4.18c-3.94,0-7.45,7.16-7.45,14.57,0,1.49.17,3.9,1.37,3.9s3.75-8.41,3.75-10.5c0-.81,0-2.26,2.41-2.26s3.46,1.13,3.46,2v.64c.12,2.74-.12,10.47,1.21,10.47.85,0,5.27-12.72,5.56-13.61S265.14,253.19,264.94,254.2Z" transform="translate(-10.93 -15.88)"/><path class="cls-4" d="M267.8,246.23c2.94,0,7-.36,7,2.7s-3.86,6.84-4.54,6.84,1-5.67.32-5.67c-3.1,0-5.92,7.84-3.54,7.84,1,0,7.2-.08,7.2,3.47s-6.48,9.34-8.86,9.34-3.9-2.1-2.85-2.1c1.93,0,7.48-6,7.48-7.4,0,0-8.65,1.32-8.65-5.2C261.36,252.55,264.9,246.23,267.8,246.23Z" transform="translate(-10.93 -15.88)"/></g></g></svg>