<svg id="Capa_1" data-name="Capa 1" xmlns="http://www.w3.org/2000/svg" viewBox="0 0 323.32 318.58"><defs><style>.cls-1{fill:#fff;}.cls-2{fill:#4b5696;}</style></defs><title>circulo hospedaje</title><circle class="cls-1" cx="157.66" cy="163.29" r="153.5"/><path class="cls-2" d="M341.26,166.83c-.14-1.69-.21-3.38-.45-5l-.52-4.25c-.18-1.38-.36-2.77-.65-4.21-.62-3.18-1.17-6.36-2-9.48-.28-1.29-.56-2.57-.83-3.83s-.64-2.5-1-3.74c-.66-2.48-1.28-5-2.14-7.47-.21-1.49-.43-3-.69-4.47a26.36,26.36,0,0,0-.16-4.78,27.76,27.76,0,0,0-1.15-5.36c-.92-2.21-1.84-4.41-2.77-6.62-1.83-2.38-1.74,0-.9,5.19-.43,0-.81.26-.88,1.11a19,19,0,0,0,.93,5c-1-2.71-2.11-3.77-3.34-6-.34.49-2.53-2.84-1.2,2.23a5.38,5.38,0,0,1-1.36-.88c-1.88-3.78-2.22-2-1.55.81.31,1.41.65,2.81.91,4.18s.44,2.75.61,4l-.17.08c-.46.21-1,.45-.49,3.23l-.59.26c-.72-.59-1.2-.14-1,1.85s1.3,5.45,3.35,11.15c0,.84.06,1.75.09,2.66s0,1.81,0,2.66c-1.43-2.22-1.82,0-1.92,3.34,0,1.66-.13,3.64-.19,5.48a37.7,37.7,0,0,1-.36,4.82c.52,2,.95,6.7,1.58,4.74.56,1,.34,3.39.53,4.95.43,3.65-.12,6.33-.7,5.33a3.2,3.2,0,0,1-.79,2,3.58,3.58,0,0,0-.41,1.3c-.1.66-.12,1.6-.17,3a33.9,33.9,0,0,0-.43,4c0,.62,0,1.2,0,1.75a14,14,0,0,0,0,1.47c.1,1.73.54,2.53,1.24,1.36.05,1.18.1,2.5.15,3.92s0,2.91-.07,4.46a46.64,46.64,0,0,1-1.11,9.13c-.37,2-1.13,4.57-1.94,7.74-1,3.13-2.05,6.8-3.6,10.7a153.62,153.62,0,0,1-12.19,25,170.28,170.28,0,0,1-16.07,22.14l-3.75,4.33c-1.24,1.3-2.38,2.53-3.41,3.66l-1.46,1.63-1.35,1.42c-.84.89-1.55,1.68-2.1,2.35L273,287l-1.89,1.73-3.77,3.47c-1.28.17-1.75,0-5,3.83a55.53,55.53,0,0,0-6.38,4.25c-1.53,1.24-2.48,2.16-2.53,2.77a15.12,15.12,0,0,1-3.3,1.75c.34-.66-.21-.52-1.14,0s-2.33,1.25-3.61,1.95c-.79.59-1.69,1.21-2.67,1.84s-2.08,1.19-3.21,1.81l-3.5,1.81c-1.2.6-2.45,1.1-3.67,1.65l-3.58,1.58-3.36,1.35c-2.1.87-3.87,1.71-5.11,2.35-8.91,2.73-18.23,5.3-27.66,5.67-7.87,2-15.69,1.93-23.56,1.3-2-.2-3.95-.32-5.94-.59s-4-.53-6.05-.76-4.09-.62-6.21-.86-4.24-.63-6.46-.86c.08.44-1.15.52-2.89.22s-4-.82-6.11-1.35a9.6,9.6,0,0,0-3.63-2.06c-1.57-.55-3.46-1-5.46-1.63a49.43,49.43,0,0,1-12.38-4.79c-5.45-2.94-13-6.67-20.42-11.34s-14.61-10.26-19.42-15.91a56.54,56.54,0,0,1-4.16-4,17.24,17.24,0,0,0-3.52-2.9c-1.84-2.31-4-4.91-6.33-8l-1.82-2.3c-.64-.78-1.22-1.64-1.86-2.48l-2-2.57-1-1.32-1-1.39c-.08-.61,0-1-.07-1.64-.89-1.64-1.91-3.26-2.78-5L47,249.59c-1.33-2.25-2.39-4.35-3.66-6.64-.39-.68-.71-1.39-1.16-2.33-1.27-2.58-.79-3.16-2.33-5.87-1-1.8-2-3.34-3.19-5.39-.38-1-.7-2.27-1.07-3.54a15.72,15.72,0,0,0-1-5.11c-.59-2.07-1.55-4.42-2.45-7-2.48-5-2.28-11-3.74-15.74,0-2.14-.1-4.27,0-6.4a18.11,18.11,0,0,0,0-4.18c-.16-1.59-.2-3.27-.25-4.71a20,20,0,0,0-1,2.76l-.28-4.11-.14-2.05,0-2.06-.07-4.12c0-1.38.07-2.75.1-4.12.76,1.4,1-.5,1.24-3.2a53.18,53.18,0,0,1,1.15-8c.56-2.57,1.31-6.66.68-7.49.18-1.16.36-2.38.56-3.63s.38-2.54.69-3.8c1.31-5.07,2.83-10.34,4.64-12.83,2.74-6.76.91-4.57,1.92-8.6,1.64-4.94,2.12-2.33,4.08-7.94,2.63-8.72,7.82-15.66,13.52-22.14-.37,1.27-2.23,3.77-2.88,5.47.21.26.7-.17,1.35-1s1.44-2.1,2.42-3.41L59,88.3a27.1,27.1,0,0,1,2.72-3.12c3.56-4.85,7.85-8.64,12.09-12.54,1.08-.94,2.2-1.87,3.28-2.84s2.14-2,3.29-3c2.25-2,4.4-4.18,6.71-6.48l3.25-1.89c1.09-.6,2.2-1.15,3.35-1.74s2.13-1.29,3.14-2L100,52.85l-.64-.9a35.75,35.75,0,0,1,11-5.61c-2,1.41-1.71,1.72-.52,1.28a34.14,34.14,0,0,0,5.43-2.42,27.52,27.52,0,0,0-2.84.14c1.27-.72,2.61-1.48,4-2.1s2.7-1.14,3.91-1.57c2.41-.91,4.36-1.21,5-.84a19.39,19.39,0,0,0,4.22-1.36l3.89-1.61c1.38-.29,2.71-.64,3.94-.82s2.32-.33,3.18-.39c1.36-.08,2.12.06,2,.58l-1.42.3c-1.59.36-3.2.68-4.66,1.06l-3.86,1.11c-1.07.32-1.9.58-2.34.75s-.48.28,0,.21c2.33.08,6.8-1.51,11.22-2.56a46.29,46.29,0,0,1,6.15-1.27c1.8-.23,3.22-.32,3.95.06a14.79,14.79,0,0,0,4.34-.77,12,12,0,0,1,4-.77c2.36.5,9.47-.62,14.48-.4a13.07,13.07,0,0,0,3.39.59c1.46.17,3.15.32,4.81.46.82.08,1.64.13,2.41.23s1.49.24,2.14.37a6.16,6.16,0,0,1,2.6.89c1.63.07,3.16.32,4.64.51s2.9.37,4.25.65l3.94.86,1.89.43,1.83.52c2.41.71,4.77,1.36,7.11,2.23l3.58,1.22,3.68,1.4A56.09,56.09,0,0,1,226.91,48c2,.9,3.78,1.95,5.6,3,.9.52,1.83,1,2.74,1.55l2.78,1.7c.95.58,1.95,1.13,3,1.75s2.06,1.28,3.18,1.94c-.58.09-.93.26-1.52.39l2.82,2.11,2.69,2.28a24.91,24.91,0,0,1,2.5,1.86,26.14,26.14,0,0,0,5.07,3.09c4.59,3.81,6.44,4.5,6.21,3.19-1.48-1.66-3.07-3.6-4.79-5.44,1.79,1.26,1.67.13,4.34,2.28.39-.15,1-.14,1.39-.29,1.67.63,3.06,1.21,4.68,2,.91.43,8.34,7,14.6,14.35,1.56,1.85,3.16,3.64,4.49,5.46l2,2.57c.64.8,1.23,1.58,1.73,2.32A36.83,36.83,0,0,0,294,98.92c-1.09-1.68-2.16-3.4-3.22-5.13a27.85,27.85,0,0,0-1.2-2.56,15.06,15.06,0,0,0-1.92-2.71c-1.12-2-2.57-4.15-3.84-6.11C282,80.1,280,78.3,278.5,76.72s-2.59-2.71-2.69-3.57c-.86-.85-1.76-1.76-2.7-2.7s-2-1.84-3-2.82-2.09-2-3.23-3l-3.44-2.92c-1.14-1-2.35-2-3.55-2.89L256.28,56l-3.58-2.59c-1.16-.87-2.3-1.71-3.44-2.45.83.06-1.94-1.28-3-2a40.55,40.55,0,0,0-4.52-2.84L239,44.69c-.94-.49-1.93-.95-2.92-1.42-2-1-3.93-1.92-5.82-2.68s-3.58-1.6-5-2.22l-4.74-1.73c-1.58-.61-3.21-1-4.82-1.55A48.73,48.73,0,0,0,211,33.34c-1.66-1.05-5.51-1.61-7.27-2.29-1.66-.36-3.26-.73-4.86-1.05L194,29.21a134.13,134.13,0,0,0-30.22-2.4c-2.76.29-5.53.5-8.27.87l-4.11.62-2,.3-2,.41-4.33.66c-1.45.21-2.87.56-4.3.83l-1.29.32c-.15-.24-.65-.28-1.36-.2-.35,0-.75.11-1.18.2l-1.36.37a30.39,30.39,0,0,1-5.09,1.3c-2.29.69-5,1.59-7.84,2.38-2.75,1-5.61,1.82-8.06,2.64-8.45,4-15.26,7.78-21.18,10.23-1.84,1.15-3.68,2.3-5.5,3.48l-5.84,4c-2,1.37-3.81,2.87-5.68,4.26-1.08.64-2,1.25-2.91,1.86L68.6,63.12l-1,.93a8.12,8.12,0,0,1-.64-2.4l3.45-3c1.14-1,2.37-1.93,3.54-2.9s2.37-2,3.63-3l3.75-2.85,2.39-1.18c.8-.36,1.61-.74,2.49-1.21s1.84-1,2.93-1.72L90.9,44.6c.64-.41,1.33-.85,2.07-1.34.46-.76.89-1.57,1.34-2.37,2.36-1.48,4.57-2.63,6.8-3.89,1.13-.61,2.24-1.3,3.46-1.9l3.84-2c.64-.55,1.28-1.12,2.18-1.8,3.61-1.49,7.17-3.1,11.15-4.45,1.47-.14,2.66-.19,4.12-.31.18.43,4.21-.61,4.38-.19l3-1,3.27-1c0,.53,1.35.33,3.1-.15s4-1.09,5.85-1.63c2.69-.59,5.16-.89,7.88-1.31-.07-.27-.14-.58-.2-.85,2.05-.34,5.09-.64,8.22-1,1.57-.19,3.17-.24,4.7-.28s3,0,4.21,0a67,67,0,0,0,7.5.16c2.69.06,5.11.22,5.81.68,2.2,0,4.39.27,6.59.42,1.1.09,2.21.15,3.3.26l3.29.4c1.53.25,3,.46,4.49.8l4.22,1c2.73.61,5.19,1.47,7.42,2.09s4.15,1.3,5.77,1.69a12.59,12.59,0,0,0,3.86.51c-.37-.81-3.18-1.89-6.35-3-1.58-.56-3.29-1-4.81-1.47s-2.87-.94-3.81-1.28c-3.56-.67-7.11-1.41-10.71-1.85a111.37,111.37,0,0,0-32.21-2.77,4.35,4.35,0,0,0-1.72-.25c-.82,0-1.87.11-3.08.25s-2.58.33-4,.55-3,.59-4.59.91c-.29-.32-1-.43-2-.4a17.29,17.29,0,0,0-1.74.14c-.64.1-1.33.24-2.08.4-1.48.32-3.14.73-4.86,1.16s-3.45,1-5.15,1.5l-2.73.69c-1.53.31-3.12.7-4.72,1.06s-3.21.7-4.71,1.16l-3.85,1.28c-1.28.42-2.56.84-3.81,1.35l-3.78,1.47c-1.27.49-2.53,1-3.75,1.55-2.09.91-4.2,1.8-6.27,2.76l-6.11,3.07c-1.41.7-2.79,1.58-4.22,2.39s-2.84,1.62-4.18,2.45l-6.37,4.09-6.17,4.41a165.87,165.87,0,0,0-20.5,18.36l-3.76,4-3.58,4.15A25.23,25.23,0,0,0,45,77.4c-.64.82-1.31,1.77-2,2.82s-1.5,2.21-2.31,3.47l-2.43,4.18-1.69,2.56c-.54.88-1.07,1.77-1.61,2.67s-1.07,1.79-1.61,2.67-1,1.77-1.51,2.67c-.14.87-.28,1.74-.51,2.88l-1.47,3.08c-.46,1-.88,2.11-1.31,3.16a10.6,10.6,0,0,0,.13,1.25,21.78,21.78,0,0,0,.09,3,66.84,66.84,0,0,0,3.36-6.13c1.08-2,2.08-4.25,3.41-7.19l2.68-4.64c.55-.65,1.06-1.35,1.81-2.22-.91,1.73-1,2.69-.65,2.82s1.25-.52,2.62-1.82a18,18,0,0,0,.35,3.23A76.47,76.47,0,0,0,35,109.48c-2.06,4.69-3.83,9.33-5.91,13.44-.64,2-1.44,4-2,6a35.85,35.85,0,0,0-1.2,5.57c-.52,1.56-1,3.42-1.44,5A150.59,150.59,0,0,0,20,173.35l-1.32.1c-.41.72-.48,2.94-.4,6,.11,1.53.27,3.28.44,5.15.1.94.16,1.91.3,2.9s.27,2,.41,3c.42.49.8.69,1.22,1.17.06.89.11,1.77.16,2.63s.18,1.73.27,2.58c.18,1.72.36,3.44.54,5.22a8.52,8.52,0,0,1-.13,1.46l-.22.06c-.39,3.54,1.63,10.46,4.45,19.43.46,1.74,1.12,3.42,1.66,5.11s1.08,3.34,1.74,4.87c.75,2.09,1.52,4.26,2.31,6.39s1.74,4.15,2.54,6.09c.76,1.65,1.65,3.23,2.46,4.85s1.63,3.25,2.56,4.8A27.07,27.07,0,0,0,41.25,260c.93,1.7,2.07,3.3,2.77,4.7.93,1.31,1.76,2.67,2.74,3.91l2.84,3.75L51,274.18,52.5,276l3,3.53c1.17,1.6,2.27,2.89,3.5,4.45.71.68,1.41,1.36,2.63,2.62s3,3.08,5.81,6.05c2.53,2.25,5.3,4.1,7,6l4.41,3.23,4.54,3a32,32,0,0,0,5.2,4.66A56.94,56.94,0,0,0,95.42,314c1.14.22,2.47.68,3.89.92l6,3.07,6.09,2.91c2,.93,4.14,1.76,6.21,2.62,1.5.86,1.84,1.21,2.05,1.54s.28.57,1.31,1.1A44.92,44.92,0,0,0,133,329a163.66,163.66,0,0,0,19.87,3.75c1.66.38,3.33.76,5.29,1.1a21,21,0,0,0,5.9,1,51.7,51.7,0,0,0,7.58-.42l6.77.19c2.26,0,4.52-.08,6.79-.13a17,17,0,0,0,8.37.33c2.29-.09,3-.66,5.13-1.61a147.46,147.46,0,0,0,23.54-5.73c2.72-.77,5.07-1.73,7.73-2.67.79-.3,1.6-.54,2.64-1,.53.44,2.12,0,3.93-.68.9-.34,1.85-.72,2.75-1.08s1.72-.75,2.41-1c.32-.57.42-1,.72-1.57l3.39-1.62c1.12-.52,2.18-1.16,3.27-1.73,2.16-1.2,4.37-2.29,6.51-3.66l.64.89c6.73-4.18,5.87-2.52,12.42-6.22l.3.35a22.38,22.38,0,0,0-1.25,3c-4.23,3.05-.69,1.91-1.06,2.82l3.93-2.79c1.3-.94,2.54-2,3.81-2.95l3.36-2.56L281,302.3l3.27-2.76,3.09-2.87c.13-1.06.29-2.08.4-3.12l1.06-1,4.21-3.82c.69-.65,1.41-1.28,2.09-1.94l2-2c.89-1,1.9-2.2,2.88-3.32a23,23,0,0,1,2.56-2.77l2.69-3.38c.87-1.13,1.66-2.29,2.49-3.42l2.43-3.4c.76-1.16,1.51-2.32,2.26-3.48.53-.83,1.53-2.2,2.7-4.09s2.63-4.22,4.16-6.93,3.23-5.73,4.75-9c.78-1.65,1.65-3.31,2.39-5.05s1.5-3.5,2.25-5.26a165.22,165.22,0,0,0,6.8-20.52c.85-3,1.4-5.77,1.87-8,.24-1.11.44-2.09.62-2.91s.25-1.52.34-2c.54-3.18,1.13-6.37,1.42-9.59l.47-2.85c.18-1,.32-1.91.43-2.87l.69-5.76c.16-2.65.2-5.62.25-8.28C341.53,170.21,341.38,168.52,341.26,166.83Zm-15-3.22c0,.6.09,1.2.12,1.79,0-.73-.11-1.48-.2-2.25s-.15-1.58-.21-2.38Zm.14,2.13c0,.22,0,.45,0,.67C326.38,166.19,326.37,166,326.36,165.74Zm7.48-9.59c0-.55,0-1.13,0-1.72a5.91,5.91,0,0,1,0,1.72c-.3.64-.64,1-.94,1.63C333.18,156.87,333.41,156,333.84,156.15Zm-12.49,56.46c-.22.84-.48,1.74-.81,2.72C320.82,214.43,321.08,213.52,321.35,212.61ZM47.71,80.72c.37-.54.77-1.06,1.17-1.57-.69.93-1.39,1.9-2.1,2.87Zm8,.73a47.42,47.42,0,0,0-2.69,4c.34-.58.66-1.17,1-1.74s.74-1.15,1.15-1.74a42.44,42.44,0,0,1,2.89-3.76l.81-.55c-.32.31-.64.63-.95,1C57.22,79.43,56.5,80.35,55.69,81.45Zm89.43-44.74c.14-.05.31-.12.53-.18,2-.33,4.63-1.18,6-.91C153.31,35.48,149.78,35.86,145.12,36.71ZM289.59,279.42l1.21-.76A4,4,0,0,1,289.59,279.42Z" transform="translate(-18.26 -16.61)"/><path class="cls-2" d="M102.47,202.82H112.6a2.54,2.54,0,0,0,2.54-2.53v-7.6h76v7.6a2.54,2.54,0,0,0,2.53,2.53h10.14a2.54,2.54,0,0,0,2.53-2.53V159.76a12.7,12.7,0,0,0-10.13-12.41v-23a7.61,7.61,0,0,0-7.6-7.6H117.67a7.61,7.61,0,0,0-7.6,7.6v23a12.7,12.7,0,0,0-10.13,12.41v40.53A2.53,2.53,0,0,0,102.47,202.82Zm98.78-5.07h-5.06v-7.6a2.54,2.54,0,0,0-2.54-2.53H112.6a2.54,2.54,0,0,0-2.53,2.53v7.6H105V177.49h96.24ZM115.14,124.3a2.53,2.53,0,0,1,2.53-2.53h70.92a2.54,2.54,0,0,1,2.53,2.53v22.8h-5.06V137a7.61,7.61,0,0,0-7.6-7.59h-15.2a7.61,7.61,0,0,0-7.6,7.59V147.1H150.6V137a7.61,7.61,0,0,0-7.6-7.59H127.8a7.61,7.61,0,0,0-7.6,7.59V147.1h-5.06ZM181,147.1H160.73V137a2.54,2.54,0,0,1,2.53-2.53h15.2A2.54,2.54,0,0,1,181,137Zm-35.46,0H125.27V137a2.54,2.54,0,0,1,2.53-2.53H143a2.54,2.54,0,0,1,2.53,2.53ZM105,159.76a7.6,7.6,0,0,1,7.59-7.6h81.05a7.61,7.61,0,0,1,7.6,7.6v12.66H105Z" transform="translate(-18.26 -16.61)"/><path class="cls-2" d="M249.38,147.1H213.92a2.54,2.54,0,0,0-2.54,2.53v38h5.07v-15.2h30.39v15.2h5.07v-38A2.53,2.53,0,0,0,249.38,147.1Zm-32.93,20.26v-15.2h30.39v15.2Z" transform="translate(-18.26 -16.61)"/><rect class="cls-2" x="208.32" y="140.62" width="10.13" height="5.07"/><path class="cls-2" d="M241.78,129.37a2.54,2.54,0,0,0,2.4-3.34l-5.06-15.2a2.55,2.55,0,0,0-2.41-1.73H226.58a2.52,2.52,0,0,0-2.4,1.74L219.11,126a2.54,2.54,0,0,0,2.41,3.34h7.59V137h-5.06V142h15.2V137h-5.07v-7.59Zm-13.37-15.2h6.48l3.38,10.13H225Z" transform="translate(-18.26 -16.61)"/><path class="cls-2" d="M250.41,84,177,51.07a2.57,2.57,0,0,0-2.07,0L101.44,84a2.53,2.53,0,0,0-1.5,2.31V116.7H105V88l70.91-31.79L246.84,88V116.7h5.07V86.31A2.53,2.53,0,0,0,250.41,84Z" transform="translate(-18.26 -16.61)"/><path class="cls-2" d="M158.2,88.84a17.73,17.73,0,1,0,35.45,0,18.16,18.16,0,0,0-.24-3l-5,.84a12.35,12.35,0,0,1,.18,2.11,12.65,12.65,0,1,1-8.44-11.94l1.69-4.78A17.74,17.74,0,0,0,158.2,88.84Z" transform="translate(-18.26 -16.61)"/><path class="cls-2" d="M172.65,84.52l-3.58,3.58,5.06,5.06a2.52,2.52,0,0,0,3.59,0l17.73-17.73-3.59-3.58L175.92,87.79Z" transform="translate(-18.26 -16.61)"/><path class="cls-2" d="M120.48,240.09a30.52,30.52,0,0,0-7.43-1.49c-.29,4.61-.54,9.76-.54,14.57,0,7.52,2.67,9.8,0,9.9-4.76,0-5.7-13-5.65-24.52-1.73.15-3.46.35-5.15.65A108,108,0,0,1,100.47,254c-1.88,10.65-8.37,15.45-11.64,14.86s2.33-.8,4.61-13.87a122.27,122.27,0,0,0,1.09-14.07,35.23,35.23,0,0,0-9.66,4.51c-1.48.49-3.07-4.31-2.67-5s5.3-2.93,12.43-4c.1-2.77.15-5.34.2-7.52,0-4.71.49-14.47-4.31-14.47-6.79,0-13,10.11-13,14.27,0,2.23-1.73,2.77-1.73.1,0-5.8,6.88-16.4,15.6-16.4,6.19,0,10.4,7.43,10.4,22.54v.79c1.64,0,3.37,0,5.1.1.15-7.13.6-13.17.55-14.26,0-1.29.05-2.08,2.28-2.13s4.45,2.72,4.5,4.4c0,.75-.54,6-1,12.78a45.09,45.09,0,0,1,6.39,1.74C121.52,238.9,121.33,240.39,120.48,240.09Z" transform="translate(-18.26 -16.61)"/><path class="cls-2" d="M133.76,246.63c0,7.58-2.53,16.19-9,16.19-5.84,0-7.23-6.63-7.23-11.64,0-4.65.89-10.4,4.51-11.19,1.19-3.32,4.21-3.67,6.54-3.67C131.43,236.32,133.76,239.1,133.76,246.63Zm-5.55-7.28c-1.59,0-.94,5.2-2.73,6.78,0,6-1.33,14.07,1.74,14.07S133.51,239.35,128.21,239.35Z" transform="translate(-18.26 -16.61)"/><path class="cls-2" d="M144.65,235.14c3.62,0,8.62-.45,8.62,3.31s-4.75,8.42-5.6,8.42,1.19-7,.4-7c-3.81,0-7.28,9.66-4.36,9.66,1.29,0,8.87-.1,8.87,4.26s-8,11.49-10.9,11.49-4.8-2.58-3.52-2.58c2.38,0,9.22-7.33,9.22-9.11,0,0-10.65,1.64-10.65-6.39C136.73,242.91,141.09,235.14,144.65,235.14Z" transform="translate(-18.26 -16.61)"/><path class="cls-2" d="M168.47,262.58c-2.87,0-5.64-1.84-2.87-1.84,6.14,0,5.25-22.33,3.57-22.33-3.12,0-6.29,12.87-7.33,17.58-.1,2.47-.15,5.1-.15,7.72,0,12.78,3.76,15.51,1.29,15.51-10.11,0-8.08-44-4.46-44,1.88,0,4.41,0,4.41,2,0,1.09-.35,5.1-.7,10.6,1.14-4.81,2.73-9.91,4-11.2,1.63-1.63,6.53-.69,7.18-.25C179.67,240.58,179.37,262.58,168.47,262.58Z" transform="translate(-18.26 -16.61)"/><path class="cls-2" d="M202,248.06c-.34,1-3.22,13.13-11,13.13-6.89,0-11-6.19-11-11.15,0-6.43,3.27-12.38,5.25-14.16s6.79-1.49,8.32-.74,2.58,3,2.58,5.74c0,5.2-2.48,7.93-5.7,7.93a14.07,14.07,0,0,1-3.61-.65c-.4,4.91,2.62,9.91,5.35,9.91,6.29,0,8.52-9.61,8.81-10.45S202.3,247,202,248.06Zm-15-.94c6.29,2.68,7.28-8.27,4.75-8.27S187.39,242.81,186.9,247.12Z" transform="translate(-18.26 -16.61)"/><path class="cls-2" d="M220.13,247.77c0,19,3.37,19.56,1.14,19.56-6.39,0-7.38-10.55-7.73-10.55s-2.92,5.89-6.83,5.89-7.93-2.62-7.93-9.5c0-6.49,3.57-17.14,10.9-17.14,2.72,0,4.41,0,5.4,1.14,1-7.43,2.33-15.31,2.33-15.56s.05-1.18,1-1.18,5.35,1.48,5.35,3.26S220.13,236.77,220.13,247.77Zm-5.89-3.72c-.8,0-1.59-.1-1.59-.59,0-1.09,1.14-5.1-.69-5.1-3.67,0-6.69,8.76-6.69,17.88,0,1.83,1,4.8,2.53,4.8S214,250.69,214,248.11C214,247.07,214.09,245.69,214.24,244.05Z" transform="translate(-18.26 -16.61)"/><path class="cls-2" d="M254.6,244.94c-.25,1.14-5.1,18.18-9.31,19.67a1.62,1.62,0,0,1-.79.14c-4.66,0-5.8-9.65-6.14-9.65s-2.28,7.53-6.2,7.53-7.08-2.63-7.08-9.51c0-6.49,3.57-17.09,10.9-17.09,5.1,0,8.72,0,8.72,7.23,0,.69-1.79,1.29-1.79.2s-.34-5.15-2.18-5.15c-4.85,0-9.16,8.81-9.16,17.93,0,1.83.2,4.8,1.68,4.8s4.61-10.35,4.61-12.93c0-1,0-2.77,3-2.77s4.26,1.39,4.26,2.43v.79c.15,3.37-.15,12.88,1.49,12.88,1,0,6.49-15.65,6.83-16.74S254.85,243.7,254.6,244.94Z" transform="translate(-18.26 -16.61)"/><path class="cls-2" d="M259.26,261.49c0,11.24-5.8,22.14-15.41,22.14-4.8,0-7.82-2.68-7.82-4.56s2.72.84,6.19.84,8.62-6.78,8.62-17.43c0-20.21-2.43-22.74-2.43-25.81,0-2.33,2.92-.54,6.19-.54S259.26,250.24,259.26,261.49Zm-12.34-35.12c0-2.48,2.13-2.43,4.61-2.43s5,3,5,4.86C256.58,233.25,246.92,228.9,246.92,226.37Z" transform="translate(-18.26 -16.61)"/><path class="cls-2" d="M284,248.06c-.35,1-3.22,13.13-11,13.13-6.88,0-11-6.19-11-11.15,0-6.43,3.27-12.38,5.25-14.16s6.78-1.49,8.32-.74,2.58,3,2.58,5.74c0,5.2-2.48,7.93-5.7,7.93a14.07,14.07,0,0,1-3.62-.65c-.39,4.91,2.63,9.91,5.35,9.91,6.29,0,8.52-9.61,8.82-10.45S284.32,247,284,248.06Zm-15.06-.94c6.29,2.68,7.28-8.27,4.76-8.27S269.41,242.81,268.91,247.12Z" transform="translate(-18.26 -16.61)"/></svg>