<svg id="Capa_1" data-name="Capa 1" xmlns="http://www.w3.org/2000/svg" viewBox="0 0 293.96 292.09"><defs><style>.cls-1{fill:#f4b819;}</style></defs><title>circulo bosque magico franja amarilla</title><path class="cls-1" d="M322,181.86c.06-1,.06-2,.09-3-.21-1.56-.45-3.38-.66-4.93-.38.69-.48,2.78-.47,5.68,0,.73,0,1.51,0,2.32s0,1.68-.06,2.57c-.06,1.78,0,3.7-.15,5.65a23.92,23.92,0,0,0,1-5.24C321.87,183.89,322,182.88,322,181.86Z" transform="translate(-28.15 -29.91)"/><path class="cls-1" d="M30.78,154.9l.38-3c.17-1,.34-2,.51-2.9l.46-3.65c.17-1.2.41-2.38.62-3.63s.61-2.75,1-4.11l1.14-4a4.87,4.87,0,0,0-.61-1.42c.29-1.26.66-2.42,1-3.59s.72-2.32,1.11-3.55a22,22,0,0,0-2.71,4.38c-.55,1.6-1,3.24-1.43,4.86s-.93,3.24-1.28,4.89c-.1,1.16-.21,2.38-.32,3.6-.05.61-.11,1.21-.16,1.81s-.05,1.2-.07,1.78l-.88,5.59c-.19,1.85-.39,3.7-.6,5.62.3.26.56.77.85,1C30.21,158.31,30.52,156.8,30.78,154.9Z" transform="translate(-28.15 -29.91)"/><path class="cls-1" d="M32.43,210.1l-1.11-4.76c-.56-2.25-1.06-3.17-2.22-8.45l-.94.24c-.08,2.7.83,6.76,1.6,10.07.68,1.42,1.34,3.1,2.1,4.47.21,1.17.43,2.4.65,3.66s.46,2.57.79,3.85c.61,1.43,1.31,3.1,2,4.51a6.23,6.23,0,0,1,1.66.64,15.34,15.34,0,0,0-1.15-4.78C34.9,217.23,33.86,214.09,32.43,210.1Z" transform="translate(-28.15 -29.91)"/><path class="cls-1" d="M318.89,200.8c-.34-.16-.73-.2-1.18.41a17.2,17.2,0,0,0-1.72,4.24c.57-2.53.24-3.86.42-6.17-.49.21-.52-3.35-2,1.11a4.87,4.87,0,0,1-.58-1.32c.41-3.76-.7-2.56-1.54-.13-.45,1.21-.87,2.42-1.33,3.58s-1,2.28-1.48,3.34l-.16,0c-.44-.06-.93-.12-1.91,2.2l-.57-.09c-.25-.79-.82-.68-1.63.92s-1.65,4.73-2.87,10c-.39.65-.8,1.35-1.21,2s-.89,1.36-1.3,2c0-2.36-1.36-.87-3,1.6-.81,1.25-1.85,2.68-2.79,4a31.93,31.93,0,0,1-2.59,3.46c-.58,1.76-2.53,5.5-1.11,4.33-.06,1-1.39,2.72-2,4-1.44,3-3.15,4.72-3.09,3.69a3,3,0,0,1-1.57,1.15,3.08,3.08,0,0,0-.93.78c-.39.44-.86,1.15-1.59,2.19a29.67,29.67,0,0,0-2.24,2.78c-.32.45-.6.89-.86,1.3s-.51.78-.7,1.12c-.76,1.36-.83,2.16.26,1.62-.53.91-1.14,1.93-1.78,3s-1.43,2.18-2.22,3.32a41.5,41.5,0,0,1-5.26,6.34c-1.22,1.29-3.06,2.9-5.2,4.9s-4.84,4.13-7.88,6.31a135.7,135.7,0,0,1-21.29,13,152.41,152.41,0,0,1-22.81,8.92l-4.92,1.44c-1.56.39-3,.76-4.34,1.12l-1.89.52-1.71.41c-1.06.26-2,.51-2.71.75l-2.24.49-2.26.39-4.52.79c-1.05-.48-1.32-.83-5.65.45a49,49,0,0,0-6.86.12c-1.75.19-2.91.41-3.24.85a13.91,13.91,0,0,1-3.34-.28c.58-.33.1-.48-.85-.56s-2.35-.19-3.65-.28c-.88.06-1.86.09-2.91.1s-2.14-.11-3.29-.2l-3.52-.33c-1.19-.13-2.38-.35-3.56-.53l-3.46-.54-3.18-.61c-2-.37-3.74-.58-5-.71-8-2.25-16.3-4.83-23.58-9.1-6.87-2.34-12.75-6.14-18.38-10.41-1.38-1.11-2.82-2.16-4.19-3.32s-2.76-2.34-4.19-3.5-2.79-2.44-4.26-3.65-2.89-2.53-4.45-3.77c-.15.36-1.11-.17-2.28-1.24s-2.63-2.58-4-4a8.45,8.45,0,0,0-1.74-3.29c-.92-1.18-2.12-2.45-3.32-3.88a44.46,44.46,0,0,1-7-9.59c-2.69-4.85-6.58-11.32-9.9-18.42s-6.05-14.79-7-21.37c-.53-1.45-.8-3.34-1.21-5a15.72,15.72,0,0,0-1.24-3.89c-.27-2.63-.67-5.64-.92-9-.09-.85-.18-1.73-.27-2.62s-.12-1.82-.2-2.76-.16-1.91-.24-2.9c0-.49-.09-1-.14-1.49s-.06-1-.08-1.53c.22-.5.5-.78.73-1.27.12-1.67.13-3.38.31-5.1s.35-3.41.52-5.06c.09-2.34.3-4.44.45-6.78,0-.7.14-1.39.25-2.32.3-2.56.93-2.76,1.09-5.54.08-1.86.08-3.51.2-5.61.2-.92.58-2,.91-3.18a14.21,14.21,0,0,0,1.72-4.33c.56-1.85,1-4.08,1.55-6.46.53-4.93,3.61-9.42,4.79-13.67,1-1.63,2-3.26,3.1-4.81a16.67,16.67,0,0,0,2-3.16c.65-1.27,1.44-2.56,2.09-3.67a18.42,18.42,0,0,0-2,1.62l1.77-3.22.89-1.62,1-1.57,1.95-3.14c.63-1,1.38-2,2.07-3-.12,1.42,1,.12,2.47-1.82a47.57,47.57,0,0,1,4.72-5.46c1.66-1.66,4.2-4.38,4.14-5.31l2.17-2.46c.76-.84,1.52-1.73,2.37-2.54,3.44-3.18,7.13-6.41,9.69-7.43,5.33-3.76,2.9-3,5.62-5.53,3.63-2.93,2.71-.74,6.91-4,6.21-5.28,13.47-8,20.89-10.15-.89.78-3.5,1.76-4.82,2.72,0,.29.61.2,1.51-.11s2.1-.89,3.47-1.41l4.18-1.69a25.17,25.17,0,0,1,3.57-1c5-1.92,10.1-2.72,15.17-3.6,1.28-.19,2.56-.35,3.85-.56s2.59-.48,3.91-.65c2.65-.39,5.34-1,8.2-1.62l3.37.14c1.1.07,2.21.19,3.36.3s2.23.06,3.32,0l3.31.09c0-.16,0-.36-.06-1a32.36,32.36,0,0,1,11,1.07c-2.17.1-2.12.46-1,.7a30.89,30.89,0,0,0,5.26.81,23.16,23.16,0,0,0-2.21-1.26c1.31.07,2.68.15,4,.33s2.58.45,3.7.71c2.25.48,3.88,1.19,4.14,1.75a16.82,16.82,0,0,0,3.84,1l3.71.67c1.18.46,2.35.83,3.37,1.29s1.91.87,2.58,1.25c1.07.58,1.58,1.06,1.21,1.37l-1.21-.46c-1.37-.49-2.74-1-4-1.45l-3.44-1c-1-.28-1.72-.48-2.13-.57s-.5,0-.13.14c1.73,1.18,5.86,2.14,9.7,3.49a40.86,40.86,0,0,1,5.26,2c1.47.69,2.58,1.3,2.94,1.94a13.63,13.63,0,0,0,3.65,1.52A10.82,10.82,0,0,1,229.81,61c1.54,1.51,7.44,4.11,11.11,6.7a11.32,11.32,0,0,0,2.28,2.08c1,.83,2.22,1.77,3.4,2.67.58.46,1.18.89,1.71,1.35s1,.9,1.43,1.31A5.49,5.49,0,0,1,251.28,77c1.19.83,2.23,1.76,3.25,2.62s2,1.68,2.89,2.56L260,84.75c.41.41.81.83,1.22,1.23l1.12,1.28c1.48,1.7,2.94,3.34,4.29,5.12L268.72,95c.68.93,1.38,1.87,2.1,2.84a52.15,52.15,0,0,1,3.52,5.16c1.07,1.64,1.92,3.3,2.79,5,.43.83.89,1.65,1.32,2.5s.84,1.73,1.27,2.63.94,1.79,1.4,2.75.94,2,1.46,3a13.64,13.64,0,0,0-1.32-.45c.38,1,.74,2,1.11,3s.61,2,.93,3a24.3,24.3,0,0,1,1,2.62,23.51,23.51,0,0,0,2.32,4.78c1.62,5.1,2.68,6.52,3.12,5.43-.31-2-.58-4.2-1-6.42.74,1.82,1.18.9,2.15,3.82.37.08.81.38,1.19.46.94,1.29,1.7,2.4,2.55,3.75.48.77,2.91,9.3,4.06,17.9.27,2.14.62,4.27.73,6.28.09,1,.17,2,.25,2.89s.16,1.79.18,2.59a31.89,31.89,0,0,0,.41,5.41c0-1.8,0-3.62,0-5.43a22,22,0,0,0,.33-2.51,13.75,13.75,0,0,0-.13-3c.13-2.08.06-4.38,0-6.46-.23-2.62-.91-5-1.24-6.87s-.65-3.29-.31-4c-.24-1.06-.48-2.18-.74-3.34s-.61-2.36-.92-3.6-.62-2.51-1-3.79-.79-2.57-1.18-3.87-.83-2.61-1.29-3.89-.89-2.58-1.33-3.85l-1.44-3.69c-.46-1.21-.91-2.4-1.41-3.5.6.44-.85-1.91-1.34-3a34.22,34.22,0,0,0-2-4.32c-.43-.79-.87-1.62-1.32-2.46s-1-1.65-1.51-2.48c-1-1.66-2-3.35-3.1-4.83s-1.92-2.94-2.71-4.1l-2.74-3.6c-.89-1.22-1.92-2.33-2.88-3.5a42.22,42.22,0,0,0-2.68-3.58c-.75-1.59-3.38-3.87-4.38-5.24-1.08-1.07-2.1-2.12-3.15-3.14l-3.32-3A120.93,120.93,0,0,0,236.9,56.56c-2.22-1.11-4.4-2.29-6.65-3.34l-3.39-1.52-1.7-.77-1.73-.67-3.58-1.6c-1.19-.54-2.43-1-3.64-1.45l-1.13-.38c0-.26-.36-.53-.93-.81-.28-.14-.62-.28-1-.42l-1.2-.37a28.34,28.34,0,0,1-4.46-1.49c-2.06-.58-4.55-1.22-7.06-2-2.54-.6-5.1-1.33-7.35-1.9-8.31-1.05-15.25-1.52-20.9-2.52-1.94,0-3.88,0-5.83,0l-6.32.18c-2.14.09-4.26.33-6.34.47-1.12,0-2.12,0-3.09,0l-2.92,0-1.21.22a7.18,7.18,0,0,1,.68-2.09l4.06-.62c1.36-.21,2.72-.31,4.08-.47s2.76-.39,4.18-.52l4.2-.33,2.37.26c.78.12,1.57.22,2.46.3s1.88.11,3,.11l1.88,0h2.21c.71-.35,1.43-.74,2.15-1.13,2.49,0,4.71.23,7,.37,1.15.08,2.31.09,3.52.23l3.84.4c.74-.11,1.5-.22,2.5-.3,3.45.62,6.91,1.13,10.55,2,1.17.61,2.1,1.13,3.26,1.75-.07.4,3.47,1.57,3.39,2l2.78.7,2.92.85c-.22.42.86.9,2.41,1.39s3.53,1.11,5.19,1.61c2.31.85,4.31,1.81,6.56,2.81l.26-.72c1.71.73,4.14,2,6.66,3.25,1.27.61,2.5,1.35,3.67,2.06s2.25,1.39,3.18,2A60.15,60.15,0,0,0,251,57.84c2,1.36,3.74,2.64,4.05,3.32,1.65,1.09,3.18,2.33,4.76,3.51.79.6,1.59,1.17,2.36,1.79l2.28,1.89c1,.93,2.07,1.82,3,2.77l2.69,2.79c1.77,1.78,3.2,3.62,4.58,5.16s2.5,3,3.53,4.06A11.62,11.62,0,0,0,281,85.39c.1-.79-1.5-3-3.34-5.33-.92-1.18-2-2.33-2.91-3.43s-1.71-2.09-2.26-2.8c-2.35-2.23-4.67-4.5-7.17-6.57a99.49,99.49,0,0,0-22.91-17.64,4.17,4.17,0,0,0-1.18-1c-.63-.39-1.46-.82-2.44-1.3s-2.09-1-3.3-1.54-2.55-1-3.89-1.53c-.07-.38-.55-.81-1.33-1.28-.39-.23-.86-.47-1.38-.73s-1.13-.46-1.76-.7c-1.27-.48-2.72-1-4.22-1.48s-3.1-.89-4.6-1.36l-2.39-.8c-1.3-.5-2.69-1-4.07-1.48s-2.76-1-4.11-1.4l-3.51-.9c-1.17-.3-2.34-.6-3.53-.82l-3.55-.72c-1.18-.24-2.37-.48-3.57-.64-2-.33-4-.68-6.05-1l-6.09-.64c-1.39-.15-2.86-.16-4.32-.24s-2.93-.15-4.33-.18H166l-6.77.34a148.59,148.59,0,0,0-24.3,3.92l-4.75,1.17-4.7,1.41a22.94,22.94,0,0,0-2.39.64c-.88.32-1.84.7-2.89,1.14s-2.19,1-3.42,1.5l-3.84,2-2.51,1.11-2.51,1.23-2.49,1.24c-.84.4-1.65.82-2.43,1.27-.53.59-1.06,1.17-1.78,1.92l-2.6,1.6c-.85.57-1.68,1.17-2.51,1.74a10.65,10.65,0,0,0-.52,1,21.62,21.62,0,0,0-1.39,2.29,59.16,59.16,0,0,0,5.49-3c1.79-1,3.62-2.2,6-3.77L110,46.47c.74-.23,1.46-.51,2.44-.8-1.52.86-2.07,1.53-1.86,1.8s1.19.2,2.85-.12a16.53,16.53,0,0,0-1.31,2.58A69,69,0,0,0,100,56.65c-3.82,2.53-7.4,5.17-10.95,7.26-1.42,1.16-3,2.31-4.43,3.53A32,32,0,0,0,81,71.06c-1.15.92-2.4,2.09-3.5,3.07A134.21,134.21,0,0,0,57.81,97.49l-1-.56c-.66.35-1.78,2-3.2,4.35-.67,1.2-1.39,2.59-2.17,4.09-.38.75-.8,1.51-1.18,2.32l-1.15,2.48c.08.56.27.9.35,1.45l-1.16,2.07-1,2.07L45.12,120a8.74,8.74,0,0,1-.8,1l-.19-.06c-2,2.48-3.83,8.66-6.05,16.78-.49,1.54-.8,3.12-1.21,4.65s-.8,3-1,4.51c-.44,1.94-.91,3.94-1.33,5.93s-.71,4-1,5.81c-.23,1.61-.31,3.23-.49,4.84s-.34,3.23-.39,4.85A25,25,0,0,0,32,173c-.11,1.73,0,3.48-.17,4.88.06,1.43,0,2.86.16,4.27l.33,4.19c.06.69.11,1.38.17,2.08l.26,2c.18,1.37.36,2.74.53,4.11.11,1.76.32,3.27.5,5,.2.86.39,1.71.7,3.25s.76,3.75,1.46,7.36c.82,2.91,2,5.65,2.38,7.94L40,222.7l2,4.47a29.75,29.75,0,0,0,1.67,6,51.69,51.69,0,0,0,3,6.64c.75.72,1.53,1.71,2.48,2.58,1,1.73,2,3.48,3,5.2l3.16,5.14c1.1,1.68,2.28,3.32,3.42,5,.72,1.37.81,1.8.8,2.14a2.21,2.21,0,0,0,.47,1.46,40.41,40.41,0,0,0,7.66,8A145.47,145.47,0,0,0,80.82,281.7c1.06,1.09,2.14,2.18,3.45,3.38a18.52,18.52,0,0,0,4,3.62,46.48,46.48,0,0,0,5.89,3.35l5,3.41c1.71,1.09,3.45,2.13,5.17,3.19a15.48,15.48,0,0,0,6.15,4.28c1.77,1,2.61,1,4.64,1.28a132.85,132.85,0,0,0,20.48,7.06c2.42.73,4.66,1.14,7.12,1.73.73.15,1.46.37,2.45.53.19.59,1.61,1,3.29,1.38.84.18,1.75.35,2.6.52s1.65.27,2.28.43c.52-.27.78-.52,1.29-.82l3.34.41c1.1.16,2.21.19,3.3.29,2.2.14,4.4.38,6.66.39,0,.36,0,.64.06,1,7.09.1,5.64.93,12.35,1.29,0,.09,0,.13.06.41a21.59,21.59,0,0,0-2.37,1.6c-4.66.25-1.45,1.09-2.16,1.6l4.3-.2c1.44-.08,2.87-.26,4.3-.38l3.76-.3,3.79-.48,3.79-.5,3.71-.66c.62-.73,1.23-1.42,1.82-2.14l1.28-.24,5-.85c.84-.15,1.68-.27,2.51-.44l2.49-.55c1.13-.31,2.49-.74,3.77-1.11a21.76,21.76,0,0,1,3.26-.85l3.66-1.25c1.2-.42,2.36-.92,3.52-1.37l3.48-1.38,3.38-1.53c.8-.36,2.21-.91,4-1.77s4-1.91,6.48-3.2,5.2-2.76,7.94-4.52c1.39-.86,2.84-1.69,4.24-2.64l4.23-2.88a146.12,146.12,0,0,0,15-12.16c2.1-1.86,3.84-3.66,5.26-5.1l1.87-1.89c.52-.55.92-1,1.23-1.36,1.95-2.13,3.93-4.25,5.7-6.53l1.74-1.92c.59-.63,1.15-1.28,1.7-1.95l3.3-4c1.4-1.92,2.86-4.14,4.18-6.12.75-1.25,1.45-2.59,2.18-3.92s1.47-2.65,2.06-4,1.12-2.31,1.66-3.44,1.07-2.26,1.55-3.49c1.07-2.68,2.19-5.34,3.08-8.09l1.22-3.28c.42-1.08.73-2.19,1.09-3.28.7-2.19,1.44-4.36,2-6.65.56-1.23,1.11-2.46,1.63-3.7a24.64,24.64,0,0,0,2.18-3.67,26.23,26.23,0,0,0,1.71-4.6l1.11-6.31C321.82,194.66,320.75,196.5,318.89,200.8Zm-25.77,37.4c-.24.47-.5.92-.76,1.38.31-.57.63-1.15.93-1.77s.6-1.16.91-1.74Zm-1.23,2.21.31-.54Zm10.49-4.19c.27-.41.54-.86.81-1.31a5.27,5.27,0,0,1-.81,1.31c-.53.34-.95.44-1.48.78C301.54,236.44,302.15,235.87,302.38,236.22Zm-36.61,36.53c-.58.53-1.2,1.08-1.93,1.66C264.49,273.87,265.13,273.31,265.77,272.75ZM123.46,41.17c.54-.23,1.09-.43,1.65-.62-1,.36-2,.75-3,1.14Zm5.63,4.33c-1.14.45-2.45.94-4,1.7.53-.27,1.06-.56,1.61-.82s1.12-.51,1.71-.75a36.36,36.36,0,0,1,4-1.43c.29,0,.59,0,.88,0-.39.08-.78.17-1.2.28C131.22,44.72,130.24,45.06,129.09,45.5Zm89,9.44.49.12c1.66.72,4.06,1.36,4.95,2.21C224.89,58,222,56.55,218.12,54.94Zm-8.59,252.74c.44,0,.88,0,1.28,0A3.55,3.55,0,0,1,209.53,307.68Z" transform="translate(-28.15 -29.91)"/></svg>